<svg width="56" height="56" viewBox="0 0 56 56" fill="none" xmlns="http://www.w3.org/2000/svg">
<path d="M37.3333 7C40.4275 7 43.395 8.22916 45.5829 10.4171C47.7708 12.605 49 15.5725 49 18.6667V37.3333C49 40.4275 47.7708 43.395 45.5829 45.5829C43.395 47.7708 40.4275 49 37.3333 49H18.6667C15.5725 49 12.605 47.7708 10.4171 45.5829C8.22916 43.395 7 40.4275 7 37.3333V18.6667C7 15.5725 8.22916 12.605 10.4171 10.4171C12.605 8.22916 15.5725 7 18.6667 7H37.3333ZM28 18.6667C25.5246 18.6667 23.1507 19.65 21.4003 21.4003C19.65 23.1507 18.6667 25.5246 18.6667 28C18.6667 30.4754 19.65 32.8493 21.4003 34.5997C23.1507 36.35 25.5246 37.3333 28 37.3333C30.4754 37.3333 32.8493 36.35 34.5997 34.5997C36.35 32.8493 37.3333 30.4754 37.3333 28C37.3333 25.5246 36.35 23.1507 34.5997 21.4003C32.8493 19.65 30.4754 18.6667 28 18.6667ZM28 23.3333C29.2377 23.3333 30.4247 23.825 31.2998 24.7002C32.175 25.5753 32.6667 26.7623 32.6667 28C32.6667 29.2377 32.175 30.4247 31.2998 31.2998C30.4247 32.175 29.2377 32.6667 28 32.6667C26.7623 32.6667 25.5753 32.175 24.7002 31.2998C23.825 30.4247 23.3333 29.2377 23.3333 28C23.3333 26.7623 23.825 25.5753 24.7002 24.7002C25.5753 23.825 26.7623 23.3333 28 23.3333ZM38.5 15.1667C37.8812 15.1667 37.2877 15.4125 36.8501 15.8501C36.4125 16.2877 36.1667 16.8812 36.1667 17.5C36.1667 18.1188 36.4125 18.7123 36.8501 19.1499C37.2877 19.5875 37.8812 19.8333 38.5 19.8333C39.1188 19.8333 39.7123 19.5875 40.1499 19.1499C40.5875 18.7123 40.8333 18.1188 40.8333 17.5C40.8333 16.8812 40.5875 16.2877 40.1499 15.8501C39.7123 15.4125 39.1188 15.1667 38.5 15.1667Z" fill="white"/>
</svg>