<svg width="64" height="64" viewBox="0 0 64 64" fill="none" xmlns="http://www.w3.org/2000/svg">
<path fill-rule="evenodd" clip-rule="evenodd" d="M31.9987 10.6667C34.2787 10.6667 36.6174 10.7253 38.884 10.8213L41.5614 10.9493L44.124 11.1013L46.524 11.264L48.716 11.4347C51.0952 11.6157 53.3342 12.6305 55.0386 14.3003C56.743 15.9701 57.8035 18.1877 58.0334 20.5627L58.14 21.696L58.34 24.1227C58.5267 26.6373 58.6654 29.3787 58.6654 32C58.6654 34.6213 58.5267 37.3627 58.34 39.8773L58.14 42.304L58.0334 43.4373C57.8034 45.8127 56.7425 48.0307 55.0376 49.7005C53.3326 51.3704 51.093 52.3849 48.7134 52.5653L46.5267 52.7333L44.1267 52.8987L41.5614 53.0507L38.884 53.1787C36.5902 53.278 34.2946 53.3296 31.9987 53.3333C29.7028 53.3296 27.4072 53.278 25.1134 53.1787L22.436 53.0507L19.8734 52.8987L17.4734 52.7333L15.2814 52.5653C12.9022 52.3843 10.6632 51.3695 8.95882 49.6997C7.2544 48.03 6.19387 45.8123 5.96403 43.4373L5.85736 42.304L5.65736 39.8773C5.45425 37.2563 5.34574 34.6288 5.33203 32C5.33203 29.3787 5.4707 26.6373 5.65736 24.1227L5.85736 21.696L5.96403 20.5627C6.19378 18.1881 7.25393 15.9708 8.9578 14.3011C10.6617 12.6314 12.9 11.6163 15.2787 11.4347L17.468 11.264L19.868 11.1013L22.4334 10.9493L25.1107 10.8213C27.4054 10.7219 29.7019 10.6704 31.9987 10.6667ZM26.6654 25.5333V38.4667C26.6654 39.6987 27.9987 40.4667 29.0654 39.8533L40.2654 33.3867C40.5091 33.2464 40.7115 33.0443 40.8523 32.8009C40.993 32.5575 41.0671 32.2812 41.0671 32C41.0671 31.7188 40.993 31.4426 40.8523 31.1991C40.7115 30.9557 40.5091 30.7536 40.2654 30.6133L29.0654 24.1493C28.8221 24.0089 28.5461 23.9349 28.2651 23.935C27.9842 23.935 27.7082 24.009 27.4649 24.1496C27.2217 24.2901 27.0197 24.4923 26.8793 24.7356C26.739 24.979 26.6652 25.2551 26.6654 25.536V25.5333Z" fill="white"/>
</svg>