<svg width="789" height="179" viewBox="0 0 789 179" fill="none" xmlns="http://www.w3.org/2000/svg">
<path opacity="0.7" d="M86.6595 49.9963C104.718 48.535 133.07 47.6163 158.554 49.3855C160.326 49.5194 162.18 49.2492 163.276 48.6712C182.436 39.351 210.7 34.0107 240.655 34.0107C264.956 34.0107 288.418 37.5489 306.727 43.977C308.499 44.5879 311.116 44.656 312.97 44.1133C335.924 37.5137 363.012 34.0459 391.276 34.0459C403.85 34.0459 416.254 34.7249 428.238 36.1205C430.768 36.393 433.385 35.8832 434.312 34.8964C454.224 14.0121 504.854 5.30481e-06 560.294 5.30481e-06C625.689 5.30481e-06 681.467 18.7745 693.107 44.656C693.107 46.5967 692.518 49.5194 690.746 51.7655C684.078 60.0637 661.974 64.6217 641.381 61.9339C633.704 60.9142 627.374 58.7715 623.748 55.8465C620.035 52.9214 619.446 49.6228 621.889 46.5285C625.858 41.597 639.02 38.9093 651.173 40.5069C660.366 41.6981 665.519 45.7109 662.476 49.4536C661.636 50.5414 663.07 51.6621 665.769 52.038C668.468 52.3763 671.254 51.7984 672.181 50.7106C676.908 44.8604 668.893 38.5357 654.379 36.6303C651.004 36.1886 647.542 35.9842 644.085 35.9842C629.991 35.9842 616.911 39.6235 612.271 45.3021C608.983 49.4536 609.823 53.8729 614.719 57.7519C619.615 61.6285 627.968 64.5183 638.262 65.8457C664.166 69.2125 692.011 63.4986 700.364 53.0577C702.224 50.7787 702.981 48.058 703.232 45.8472C716.569 43.7045 730.745 42.6167 745.253 42.6167C807.95 42.5486 859 63.1251 859 88.4287C859 113.732 807.95 134.311 745.172 134.311C741.797 134.311 738.422 134.243 735.047 134.14C736.142 125.74 730.745 117.202 719.437 109.924C707.033 101.863 688.217 95.8106 666.445 92.8856C657.923 91.7273 649.232 91.1846 640.71 91.1846C606.617 91.1846 574.808 99.8916 563.412 113.598C557.845 120.365 559.11 127.575 566.956 133.97C574.889 140.33 588.389 145.09 605.183 147.336C633.366 151.145 663.997 144.989 673.446 133.597C681.129 124.277 668.637 114.176 645.519 111.08C638.851 110.196 631.763 110.093 624.931 110.774C622.227 111.047 620.624 112.17 621.3 113.258C621.976 114.345 624.762 114.992 627.461 114.719C632.352 114.209 637.499 114.277 642.313 114.923C660.115 117.303 669.733 125.092 663.828 132.269C656.151 141.519 631.343 146.519 608.389 143.425C594.213 141.519 582.735 137.473 575.985 132.1C569.323 126.692 568.227 120.569 572.948 114.855C582.904 102.85 610.755 95.2303 640.623 95.2303C648.131 95.2303 655.726 95.7073 663.152 96.7269C703.063 102.102 728.804 118.426 724.584 135.568C707.621 161.144 649.903 179 584.088 179C522.994 179 467.98 163.423 447.223 140.262C446.716 139.752 445.789 139.311 444.518 139.106C443.253 138.867 441.82 138.867 440.555 139.071C424.863 141.554 408.239 142.814 391.195 142.814C344.021 142.814 300.397 132.883 275.927 116.725C293.903 113.732 309.175 108.427 319.469 101.524C330.946 93.769 335.079 84.7565 330.946 76.1504C324.278 62.1383 293.816 52.3763 259.64 52.3763C255.17 52.3763 250.53 52.5478 245.972 52.8885C213.994 55.3695 192.899 67.8522 199.054 80.7436C204.032 91.2856 229.435 98.2235 255.508 96.1842C276.941 94.5161 291.117 86.1497 286.984 77.4779C284.029 71.1508 270.272 66.7644 254.832 66.7644C252.809 66.7644 250.699 66.8325 248.67 67.0017C245.89 67.2061 244.118 68.2939 244.619 69.384C245.126 70.5047 247.831 71.2189 250.53 71.0145C262.765 70.063 274.662 73.3287 276.941 78.2602C279.978 84.6883 269.515 90.9449 253.479 92.1713C232.81 93.769 212.81 88.2924 208.847 79.9612C203.781 69.2806 221.251 58.9078 247.743 56.8661C281.581 54.2488 314.322 63.2261 320.816 76.8647C328.242 92.4415 304.535 108.632 266.898 113.699C258.294 114.651 249.434 115.128 240.405 115.128C208.421 115.128 179.142 109.21 159.901 98.9049C159.819 98.8696 159.819 98.8367 159.732 98.8367C154.585 96.3534 150.201 93.7008 145.981 91.1164C131.467 82.3412 116.533 73.2606 70.2917 68.6016C42.6973 65.8128 18.0582 67.1379 6.79493e-06 69.2477C18.5653 61.8658 47.3371 53.1587 86.6595 49.9963Z" fill="#FBFFFF"/>
</svg>
