<svg width="43" height="53" viewBox="0 0 43 53" fill="none" xmlns="http://www.w3.org/2000/svg">
<g clip-path="url(#clip0_208_657)">
<path d="M42.7851 42.0859H41.2324V43.6465H42.7851V42.0859Z" fill="#863012"/>
<path d="M42.7851 40.5293H41.2324V42.0852H42.7851V40.5293Z" fill="#863012"/>
<path d="M42.7851 38.9688H41.2324V40.5294H42.7851V38.9688Z" fill="#863012"/>
<path d="M42.7851 37.4082H41.2324V38.9689H42.7851V37.4082Z" fill="#863012"/>
<path d="M42.7851 35.8516H41.2324V37.4074H42.7851V35.8516Z" fill="#863012"/>
<path d="M42.7851 34.291H41.2324V35.8517H42.7851V34.291Z" fill="#863012"/>
<path d="M41.2323 45.207H39.6748V46.7629H41.2323V45.207Z" fill="#863012"/>
<path d="M41.2323 43.6465H39.6748V45.2071H41.2323V43.6465Z" fill="#863012"/>
<path d="M41.2323 42.0859H39.6748V43.6465H41.2323V42.0859Z" fill="#863012"/>
<path d="M41.2323 40.5293H39.6748V42.0852H41.2323V40.5293Z" fill="#863012"/>
<path d="M41.2323 38.9688H39.6748V40.5294H41.2323V38.9688Z" fill="#863012"/>
<path d="M41.2323 37.4082H39.6748V38.9689H41.2323V37.4082Z" fill="#863012"/>
<path d="M41.2323 35.8516H39.6748V37.4074H41.2323V35.8516Z" fill="#863012"/>
<path d="M41.2323 34.291H39.6748V35.8517H41.2323V34.291Z" fill="#863012"/>
<path d="M41.2323 32.7363H39.6748V34.2922H41.2323V32.7363Z" fill="#863012"/>
<path d="M41.2323 31.1738H39.6748V32.7345H41.2323V31.1738Z" fill="#863012"/>
<path d="M39.6748 46.7617H38.1221V48.3224H39.6748V46.7617Z" fill="#863012"/>
<path d="M39.6748 45.207H38.1221V46.7629H39.6748V45.207Z" fill="#863012"/>
<path d="M39.6748 43.6465H38.1221V45.2071H39.6748V43.6465Z" fill="#863012"/>
<path d="M39.6748 42.0859H38.1221V43.6465H39.6748V42.0859Z" fill="#863012"/>
<path d="M39.6748 40.5293H38.1221V42.0852H39.6748V40.5293Z" fill="#863012"/>
<path d="M39.6748 38.9688H38.1221V40.5294H39.6748V38.9688Z" fill="#863012"/>
<path d="M39.6748 37.4082H38.1221V38.9689H39.6748V37.4082Z" fill="#863012"/>
<path d="M39.6748 35.8516H38.1221V37.4074H39.6748V35.8516Z" fill="#863012"/>
<path d="M39.6748 34.291H38.1221V35.8517H39.6748V34.291Z" fill="#863012"/>
<path d="M39.6748 32.7363H38.1221V34.2922H39.6748V32.7363Z" fill="#863012"/>
<path d="M39.6748 31.1738H38.1221V32.7345H39.6748V31.1738Z" fill="#863012"/>
<path d="M39.6748 29.6133H38.1221V31.1739H39.6748V29.6133Z" fill="#863012"/>
<path d="M39.6748 28.0586H38.1221V29.6145H39.6748V28.0586Z" fill="#863012"/>
<path d="M39.6748 15.5879H38.1221V17.1485H39.6748V15.5879Z" fill="#C85529"/>
<path d="M39.6748 14.0273H38.1221V15.588H39.6748V14.0273Z" fill="#C85529"/>
<path d="M38.122 48.3223H36.5645V49.8782H38.122V48.3223Z" fill="#863012"/>
<path d="M38.122 46.7617H36.5645V48.3224H38.122V46.7617Z" fill="#863012"/>
<path d="M38.122 45.207H36.5645V46.7629H38.122V45.207Z" fill="#863012"/>
<path d="M38.122 43.6465H36.5645V45.2071H38.122V43.6465Z" fill="#863012"/>
<path d="M38.122 42.0859H36.5645V43.6465H38.122V42.0859Z" fill="#863012"/>
<path d="M38.122 40.5293H36.5645V42.0852H38.122V40.5293Z" fill="#863012"/>
<path d="M38.122 38.9688H36.5645V40.5294H38.122V38.9688Z" fill="#863012"/>
<path d="M38.122 37.4082H36.5645V38.9689H38.122V37.4082Z" fill="#863012"/>
<path d="M38.122 35.8516H36.5645V37.4074H38.122V35.8516Z" fill="#863012"/>
<path d="M38.122 34.291H36.5645V35.8517H38.122V34.291Z" fill="#863012"/>
<path d="M38.122 32.7363H36.5645V34.2922H38.122V32.7363Z" fill="#863012"/>
<path d="M38.122 31.1738H36.5645V32.7345H38.122V31.1738Z" fill="#863012"/>
<path d="M38.122 29.6133H36.5645V31.1739H38.122V29.6133Z" fill="#863012"/>
<path d="M38.122 28.0586H36.5645V29.6145H38.122V28.0586Z" fill="#863012"/>
<path d="M38.122 26.498H36.5645V28.0587H38.122V26.498Z" fill="#863012"/>
<path d="M38.122 24.9414H36.5645V26.4973H38.122V24.9414Z" fill="#863012"/>
<path d="M38.122 15.5879H36.5645V17.1485H38.122V15.5879Z" fill="#C85529"/>
<path d="M38.122 14.0273H36.5645V15.588H38.122V14.0273Z" fill="#C85529"/>
<path d="M38.122 12.4707H36.5645V14.0265H38.122V12.4707Z" fill="#C85529"/>
<path d="M36.5643 49.8789H35.0068V51.4396H36.5643V49.8789Z" fill="#863012"/>
<path d="M36.5643 48.3223H35.0068V49.8782H36.5643V48.3223Z" fill="#863012"/>
<path d="M36.5643 46.7617H35.0068V48.3224H36.5643V46.7617Z" fill="#863012"/>
<path d="M36.5643 45.207H35.0068V46.7629H36.5643V45.207Z" fill="#863012"/>
<path d="M36.5643 43.6465H35.0068V45.2071H36.5643V43.6465Z" fill="#863012"/>
<path d="M36.5643 42.0859H35.0068V43.6465H36.5643V42.0859Z" fill="#863012"/>
<path d="M36.5643 40.5293H35.0068V42.0852H36.5643V40.5293Z" fill="#863012"/>
<path d="M36.5643 38.9688H35.0068V40.5294H36.5643V38.9688Z" fill="#863012"/>
<path d="M36.5643 37.4082H35.0068V38.9689H36.5643V37.4082Z" fill="#863012"/>
<path d="M36.5643 35.8516H35.0068V37.4074H36.5643V35.8516Z" fill="#863012"/>
<path d="M36.5643 34.291H35.0068V35.8517H36.5643V34.291Z" fill="#863012"/>
<path d="M36.5643 32.7363H35.0068V34.2922H36.5643V32.7363Z" fill="#863012"/>
<path d="M36.5643 31.1738H35.0068V32.7345H36.5643V31.1738Z" fill="#863012"/>
<path d="M36.5643 29.6133H35.0068V31.1739H36.5643V29.6133Z" fill="#863012"/>
<path d="M36.5643 28.0586H35.0068V29.6145H36.5643V28.0586Z" fill="#863012"/>
<path d="M36.5643 26.498H35.0068V28.0587H36.5643V26.498Z" fill="#863012"/>
<path d="M36.5643 24.9414H35.0068V26.4973H36.5643V24.9414Z" fill="#863012"/>
<path d="M36.5643 23.3809H35.0068V24.9415H36.5643V23.3809Z" fill="#863012"/>
<path d="M36.5643 17.1484H35.0068V18.7043H36.5643V17.1484Z" fill="#C85529"/>
<path d="M36.5643 15.5879H35.0068V17.1485H36.5643V15.5879Z" fill="#C85529"/>
<path d="M36.5643 14.0273H35.0068V15.588H36.5643V14.0273Z" fill="#C85529"/>
<path d="M36.5643 12.4707H35.0068V14.0265H36.5643V12.4707Z" fill="#C85529"/>
<path d="M36.5643 10.9102H35.0068V12.4708H36.5643V10.9102Z" fill="#863012"/>
<path d="M35.0068 49.8789H33.4541V51.4396H35.0068V49.8789Z" fill="#863012"/>
<path d="M35.0068 48.3223H33.4541V49.8782H35.0068V48.3223Z" fill="#863012"/>
<path d="M35.0068 46.7617H33.4541V48.3224H35.0068V46.7617Z" fill="#863012"/>
<path d="M35.0068 45.207H33.4541V46.7629H35.0068V45.207Z" fill="#863012"/>
<path d="M35.0068 43.6465H33.4541V45.2071H35.0068V43.6465Z" fill="#863012"/>
<path d="M35.0068 42.0859H33.4541V43.6465H35.0068V42.0859Z" fill="#C85529"/>
<path d="M35.0068 40.5293H33.4541V42.0852H35.0068V40.5293Z" fill="#C85529"/>
<path d="M35.0068 38.9688H33.4541V40.5294H35.0068V38.9688Z" fill="#C85529"/>
<path d="M35.0068 37.4082H33.4541V38.9689H35.0068V37.4082Z" fill="#C85529"/>
<path d="M35.0068 35.8516H33.4541V37.4074H35.0068V35.8516Z" fill="#C85529"/>
<path d="M35.0068 34.291H33.4541V35.8517H35.0068V34.291Z" fill="#C85529"/>
<path d="M35.0068 32.7363H33.4541V34.2922H35.0068V32.7363Z" fill="#863012"/>
<path d="M35.0068 31.1738H33.4541V32.7345H35.0068V31.1738Z" fill="#863012"/>
<path d="M35.0068 29.6133H33.4541V31.1739H35.0068V29.6133Z" fill="#863012"/>
<path d="M35.0068 28.0586H33.4541V29.6145H35.0068V28.0586Z" fill="#863012"/>
<path d="M35.0068 26.498H33.4541V28.0587H35.0068V26.498Z" fill="#863012"/>
<path d="M35.0068 24.9414H33.4541V26.4973H35.0068V24.9414Z" fill="#863012"/>
<path d="M35.0068 23.3809H33.4541V24.9415H35.0068V23.3809Z" fill="#863012"/>
<path d="M35.0068 21.8203H33.4541V23.381H35.0068V21.8203Z" fill="#863012"/>
<path d="M35.0068 20.2637H33.4541V21.8196H35.0068V20.2637Z" fill="#ECE29B"/>
<path d="M35.0068 17.1484H33.4541V18.7043H35.0068V17.1484Z" fill="#C85529"/>
<path d="M35.0068 15.5879H33.4541V17.1485H35.0068V15.5879Z" fill="#C85529"/>
<path d="M35.0068 14.0273H33.4541V15.588H35.0068V14.0273Z" fill="#C85529"/>
<path d="M35.0068 12.4707H33.4541V14.0265H35.0068V12.4707Z" fill="#863012"/>
<path d="M35.0068 10.9102H33.4541V12.4708H35.0068V10.9102Z" fill="#863012"/>
<path d="M35.0068 9.34961H33.4541V10.9103H35.0068V9.34961Z" fill="#C85529"/>
<path d="M35.0068 7.79297H33.4541V9.34886H35.0068V7.79297Z" fill="#C85529"/>
<path d="M35.0068 6.23242H33.4541V7.79308H35.0068V6.23242Z" fill="#C85529"/>
<path d="M35.0068 4.67773H33.4541V6.23362H35.0068V4.67773Z" fill="#C85529"/>
<path d="M33.454 49.8789H31.8965V51.4396H33.454V49.8789Z" fill="#863012"/>
<path d="M33.454 48.3223H31.8965V49.8782H33.454V48.3223Z" fill="#863012"/>
<path d="M33.454 46.7617H31.8965V48.3224H33.454V46.7617Z" fill="#863012"/>
<path d="M33.454 45.207H31.8965V46.7629H33.454V45.207Z" fill="#C85529"/>
<path d="M33.454 43.6465H31.8965V45.2071H33.454V43.6465Z" fill="#C85529"/>
<path d="M33.454 42.0859H31.8965V43.6465H33.454V42.0859Z" fill="#C85529"/>
<path d="M33.454 40.5293H31.8965V42.0852H33.454V40.5293Z" fill="#C85529"/>
<path d="M33.454 38.9688H31.8965V40.5294H33.454V38.9688Z" fill="#C85529"/>
<path d="M33.454 37.4082H31.8965V38.9689H33.454V37.4082Z" fill="#C85529"/>
<path d="M33.454 35.8516H31.8965V37.4074H33.454V35.8516Z" fill="#C85529"/>
<path d="M33.454 34.291H31.8965V35.8517H33.454V34.291Z" fill="#C85529"/>
<path d="M33.454 32.7363H31.8965V34.2922H33.454V32.7363Z" fill="#C85529"/>
<path d="M33.454 31.1738H31.8965V32.7345H33.454V31.1738Z" fill="#C85529"/>
<path d="M33.454 29.6133H31.8965V31.1739H33.454V29.6133Z" fill="#ECE29B"/>
<path d="M33.454 28.0586H31.8965V29.6145H33.454V28.0586Z" fill="#ECE29B"/>
<path d="M33.454 26.498H31.8965V28.0587H33.454V26.498Z" fill="#863012"/>
<path d="M33.454 24.9414H31.8965V26.4973H33.454V24.9414Z" fill="#863012"/>
<path d="M33.454 23.3809H31.8965V24.9415H33.454V23.3809Z" fill="#863012"/>
<path d="M33.454 21.8203H31.8965V23.381H33.454V21.8203Z" fill="#863012"/>
<path d="M33.454 20.2637H31.8965V21.8196H33.454V20.2637Z" fill="#ECE29B"/>
<path d="M33.454 18.7031H31.8965V20.2638H33.454V18.7031Z" fill="#ECE29B"/>
<path d="M33.454 17.1484H31.8965V18.7043H33.454V17.1484Z" fill="#C85529"/>
<path d="M33.454 15.5879H31.8965V17.1485H33.454V15.5879Z" fill="#C85529"/>
<path d="M33.454 14.0273H31.8965V15.588H33.454V14.0273Z" fill="#863012"/>
<path d="M33.454 12.4707H31.8965V14.0265H33.454V12.4707Z" fill="#863012"/>
<path d="M33.454 10.9102H31.8965V12.4708H33.454V10.9102Z" fill="#C85529"/>
<path d="M33.454 9.34961H31.8965V10.9103H33.454V9.34961Z" fill="#C85529"/>
<path d="M33.454 7.79297H31.8965V9.34886H33.454V7.79297Z" fill="#C85529"/>
<path d="M33.454 6.23242H31.8965V7.79308H33.454V6.23242Z" fill="#C85529"/>
<path d="M33.454 4.67773H31.8965V6.23362H33.454V4.67773Z" fill="#C85529"/>
<path d="M31.8974 51.4395H30.3447V53.0001H31.8974V51.4395Z" fill="#863012"/>
<path d="M31.8974 49.8789H30.3447V51.4396H31.8974V49.8789Z" fill="#863012"/>
<path d="M31.8974 48.3223H30.3447V49.8782H31.8974V48.3223Z" fill="#863012"/>
<path d="M31.8974 46.7617H30.3447V48.3224H31.8974V46.7617Z" fill="#C85529"/>
<path d="M31.8974 45.207H30.3447V46.7629H31.8974V45.207Z" fill="#C85529"/>
<path d="M31.8974 43.6465H30.3447V45.2071H31.8974V43.6465Z" fill="#C85529"/>
<path d="M31.8974 42.0859H30.3447V43.6465H31.8974V42.0859Z" fill="#C85529"/>
<path d="M31.8974 40.5293H30.3447V42.0852H31.8974V40.5293Z" fill="#C85529"/>
<path d="M31.8974 38.9688H30.3447V40.5294H31.8974V38.9688Z" fill="#C85529"/>
<path d="M31.8974 37.4082H30.3447V38.9689H31.8974V37.4082Z" fill="#C85529"/>
<path d="M31.8974 35.8516H30.3447V37.4074H31.8974V35.8516Z" fill="#C85529"/>
<path d="M31.8974 34.291H30.3447V35.8517H31.8974V34.291Z" fill="#C85529"/>
<path d="M31.8974 32.7363H30.3447V34.2922H31.8974V32.7363Z" fill="#C85529"/>
<path d="M31.8974 31.1738H30.3447V32.7345H31.8974V31.1738Z" fill="#C85529"/>
<path d="M31.8974 29.6133H30.3447V31.1739H31.8974V29.6133Z" fill="#C85529"/>
<path d="M31.8974 28.0586H30.3447V29.6145H31.8974V28.0586Z" fill="#ECE29B"/>
<path d="M31.8974 26.498H30.3447V28.0587H31.8974V26.498Z" fill="#ECE29B"/>
<path d="M31.8974 24.9414H30.3447V26.4973H31.8974V24.9414Z" fill="#ECE29B"/>
<path d="M31.8974 23.3809H30.3447V24.9415H31.8974V23.3809Z" fill="#863012"/>
<path d="M31.8974 21.8203H30.3447V23.381H31.8974V21.8203Z" fill="#863012"/>
<path d="M31.8974 20.2637H30.3447V21.8196H31.8974V20.2637Z" fill="#863012"/>
<path d="M31.8974 18.7031H30.3447V20.2638H31.8974V18.7031Z" fill="#ECE29B"/>
<path d="M31.8974 17.1484H30.3447V18.7043H31.8974V17.1484Z" fill="#ECE29B"/>
<path d="M31.8974 15.5879H30.3447V17.1485H31.8974V15.5879Z" fill="#863012"/>
<path d="M31.8974 14.0273H30.3447V15.588H31.8974V14.0273Z" fill="#863012"/>
<path d="M31.8974 12.4707H30.3447V14.0265H31.8974V12.4707Z" fill="#C85529"/>
<path d="M31.8974 10.9102H30.3447V12.4708H31.8974V10.9102Z" fill="#C85529"/>
<path d="M31.8974 9.34961H30.3447V10.9103H31.8974V9.34961Z" fill="#C85529"/>
<path d="M31.8974 7.79297H30.3447V9.34886H31.8974V7.79297Z" fill="#C85529"/>
<path d="M31.8974 6.23242H30.3447V7.79308H31.8974V6.23242Z" fill="#C85529"/>
<path d="M31.8974 4.67773H30.3447V6.23362H31.8974V4.67773Z" fill="#C85529"/>
<path d="M31.8974 3.11719H30.3447V4.67779H31.8974V3.11719Z" fill="#C85529"/>
<path d="M30.3446 51.4395H28.7871V53.0001H30.3446V51.4395Z" fill="#863012"/>
<path d="M30.3446 49.8789H28.7871V51.4396H30.3446V49.8789Z" fill="#863012"/>
<path d="M30.3446 48.3223H28.7871V49.8782H30.3446V48.3223Z" fill="#C85529"/>
<path d="M30.3446 46.7617H28.7871V48.3224H30.3446V46.7617Z" fill="#C85529"/>
<path d="M30.3446 45.207H28.7871V46.7629H30.3446V45.207Z" fill="#C85529"/>
<path d="M30.3446 43.6465H28.7871V45.2071H30.3446V43.6465Z" fill="#C85529"/>
<path d="M30.3446 42.0859H28.7871V43.6465H30.3446V42.0859Z" fill="#C85529"/>
<path d="M30.3446 40.5293H28.7871V42.0852H30.3446V40.5293Z" fill="#C85529"/>
<path d="M30.3446 38.9688H28.7871V40.5294H30.3446V38.9688Z" fill="#C85529"/>
<path d="M30.3446 37.4082H28.7871V38.9689H30.3446V37.4082Z" fill="#C85529"/>
<path d="M30.3446 35.8516H28.7871V37.4074H30.3446V35.8516Z" fill="#ECE29B"/>
<path d="M30.3446 34.291H28.7871V35.8517H30.3446V34.291Z" fill="#ECE29B"/>
<path d="M30.3446 32.7363H28.7871V34.2922H30.3446V32.7363Z" fill="#ECE29B"/>
<path d="M30.3446 31.1738H28.7871V32.7345H30.3446V31.1738Z" fill="#C85529"/>
<path d="M30.3446 29.6133H28.7871V31.1739H30.3446V29.6133Z" fill="#C85529"/>
<path d="M30.3446 28.0586H28.7871V29.6145H30.3446V28.0586Z" fill="#C85529"/>
<path d="M30.3446 26.498H28.7871V28.0587H30.3446V26.498Z" fill="#C85529"/>
<path d="M30.3446 24.9414H28.7871V26.4973H30.3446V24.9414Z" fill="#ECE29B"/>
<path d="M30.3446 23.3809H28.7871V24.9415H30.3446V23.3809Z" fill="#ECE29B"/>
<path d="M30.3446 21.8203H28.7871V23.381H30.3446V21.8203Z" fill="#ECE29B"/>
<path d="M30.3446 20.2637H28.7871V21.8196H30.3446V20.2637Z" fill="#ECE29B"/>
<path d="M30.3446 18.7031H28.7871V20.2638H30.3446V18.7031Z" fill="#863012"/>
<path d="M30.3446 17.1484H28.7871V18.7043H30.3446V17.1484Z" fill="#ECE29B"/>
<path d="M30.3446 15.5879H28.7871V17.1485H30.3446V15.5879Z" fill="#863012"/>
<path d="M30.3446 14.0273H28.7871V15.588H30.3446V14.0273Z" fill="#C85529"/>
<path d="M30.3446 12.4707H28.7871V14.0265H30.3446V12.4707Z" fill="#C85529"/>
<path d="M30.3446 10.9102H28.7871V12.4708H30.3446V10.9102Z" fill="#C85529"/>
<path d="M30.3446 9.34961H28.7871V10.9103H30.3446V9.34961Z" fill="#C85529"/>
<path d="M30.3446 7.79297H28.7871V9.34886H30.3446V7.79297Z" fill="#C85529"/>
<path d="M30.3446 6.23242H28.7871V7.79308H30.3446V6.23242Z" fill="#C85529"/>
<path d="M30.3446 4.67773H28.7871V6.23362H30.3446V4.67773Z" fill="#C85529"/>
<path d="M30.3446 3.11719H28.7871V4.67779H30.3446V3.11719Z" fill="#C85529"/>
<path d="M30.3446 1.55664H28.7871V3.11729H30.3446V1.55664Z" fill="#863012"/>
<path d="M28.787 51.4395H27.2295V53.0001H28.787V51.4395Z" fill="#863012"/>
<path d="M28.787 49.8789H27.2295V51.4396H28.787V49.8789Z" fill="#863012"/>
<path d="M28.787 48.3223H27.2295V49.8782H28.787V48.3223Z" fill="#C85529"/>
<path d="M28.787 46.7617H27.2295V48.3224H28.787V46.7617Z" fill="#C85529"/>
<path d="M28.787 45.207H27.2295V46.7629H28.787V45.207Z" fill="#C85529"/>
<path d="M28.787 43.6465H27.2295V45.2071H28.787V43.6465Z" fill="#C85529"/>
<path d="M28.787 42.0859H27.2295V43.6465H28.787V42.0859Z" fill="#C85529"/>
<path d="M28.787 40.5293H27.2295V42.0852H28.787V40.5293Z" fill="#C85529"/>
<path d="M28.787 38.9688H27.2295V40.5294H28.787V38.9688Z" fill="#ECE29B"/>
<path d="M28.787 37.4082H27.2295V38.9689H28.787V37.4082Z" fill="#ECE29B"/>
<path d="M28.787 35.8516H27.2295V37.4074H28.787V35.8516Z" fill="#ECE29B"/>
<path d="M28.787 34.291H27.2295V35.8517H28.787V34.291Z" fill="#863012"/>
<path d="M28.787 32.7363H27.2295V34.2922H28.787V32.7363Z" fill="#863012"/>
<path d="M28.787 31.1738H27.2295V32.7345H28.787V31.1738Z" fill="#ECE29B"/>
<path d="M28.787 29.6133H27.2295V31.1739H28.787V29.6133Z" fill="#ECE29B"/>
<path d="M28.787 28.0586H27.2295V29.6145H28.787V28.0586Z" fill="#C85529"/>
<path d="M28.787 26.498H27.2295V28.0587H28.787V26.498Z" fill="#C85529"/>
<path d="M28.787 24.9414H27.2295V26.4973H28.787V24.9414Z" fill="#C85529"/>
<path d="M28.787 23.3809H27.2295V24.9415H28.787V23.3809Z" fill="#C85529"/>
<path d="M28.787 21.8203H27.2295V23.381H28.787V21.8203Z" fill="#C85529"/>
<path d="M28.787 20.2637H27.2295V21.8196H28.787V20.2637Z" fill="#ECE29B"/>
<path d="M28.787 18.7031H27.2295V20.2638H28.787V18.7031Z" fill="#ECE29B"/>
<path d="M28.787 17.1484H27.2295V18.7043H28.787V17.1484Z" fill="#ECE29B"/>
<path d="M28.787 15.5879H27.2295V17.1485H28.787V15.5879Z" fill="#C85529"/>
<path d="M28.787 14.0273H27.2295V15.588H28.787V14.0273Z" fill="#C85529"/>
<path d="M28.787 12.4707H27.2295V14.0265H28.787V12.4707Z" fill="#C85529"/>
<path d="M28.787 10.9102H27.2295V12.4708H28.787V10.9102Z" fill="#C85529"/>
<path d="M28.787 9.34961H27.2295V10.9103H28.787V9.34961Z" fill="#C85529"/>
<path d="M28.787 7.79297H27.2295V9.34886H28.787V7.79297Z" fill="#C85529"/>
<path d="M28.787 6.23242H27.2295V7.79308H28.787V6.23242Z" fill="#C85529"/>
<path d="M28.787 4.67773H27.2295V6.23362H28.787V4.67773Z" fill="#C85529"/>
<path d="M28.787 3.11719H27.2295V4.67779H28.787V3.11719Z" fill="#C85529"/>
<path d="M28.787 1.55664H27.2295V3.11729H28.787V1.55664Z" fill="#C85529"/>
<path d="M27.2295 51.4395H25.6768V53.0001H27.2295V51.4395Z" fill="#863012"/>
<path d="M27.2295 49.8789H25.6768V51.4396H27.2295V49.8789Z" fill="#863012"/>
<path d="M27.2295 48.3223H25.6768V49.8782H27.2295V48.3223Z" fill="#C85529"/>
<path d="M27.2295 46.7617H25.6768V48.3224H27.2295V46.7617Z" fill="#C85529"/>
<path d="M27.2295 45.207H25.6768V46.7629H27.2295V45.207Z" fill="#C85529"/>
<path d="M27.2295 43.6465H25.6768V45.2071H27.2295V43.6465Z" fill="#C85529"/>
<path d="M27.2295 42.0859H25.6768V43.6465H27.2295V42.0859Z" fill="#C85529"/>
<path d="M27.2295 40.5293H25.6768V42.0852H27.2295V40.5293Z" fill="#ECE29B"/>
<path d="M27.2295 38.9688H25.6768V40.5294H27.2295V38.9688Z" fill="#863012"/>
<path d="M27.2295 37.4082H25.6768V38.9689H27.2295V37.4082Z" fill="#863012"/>
<path d="M27.2295 35.8516H25.6768V37.4074H27.2295V35.8516Z" fill="#863012"/>
<path d="M27.2295 34.291H25.6768V35.8517H27.2295V34.291Z" fill="#863012"/>
<path d="M27.2295 32.7363H25.6768V34.2922H27.2295V32.7363Z" fill="#863012"/>
<path d="M27.2295 31.1738H25.6768V32.7345H27.2295V31.1738Z" fill="#863012"/>
<path d="M27.2295 29.6133H25.6768V31.1739H27.2295V29.6133Z" fill="#863012"/>
<path d="M27.2295 28.0586H25.6768V29.6145H27.2295V28.0586Z" fill="#ECE29B"/>
<path d="M27.2295 26.498H25.6768V28.0587H27.2295V26.498Z" fill="#C85529"/>
<path d="M27.2295 24.9414H25.6768V26.4973H27.2295V24.9414Z" fill="#C85529"/>
<path d="M27.2295 23.3809H25.6768V24.9415H27.2295V23.3809Z" fill="#C85529"/>
<path d="M27.2295 21.8203H25.6768V23.381H27.2295V21.8203Z" fill="#C85529"/>
<path d="M27.2295 20.2637H25.6768V21.8196H27.2295V20.2637Z" fill="#ECE29B"/>
<path d="M27.2295 18.7031H25.6768V20.2638H27.2295V18.7031Z" fill="#ECE29B"/>
<path d="M27.2295 17.1484H25.6768V18.7043H27.2295V17.1484Z" fill="#ECE29B"/>
<path d="M27.2295 15.5879H25.6768V17.1485H27.2295V15.5879Z" fill="#ECE29B"/>
<path d="M27.2295 14.0273H25.6768V15.588H27.2295V14.0273Z" fill="#C85529"/>
<path d="M27.2295 12.4707H25.6768V14.0265H27.2295V12.4707Z" fill="#C85529"/>
<path d="M27.2295 10.9102H25.6768V12.4708H27.2295V10.9102Z" fill="#C85529"/>
<path d="M27.2295 9.34961H25.6768V10.9103H27.2295V9.34961Z" fill="#C85529"/>
<path d="M27.2295 7.79297H25.6768V9.34886H27.2295V7.79297Z" fill="#C85529"/>
<path d="M27.2295 6.23242H25.6768V7.79308H27.2295V6.23242Z" fill="#C85529"/>
<path d="M27.2295 4.67773H25.6768V6.23362H27.2295V4.67773Z" fill="#863012"/>
<path d="M27.2295 3.11719H25.6768V4.67779H27.2295V3.11719Z" fill="#863012"/>
<path d="M25.6766 51.4395H24.1191V53.0001H25.6766V51.4395Z" fill="#863012"/>
<path d="M25.6766 49.8789H24.1191V51.4396H25.6766V49.8789Z" fill="#863012"/>
<path d="M25.6766 48.3223H24.1191V49.8782H25.6766V48.3223Z" fill="#C85529"/>
<path d="M25.6766 46.7617H24.1191V48.3224H25.6766V46.7617Z" fill="#C85529"/>
<path d="M25.6766 45.207H24.1191V46.7629H25.6766V45.207Z" fill="#C85529"/>
<path d="M25.6766 43.6465H24.1191V45.2071H25.6766V43.6465Z" fill="#C85529"/>
<path d="M25.6766 42.0859H24.1191V43.6465H25.6766V42.0859Z" fill="#ECE29B"/>
<path d="M25.6766 40.5293H24.1191V42.0852H25.6766V40.5293Z" fill="#863012"/>
<path d="M25.6766 38.9688H24.1191V40.5294H25.6766V38.9688Z" fill="#863012"/>
<path d="M25.6766 37.4082H24.1191V38.9689H25.6766V37.4082Z" fill="#ECE29B"/>
<path d="M25.6766 35.8516H24.1191V37.4074H25.6766V35.8516Z" fill="#ECE29B"/>
<path d="M25.6766 34.291H24.1191V35.8517H25.6766V34.291Z" fill="#ECE29B"/>
<path d="M25.6766 32.7363H24.1191V34.2922H25.6766V32.7363Z" fill="#ECE29B"/>
<path d="M25.6766 31.1738H24.1191V32.7345H25.6766V31.1738Z" fill="#ECE29B"/>
<path d="M25.6766 29.6133H24.1191V31.1739H25.6766V29.6133Z" fill="#863012"/>
<path d="M25.6766 28.0586H24.1191V29.6145H25.6766V28.0586Z" fill="#863012"/>
<path d="M25.6766 26.498H24.1191V28.0587H25.6766V26.498Z" fill="#C85529"/>
<path d="M25.6766 24.9414H24.1191V26.4973H25.6766V24.9414Z" fill="#ECE29B"/>
<path d="M25.6766 23.3809H24.1191V24.9415H25.6766V23.3809Z" fill="#ECE29B"/>
<path d="M25.6766 21.8203H24.1191V23.381H25.6766V21.8203Z" fill="#ECE29B"/>
<path d="M25.6766 20.2637H24.1191V21.8196H25.6766V20.2637Z" fill="#ECE29B"/>
<path d="M25.6766 18.7031H24.1191V20.2638H25.6766V18.7031Z" fill="#C85529"/>
<path d="M25.6766 17.1484H24.1191V18.7043H25.6766V17.1484Z" fill="#ECE29B"/>
<path d="M25.6766 15.5879H24.1191V17.1485H25.6766V15.5879Z" fill="#ECE29B"/>
<path d="M25.6766 14.0273H24.1191V15.588H25.6766V14.0273Z" fill="#C85529"/>
<path d="M25.6766 12.4707H24.1191V14.0265H25.6766V12.4707Z" fill="#C85529"/>
<path d="M25.6766 10.9102H24.1191V12.4708H25.6766V10.9102Z" fill="#C85529"/>
<path d="M25.6766 9.34961H24.1191V10.9103H25.6766V9.34961Z" fill="#863012"/>
<path d="M25.6766 7.79297H24.1191V9.34886H25.6766V7.79297Z" fill="#863012"/>
<path d="M25.6766 6.23242H24.1191V7.79308H25.6766V6.23242Z" fill="#863012"/>
<path d="M25.6766 4.67773H24.1191V6.23362H25.6766V4.67773Z" fill="#C85529"/>
<path d="M25.6766 3.11719H24.1191V4.67779H25.6766V3.11719Z" fill="#C85529"/>
<path d="M25.6766 1.55664H24.1191V3.11729H25.6766V1.55664Z" fill="#C85529"/>
<path d="M24.1192 51.4395H22.5664V53.0001H24.1192V51.4395Z" fill="#863012"/>
<path d="M24.1192 49.8789H22.5664V51.4396H24.1192V49.8789Z" fill="#863012"/>
<path d="M24.1192 48.3223H22.5664V49.8782H24.1192V48.3223Z" fill="#C85529"/>
<path d="M24.1192 46.7617H22.5664V48.3224H24.1192V46.7617Z" fill="#C85529"/>
<path d="M24.1192 45.207H22.5664V46.7629H24.1192V45.207Z" fill="#C85529"/>
<path d="M24.1192 43.6465H22.5664V45.2071H24.1192V43.6465Z" fill="#C85529"/>
<path d="M24.1192 42.0859H22.5664V43.6465H24.1192V42.0859Z" fill="#863012"/>
<path d="M24.1192 40.5293H22.5664V42.0852H24.1192V40.5293Z" fill="#863012"/>
<path d="M24.1192 38.9688H22.5664V40.5294H24.1192V38.9688Z" fill="#ECE29B"/>
<path d="M24.1192 37.4082H22.5664V38.9689H24.1192V37.4082Z" fill="#ECE29B"/>
<path d="M24.1192 35.8516H22.5664V37.4074H24.1192V35.8516Z" fill="#ECE29B"/>
<path d="M24.1192 34.291H22.5664V35.8517H24.1192V34.291Z" fill="#ECE29B"/>
<path d="M24.1192 32.7363H22.5664V34.2922H24.1192V32.7363Z" fill="#ECE29B"/>
<path d="M24.1192 31.1738H22.5664V32.7345H24.1192V31.1738Z" fill="#ECE29B"/>
<path d="M24.1192 29.6133H22.5664V31.1739H24.1192V29.6133Z" fill="#ECE29B"/>
<path d="M24.1192 28.0586H22.5664V29.6145H24.1192V28.0586Z" fill="#863012"/>
<path d="M24.1192 26.498H22.5664V28.0587H24.1192V26.498Z" fill="#C85529"/>
<path d="M24.1192 24.9414H22.5664V26.4973H24.1192V24.9414Z" fill="#C85529"/>
<path d="M24.1192 23.3809H22.5664V24.9415H24.1192V23.3809Z" fill="#C85529"/>
<path d="M24.1192 21.8203H22.5664V23.381H24.1192V21.8203Z" fill="#C85529"/>
<path d="M24.1192 20.2637H22.5664V21.8196H24.1192V20.2637Z" fill="#C85529"/>
<path d="M24.1192 18.7031H22.5664V20.2638H24.1192V18.7031Z" fill="#C85529"/>
<path d="M24.1192 17.1484H22.5664V18.7043H24.1192V17.1484Z" fill="#ECE29B"/>
<path d="M24.1192 15.5879H22.5664V17.1485H24.1192V15.5879Z" fill="#ECE29B"/>
<path d="M24.1192 14.0273H22.5664V15.588H24.1192V14.0273Z" fill="#863012"/>
<path d="M24.1192 12.4707H22.5664V14.0265H24.1192V12.4707Z" fill="#863012"/>
<path d="M24.1192 10.9102H22.5664V12.4708H24.1192V10.9102Z" fill="#863012"/>
<path d="M24.1192 9.34961H22.5664V10.9103H24.1192V9.34961Z" fill="#863012"/>
<path d="M24.1192 7.79297H22.5664V9.34886H24.1192V7.79297Z" fill="#C85529"/>
<path d="M24.1192 6.23242H22.5664V7.79308H24.1192V6.23242Z" fill="#C85529"/>
<path d="M24.1192 4.67773H22.5664V6.23362H24.1192V4.67773Z" fill="#C85529"/>
<path d="M24.1192 3.11719H22.5664V4.67779H24.1192V3.11719Z" fill="#C85529"/>
<path d="M24.1192 1.55664H22.5664V3.11729H24.1192V1.55664Z" fill="#C85529"/>
<path d="M24.1192 0H22.5664V1.55589H24.1192V0Z" fill="#C85529"/>
<path d="M22.5662 51.4395H21.0088V53.0001H22.5662V51.4395Z" fill="#863012"/>
<path d="M22.5662 49.8789H21.0088V51.4396H22.5662V49.8789Z" fill="#863012"/>
<path d="M22.5662 48.3223H21.0088V49.8782H22.5662V48.3223Z" fill="#C85529"/>
<path d="M22.5662 46.7617H21.0088V48.3224H22.5662V46.7617Z" fill="#C85529"/>
<path d="M22.5662 45.207H21.0088V46.7629H22.5662V45.207Z" fill="#C85529"/>
<path d="M22.5662 43.6465H21.0088V45.2071H22.5662V43.6465Z" fill="#C85529"/>
<path d="M22.5662 42.0859H21.0088V43.6465H22.5662V42.0859Z" fill="#863012"/>
<path d="M22.5662 40.5293H21.0088V42.0852H22.5662V40.5293Z" fill="#ECE29B"/>
<path d="M22.5662 38.9688H21.0088V40.5294H22.5662V38.9688Z" fill="#ECE29B"/>
<path d="M22.5662 37.4082H21.0088V38.9689H22.5662V37.4082Z" fill="#C85529"/>
<path d="M22.5662 35.8516H21.0088V37.4074H22.5662V35.8516Z" fill="#C85529"/>
<path d="M22.5662 34.291H21.0088V35.8517H22.5662V34.291Z" fill="#C85529"/>
<path d="M22.5662 32.7363H21.0088V34.2922H22.5662V32.7363Z" fill="#ECE29B"/>
<path d="M22.5662 31.1738H21.0088V32.7345H22.5662V31.1738Z" fill="#C85529"/>
<path d="M22.5662 29.6133H21.0088V31.1739H22.5662V29.6133Z" fill="#ECE29B"/>
<path d="M22.5662 28.0586H21.0088V29.6145H22.5662V28.0586Z" fill="#ECE29B"/>
<path d="M22.5662 26.498H21.0088V28.0587H22.5662V26.498Z" fill="#C85529"/>
<path d="M22.5662 24.9414H21.0088V26.4973H22.5662V24.9414Z" fill="#C85529"/>
<path d="M22.5662 23.3809H21.0088V24.9415H22.5662V23.3809Z" fill="#C85529"/>
<path d="M22.5662 21.8203H21.0088V23.381H22.5662V21.8203Z" fill="#C85529"/>
<path d="M22.5662 20.2637H21.0088V21.8196H22.5662V20.2637Z" fill="#C85529"/>
<path d="M22.5662 18.7031H21.0088V20.2638H22.5662V18.7031Z" fill="#C85529"/>
<path d="M22.5662 17.1484H21.0088V18.7043H22.5662V17.1484Z" fill="#ECE29B"/>
<path d="M22.5662 15.5879H21.0088V17.1485H22.5662V15.5879Z" fill="#ECE29B"/>
<path d="M22.5662 14.0273H21.0088V15.588H22.5662V14.0273Z" fill="#C85529"/>
<path d="M22.5662 12.4707H21.0088V14.0265H22.5662V12.4707Z" fill="#C85529"/>
<path d="M22.5662 10.9102H21.0088V12.4708H22.5662V10.9102Z" fill="#C85529"/>
<path d="M22.5662 9.34961H21.0088V10.9103H22.5662V9.34961Z" fill="#C85529"/>
<path d="M22.5662 7.79297H21.0088V9.34886H22.5662V7.79297Z" fill="#C85529"/>
<path d="M22.5662 6.23242H21.0088V7.79308H22.5662V6.23242Z" fill="#C85529"/>
<path d="M22.5662 4.67773H21.0088V6.23362H22.5662V4.67773Z" fill="#C85529"/>
<path d="M22.5662 3.11719H21.0088V4.67779H22.5662V3.11719Z" fill="#C85529"/>
<path d="M22.5662 1.55664H21.0088V3.11729H22.5662V1.55664Z" fill="#C85529"/>
<path d="M22.5662 0H21.0088V1.55589H22.5662V0Z" fill="#C85529"/>
<path d="M21.0087 51.4395H19.4512V53.0001H21.0087V51.4395Z" fill="#863012"/>
<path d="M21.0087 49.8789H19.4512V51.4396H21.0087V49.8789Z" fill="#863012"/>
<path d="M21.0087 48.3223H19.4512V49.8782H21.0087V48.3223Z" fill="#C85529"/>
<path d="M21.0087 46.7617H19.4512V48.3224H21.0087V46.7617Z" fill="#C85529"/>
<path d="M21.0087 45.207H19.4512V46.7629H21.0087V45.207Z" fill="#C85529"/>
<path d="M21.0087 43.6465H19.4512V45.2071H21.0087V43.6465Z" fill="#C85529"/>
<path d="M21.0087 42.0859H19.4512V43.6465H21.0087V42.0859Z" fill="#863012"/>
<path d="M21.0087 40.5293H19.4512V42.0852H21.0087V40.5293Z" fill="#ECE29B"/>
<path d="M21.0087 38.9688H19.4512V40.5294H21.0087V38.9688Z" fill="#C85529"/>
<path d="M21.0087 37.4082H19.4512V38.9689H21.0087V37.4082Z" fill="#C85529"/>
<path d="M21.0087 35.8516H19.4512V37.4074H21.0087V35.8516Z" fill="#ECE29B"/>
<path d="M21.0087 34.291H19.4512V35.8517H21.0087V34.291Z" fill="#C85529"/>
<path d="M21.0087 32.7363H19.4512V34.2922H21.0087V32.7363Z" fill="#ECE29B"/>
<path d="M21.0087 31.1738H19.4512V32.7345H21.0087V31.1738Z" fill="#C85529"/>
<path d="M21.0087 29.6133H19.4512V31.1739H21.0087V29.6133Z" fill="#C85529"/>
<path d="M21.0087 28.0586H19.4512V29.6145H21.0087V28.0586Z" fill="#ECE29B"/>
<path d="M21.0087 26.498H19.4512V28.0587H21.0087V26.498Z" fill="#C85529"/>
<path d="M21.0087 24.9414H19.4512V26.4973H21.0087V24.9414Z" fill="#C85529"/>
<path d="M21.0087 23.3809H19.4512V24.9415H21.0087V23.3809Z" fill="#C85529"/>
<path d="M21.0087 21.8203H19.4512V23.381H21.0087V21.8203Z" fill="#C85529"/>
<path d="M21.0087 20.2637H19.4512V21.8196H21.0087V20.2637Z" fill="#C85529"/>
<path d="M21.0087 18.7031H19.4512V20.2638H21.0087V18.7031Z" fill="#C85529"/>
<path d="M21.0087 17.1484H19.4512V18.7043H21.0087V17.1484Z" fill="#ECE29B"/>
<path d="M21.0087 15.5879H19.4512V17.1485H21.0087V15.5879Z" fill="#ECE29B"/>
<path d="M21.0087 14.0273H19.4512V15.588H21.0087V14.0273Z" fill="#863012"/>
<path d="M21.0087 12.4707H19.4512V14.0265H21.0087V12.4707Z" fill="#863012"/>
<path d="M21.0087 10.9102H19.4512V12.4708H21.0087V10.9102Z" fill="#C85529"/>
<path d="M21.0087 9.34961H19.4512V10.9103H21.0087V9.34961Z" fill="#C85529"/>
<path d="M21.0087 7.79297H19.4512V9.34886H21.0087V7.79297Z" fill="#C85529"/>
<path d="M21.0087 6.23242H19.4512V7.79308H21.0087V6.23242Z" fill="#C85529"/>
<path d="M21.0087 4.67773H19.4512V6.23362H21.0087V4.67773Z" fill="#C85529"/>
<path d="M21.0087 3.11719H19.4512V4.67779H21.0087V3.11719Z" fill="#C85529"/>
<path d="M21.0087 1.55664H19.4512V3.11729H21.0087V1.55664Z" fill="#C85529"/>
<path d="M21.0087 0H19.4512V1.55589H21.0087V0Z" fill="#C85529"/>
<path d="M19.4512 51.4395H17.8984V53.0001H19.4512V51.4395Z" fill="#863012"/>
<path d="M19.4512 49.8789H17.8984V51.4396H19.4512V49.8789Z" fill="#863012"/>
<path d="M19.4512 48.3223H17.8984V49.8782H19.4512V48.3223Z" fill="#C85529"/>
<path d="M19.4512 46.7617H17.8984V48.3224H19.4512V46.7617Z" fill="#C85529"/>
<path d="M19.4512 45.207H17.8984V46.7629H19.4512V45.207Z" fill="#C85529"/>
<path d="M19.4512 43.6465H17.8984V45.2071H19.4512V43.6465Z" fill="#C85529"/>
<path d="M19.4512 42.0859H17.8984V43.6465H19.4512V42.0859Z" fill="#863012"/>
<path d="M19.4512 40.5293H17.8984V42.0852H19.4512V40.5293Z" fill="#ECE29B"/>
<path d="M19.4512 38.9688H17.8984V40.5294H19.4512V38.9688Z" fill="#ECE29B"/>
<path d="M19.4512 37.4082H17.8984V38.9689H19.4512V37.4082Z" fill="#C85529"/>
<path d="M19.4512 35.8516H17.8984V37.4074H19.4512V35.8516Z" fill="#ECE29B"/>
<path d="M19.4512 34.291H17.8984V35.8517H19.4512V34.291Z" fill="#C85529"/>
<path d="M19.4512 32.7363H17.8984V34.2922H19.4512V32.7363Z" fill="#C85529"/>
<path d="M19.4512 31.1738H17.8984V32.7345H19.4512V31.1738Z" fill="#C85529"/>
<path d="M19.4512 29.6133H17.8984V31.1739H19.4512V29.6133Z" fill="#ECE29B"/>
<path d="M19.4512 28.0586H17.8984V29.6145H19.4512V28.0586Z" fill="#ECE29B"/>
<path d="M19.4512 26.498H17.8984V28.0587H19.4512V26.498Z" fill="#C85529"/>
<path d="M19.4512 24.9414H17.8984V26.4973H19.4512V24.9414Z" fill="#C85529"/>
<path d="M19.4512 23.3809H17.8984V24.9415H19.4512V23.3809Z" fill="#C85529"/>
<path d="M19.4512 21.8203H17.8984V23.381H19.4512V21.8203Z" fill="#C85529"/>
<path d="M19.4512 20.2637H17.8984V21.8196H19.4512V20.2637Z" fill="#C85529"/>
<path d="M19.4512 18.7031H17.8984V20.2638H19.4512V18.7031Z" fill="#C85529"/>
<path d="M19.4512 17.1484H17.8984V18.7043H19.4512V17.1484Z" fill="#ECE29B"/>
<path d="M19.4512 15.5879H17.8984V17.1485H19.4512V15.5879Z" fill="#ECE29B"/>
<path d="M19.4512 14.0273H17.8984V15.588H19.4512V14.0273Z" fill="#C85529"/>
<path d="M19.4512 12.4707H17.8984V14.0265H19.4512V12.4707Z" fill="#C85529"/>
<path d="M19.4512 10.9102H17.8984V12.4708H19.4512V10.9102Z" fill="#863012"/>
<path d="M19.4512 9.34961H17.8984V10.9103H19.4512V9.34961Z" fill="#863012"/>
<path d="M19.4512 7.79297H17.8984V9.34886H19.4512V7.79297Z" fill="#863012"/>
<path d="M19.4512 6.23242H17.8984V7.79308H19.4512V6.23242Z" fill="#863012"/>
<path d="M19.4512 4.67773H17.8984V6.23362H19.4512V4.67773Z" fill="#863012"/>
<path d="M19.4512 3.11719H17.8984V4.67779H19.4512V3.11719Z" fill="#863012"/>
<path d="M19.4512 1.55664H17.8984V3.11729H19.4512V1.55664Z" fill="#863012"/>
<path d="M17.8983 51.4395H16.3408V53.0001H17.8983V51.4395Z" fill="#863012"/>
<path d="M17.8983 49.8789H16.3408V51.4396H17.8983V49.8789Z" fill="#863012"/>
<path d="M17.8983 48.3223H16.3408V49.8782H17.8983V48.3223Z" fill="#C85529"/>
<path d="M17.8983 46.7617H16.3408V48.3224H17.8983V46.7617Z" fill="#C85529"/>
<path d="M17.8983 45.207H16.3408V46.7629H17.8983V45.207Z" fill="#C85529"/>
<path d="M17.8983 43.6465H16.3408V45.2071H17.8983V43.6465Z" fill="#C85529"/>
<path d="M17.8983 42.0859H16.3408V43.6465H17.8983V42.0859Z" fill="#C85529"/>
<path d="M17.8983 40.5293H16.3408V42.0852H17.8983V40.5293Z" fill="#863012"/>
<path d="M17.8983 38.9688H16.3408V40.5294H17.8983V38.9688Z" fill="#ECE29B"/>
<path d="M17.8983 37.4082H16.3408V38.9689H17.8983V37.4082Z" fill="#ECE29B"/>
<path d="M17.8983 35.8516H16.3408V37.4074H17.8983V35.8516Z" fill="#ECE29B"/>
<path d="M17.8983 34.291H16.3408V35.8517H17.8983V34.291Z" fill="#ECE29B"/>
<path d="M17.8983 32.7363H16.3408V34.2922H17.8983V32.7363Z" fill="#ECE29B"/>
<path d="M17.8983 31.1738H16.3408V32.7345H17.8983V31.1738Z" fill="#ECE29B"/>
<path d="M17.8983 29.6133H16.3408V31.1739H17.8983V29.6133Z" fill="#ECE29B"/>
<path d="M17.8983 28.0586H16.3408V29.6145H17.8983V28.0586Z" fill="#ECE29B"/>
<path d="M17.8983 26.498H16.3408V28.0587H17.8983V26.498Z" fill="#C85529"/>
<path d="M17.8983 24.9414H16.3408V26.4973H17.8983V24.9414Z" fill="#C85529"/>
<path d="M17.8983 23.3809H16.3408V24.9415H17.8983V23.3809Z" fill="#C85529"/>
<path d="M17.8983 21.8203H16.3408V23.381H17.8983V21.8203Z" fill="#C85529"/>
<path d="M17.8983 20.2637H16.3408V21.8196H17.8983V20.2637Z" fill="#C85529"/>
<path d="M17.8983 18.7031H16.3408V20.2638H17.8983V18.7031Z" fill="#C85529"/>
<path d="M17.8983 17.1484H16.3408V18.7043H17.8983V17.1484Z" fill="#ECE29B"/>
<path d="M17.8983 15.5879H16.3408V17.1485H17.8983V15.5879Z" fill="#ECE29B"/>
<path d="M17.8983 14.0273H16.3408V15.588H17.8983V14.0273Z" fill="#C85529"/>
<path d="M17.8983 12.4707H16.3408V14.0265H17.8983V12.4707Z" fill="#C85529"/>
<path d="M17.8983 10.9102H16.3408V12.4708H17.8983V10.9102Z" fill="#C85529"/>
<path d="M17.8983 9.34961H16.3408V10.9103H17.8983V9.34961Z" fill="#C85529"/>
<path d="M17.8983 7.79297H16.3408V9.34886H17.8983V7.79297Z" fill="#C85529"/>
<path d="M17.8983 6.23242H16.3408V7.79308H17.8983V6.23242Z" fill="#C85529"/>
<path d="M17.8983 4.67773H16.3408V6.23362H17.8983V4.67773Z" fill="#C85529"/>
<path d="M17.8983 3.11719H16.3408V4.67779H17.8983V3.11719Z" fill="#C85529"/>
<path d="M16.3407 51.4395H14.7832V53.0001H16.3407V51.4395Z" fill="#863012"/>
<path d="M16.3407 49.8789H14.7832V51.4396H16.3407V49.8789Z" fill="#863012"/>
<path d="M16.3407 48.3223H14.7832V49.8782H16.3407V48.3223Z" fill="#C85529"/>
<path d="M16.3407 46.7617H14.7832V48.3224H16.3407V46.7617Z" fill="#C85529"/>
<path d="M16.3407 45.207H14.7832V46.7629H16.3407V45.207Z" fill="#C85529"/>
<path d="M16.3407 43.6465H14.7832V45.2071H16.3407V43.6465Z" fill="#C85529"/>
<path d="M16.3407 42.0859H14.7832V43.6465H16.3407V42.0859Z" fill="#C85529"/>
<path d="M16.3407 40.5293H14.7832V42.0852H16.3407V40.5293Z" fill="#863012"/>
<path d="M16.3407 38.9688H14.7832V40.5294H16.3407V38.9688Z" fill="#863012"/>
<path d="M16.3407 37.4082H14.7832V38.9689H16.3407V37.4082Z" fill="#ECE29B"/>
<path d="M16.3407 35.8516H14.7832V37.4074H16.3407V35.8516Z" fill="#ECE29B"/>
<path d="M16.3407 34.291H14.7832V35.8517H16.3407V34.291Z" fill="#ECE29B"/>
<path d="M16.3407 32.7363H14.7832V34.2922H16.3407V32.7363Z" fill="#ECE29B"/>
<path d="M16.3407 31.1738H14.7832V32.7345H16.3407V31.1738Z" fill="#ECE29B"/>
<path d="M16.3407 29.6133H14.7832V31.1739H16.3407V29.6133Z" fill="#ECE29B"/>
<path d="M16.3407 28.0586H14.7832V29.6145H16.3407V28.0586Z" fill="#C85529"/>
<path d="M16.3407 26.498H14.7832V28.0587H16.3407V26.498Z" fill="#C85529"/>
<path d="M16.3407 24.9414H14.7832V26.4973H16.3407V24.9414Z" fill="#C85529"/>
<path d="M16.3407 23.3809H14.7832V24.9415H16.3407V23.3809Z" fill="#C85529"/>
<path d="M16.3407 21.8203H14.7832V23.381H16.3407V21.8203Z" fill="#C85529"/>
<path d="M16.3407 20.2637H14.7832V21.8196H16.3407V20.2637Z" fill="#C85529"/>
<path d="M16.3407 18.7031H14.7832V20.2638H16.3407V18.7031Z" fill="#ECE29B"/>
<path d="M16.3407 17.1484H14.7832V18.7043H16.3407V17.1484Z" fill="#ECE29B"/>
<path d="M16.3407 15.5879H14.7832V17.1485H16.3407V15.5879Z" fill="#C85529"/>
<path d="M16.3407 14.0273H14.7832V15.588H16.3407V14.0273Z" fill="#C85529"/>
<path d="M16.3407 12.4707H14.7832V14.0265H16.3407V12.4707Z" fill="#C85529"/>
<path d="M16.3407 10.9102H14.7832V12.4708H16.3407V10.9102Z" fill="#C85529"/>
<path d="M16.3407 9.34961H14.7832V10.9103H16.3407V9.34961Z" fill="#C85529"/>
<path d="M16.3407 7.79297H14.7832V9.34886H16.3407V7.79297Z" fill="#C85529"/>
<path d="M16.3407 6.23242H14.7832V7.79308H16.3407V6.23242Z" fill="#C85529"/>
<path d="M16.3407 4.67773H14.7832V6.23362H16.3407V4.67773Z" fill="#C85529"/>
<path d="M16.3407 3.11719H14.7832V4.67779H16.3407V3.11719Z" fill="#863012"/>
<path d="M14.7832 51.4395H13.2305V53.0001H14.7832V51.4395Z" fill="#863012"/>
<path d="M14.7832 49.8789H13.2305V51.4396H14.7832V49.8789Z" fill="#863012"/>
<path d="M14.7832 48.3223H13.2305V49.8782H14.7832V48.3223Z" fill="#C85529"/>
<path d="M14.7832 46.7617H13.2305V48.3224H14.7832V46.7617Z" fill="#C85529"/>
<path d="M14.7832 45.207H13.2305V46.7629H14.7832V45.207Z" fill="#C85529"/>
<path d="M14.7832 43.6465H13.2305V45.2071H14.7832V43.6465Z" fill="#C85529"/>
<path d="M14.7832 42.0859H13.2305V43.6465H14.7832V42.0859Z" fill="#C85529"/>
<path d="M14.7832 40.5293H13.2305V42.0852H14.7832V40.5293Z" fill="#C85529"/>
<path d="M14.7832 38.9688H13.2305V40.5294H14.7832V38.9688Z" fill="#863012"/>
<path d="M14.7832 37.4082H13.2305V38.9689H14.7832V37.4082Z" fill="#863012"/>
<path d="M14.7832 35.8516H13.2305V37.4074H14.7832V35.8516Z" fill="#ECE29B"/>
<path d="M14.7832 34.291H13.2305V35.8517H14.7832V34.291Z" fill="#ECE29B"/>
<path d="M14.7832 32.7363H13.2305V34.2922H14.7832V32.7363Z" fill="#ECE29B"/>
<path d="M14.7832 31.1738H13.2305V32.7345H14.7832V31.1738Z" fill="#ECE29B"/>
<path d="M14.7832 29.6133H13.2305V31.1739H14.7832V29.6133Z" fill="#C85529"/>
<path d="M14.7832 28.0586H13.2305V29.6145H14.7832V28.0586Z" fill="#C85529"/>
<path d="M14.7832 26.498H13.2305V28.0587H14.7832V26.498Z" fill="#C85529"/>
<path d="M14.7832 24.9414H13.2305V26.4973H14.7832V24.9414Z" fill="#C85529"/>
<path d="M14.7832 23.3809H13.2305V24.9415H14.7832V23.3809Z" fill="#C85529"/>
<path d="M14.7832 21.8203H13.2305V23.381H14.7832V21.8203Z" fill="#C85529"/>
<path d="M14.7832 20.2637H13.2305V21.8196H14.7832V20.2637Z" fill="#863012"/>
<path d="M14.7832 18.7031H13.2305V20.2638H14.7832V18.7031Z" fill="#ECE29B"/>
<path d="M14.7832 17.1484H13.2305V18.7043H14.7832V17.1484Z" fill="#ECE29B"/>
<path d="M14.7832 14.0273H13.2305V15.588H14.7832V14.0273Z" fill="#C85529"/>
<path d="M14.7832 12.4707H13.2305V14.0265H14.7832V12.4707Z" fill="#C85529"/>
<path d="M14.7832 10.9102H13.2305V12.4708H14.7832V10.9102Z" fill="#C85529"/>
<path d="M14.7832 9.34961H13.2305V10.9103H14.7832V9.34961Z" fill="#C85529"/>
<path d="M14.7832 7.79297H13.2305V9.34886H14.7832V7.79297Z" fill="#C85529"/>
<path d="M14.7832 6.23242H13.2305V7.79308H14.7832V6.23242Z" fill="#C85529"/>
<path d="M14.7832 4.67773H13.2305V6.23362H14.7832V4.67773Z" fill="#C85529"/>
<path d="M13.2304 51.4395H11.6729V53.0001H13.2304V51.4395Z" fill="#863012"/>
<path d="M13.2304 49.8789H11.6729V51.4396H13.2304V49.8789Z" fill="#863012"/>
<path d="M13.2304 48.3223H11.6729V49.8782H13.2304V48.3223Z" fill="#C85529"/>
<path d="M13.2304 46.7617H11.6729V48.3224H13.2304V46.7617Z" fill="#C85529"/>
<path d="M13.2304 45.207H11.6729V46.7629H13.2304V45.207Z" fill="#C85529"/>
<path d="M13.2304 43.6465H11.6729V45.2071H13.2304V43.6465Z" fill="#C85529"/>
<path d="M13.2304 42.0859H11.6729V43.6465H13.2304V42.0859Z" fill="#C85529"/>
<path d="M13.2304 40.5293H11.6729V42.0852H13.2304V40.5293Z" fill="#C85529"/>
<path d="M13.2304 38.9688H11.6729V40.5294H13.2304V38.9688Z" fill="#C85529"/>
<path d="M13.2304 37.4082H11.6729V38.9689H13.2304V37.4082Z" fill="#C85529"/>
<path d="M13.2304 35.8516H11.6729V37.4074H13.2304V35.8516Z" fill="#C85529"/>
<path d="M13.2304 34.291H11.6729V35.8517H13.2304V34.291Z" fill="#C85529"/>
<path d="M13.2304 32.7363H11.6729V34.2922H13.2304V32.7363Z" fill="#C85529"/>
<path d="M13.2304 31.1738H11.6729V32.7345H13.2304V31.1738Z" fill="#C85529"/>
<path d="M13.2304 29.6133H11.6729V31.1739H13.2304V29.6133Z" fill="#C85529"/>
<path d="M13.2304 28.0586H11.6729V29.6145H13.2304V28.0586Z" fill="#C85529"/>
<path d="M13.2304 26.498H11.6729V28.0587H13.2304V26.498Z" fill="#C85529"/>
<path d="M13.2304 24.9414H11.6729V26.4973H13.2304V24.9414Z" fill="#C85529"/>
<path d="M13.2304 23.3809H11.6729V24.9415H13.2304V23.3809Z" fill="#C85529"/>
<path d="M13.2304 21.8203H11.6729V23.381H13.2304V21.8203Z" fill="#C85529"/>
<path d="M13.2304 20.2637H11.6729V21.8196H13.2304V20.2637Z" fill="#863012"/>
<path d="M13.2304 12.4707H11.6729V14.0265H13.2304V12.4707Z" fill="#C85529"/>
<path d="M13.2304 10.9102H11.6729V12.4708H13.2304V10.9102Z" fill="#C85529"/>
<path d="M13.2304 9.34961H11.6729V10.9103H13.2304V9.34961Z" fill="#C85529"/>
<path d="M13.2304 7.79297H11.6729V9.34886H13.2304V7.79297Z" fill="#C85529"/>
<path d="M13.2304 6.23242H11.6729V7.79308H13.2304V6.23242Z" fill="#C85529"/>
<path d="M11.6738 49.8789H10.1211V51.4396H11.6738V49.8789Z" fill="#863012"/>
<path d="M11.6738 48.3223H10.1211V49.8782H11.6738V48.3223Z" fill="#C85529"/>
<path d="M11.6738 46.7617H10.1211V48.3224H11.6738V46.7617Z" fill="#C85529"/>
<path d="M11.6738 45.207H10.1211V46.7629H11.6738V45.207Z" fill="#C85529"/>
<path d="M11.6738 43.6465H10.1211V45.2071H11.6738V43.6465Z" fill="#C85529"/>
<path d="M11.6738 42.0859H10.1211V43.6465H11.6738V42.0859Z" fill="#C85529"/>
<path d="M11.6738 40.5293H10.1211V42.0852H11.6738V40.5293Z" fill="#C85529"/>
<path d="M11.6738 38.9688H10.1211V40.5294H11.6738V38.9688Z" fill="#C85529"/>
<path d="M11.6738 37.4082H10.1211V38.9689H11.6738V37.4082Z" fill="#C85529"/>
<path d="M11.6738 35.8516H10.1211V37.4074H11.6738V35.8516Z" fill="#C85529"/>
<path d="M11.6738 34.291H10.1211V35.8517H11.6738V34.291Z" fill="#C85529"/>
<path d="M11.6738 32.7363H10.1211V34.2922H11.6738V32.7363Z" fill="#C85529"/>
<path d="M11.6738 31.1738H10.1211V32.7345H11.6738V31.1738Z" fill="#C85529"/>
<path d="M11.6738 29.6133H10.1211V31.1739H11.6738V29.6133Z" fill="#C85529"/>
<path d="M11.6738 28.0586H10.1211V29.6145H11.6738V28.0586Z" fill="#C85529"/>
<path d="M11.6738 26.498H10.1211V28.0587H11.6738V26.498Z" fill="#C85529"/>
<path d="M11.6738 24.9414H10.1211V26.4973H11.6738V24.9414Z" fill="#C85529"/>
<path d="M11.6738 23.3809H10.1211V24.9415H11.6738V23.3809Z" fill="#C85529"/>
<path d="M11.6738 21.8203H10.1211V23.381H11.6738V21.8203Z" fill="#863012"/>
<path d="M11.6738 10.9102H10.1211V12.4708H11.6738V10.9102Z" fill="#C85529"/>
<path d="M11.6738 9.34961H10.1211V10.9103H11.6738V9.34961Z" fill="#C85529"/>
<path d="M11.6738 7.79297H10.1211V9.34886H11.6738V7.79297Z" fill="#C85529"/>
<path d="M10.121 49.8789H8.56348V51.4396H10.121V49.8789Z" fill="#863012"/>
<path d="M10.121 48.3223H8.56348V49.8782H10.121V48.3223Z" fill="#C85529"/>
<path d="M10.121 46.7617H8.56348V48.3224H10.121V46.7617Z" fill="#C85529"/>
<path d="M10.121 45.207H8.56348V46.7629H10.121V45.207Z" fill="#C85529"/>
<path d="M10.121 43.6465H8.56348V45.2071H10.121V43.6465Z" fill="#C85529"/>
<path d="M10.121 42.0859H8.56348V43.6465H10.121V42.0859Z" fill="#C85529"/>
<path d="M10.121 40.5293H8.56348V42.0852H10.121V40.5293Z" fill="#C85529"/>
<path d="M10.121 38.9688H8.56348V40.5294H10.121V38.9688Z" fill="#C85529"/>
<path d="M10.121 37.4082H8.56348V38.9689H10.121V37.4082Z" fill="#C85529"/>
<path d="M10.121 35.8516H8.56348V37.4074H10.121V35.8516Z" fill="#C85529"/>
<path d="M10.121 34.291H8.56348V35.8517H10.121V34.291Z" fill="#C85529"/>
<path d="M10.121 32.7363H8.56348V34.2922H10.121V32.7363Z" fill="#C85529"/>
<path d="M10.121 31.1738H8.56348V32.7345H10.121V31.1738Z" fill="#C85529"/>
<path d="M10.121 29.6133H8.56348V31.1739H10.121V29.6133Z" fill="#C85529"/>
<path d="M10.121 28.0586H8.56348V29.6145H10.121V28.0586Z" fill="#C85529"/>
<path d="M10.121 26.498H8.56348V28.0587H10.121V26.498Z" fill="#C85529"/>
<path d="M10.121 24.9414H8.56348V26.4973H10.121V24.9414Z" fill="#C85529"/>
<path d="M10.121 23.3809H8.56348V24.9415H10.121V23.3809Z" fill="#863012"/>
<path d="M10.121 21.8203H8.56348V23.381H10.121V21.8203Z" fill="#863012"/>
<path d="M8.56336 49.8789H7.00586V51.4396H8.56336V49.8789Z" fill="#863012"/>
<path d="M8.56336 48.3223H7.00586V49.8782H8.56336V48.3223Z" fill="#863012"/>
<path d="M8.56336 46.7617H7.00586V48.3224H8.56336V46.7617Z" fill="#C85529"/>
<path d="M8.56336 45.207H7.00586V46.7629H8.56336V45.207Z" fill="#C85529"/>
<path d="M8.56336 43.6465H7.00586V45.2071H8.56336V43.6465Z" fill="#C85529"/>
<path d="M8.56336 42.0859H7.00586V43.6465H8.56336V42.0859Z" fill="#C85529"/>
<path d="M8.56336 40.5293H7.00586V42.0852H8.56336V40.5293Z" fill="#C85529"/>
<path d="M8.56336 38.9688H7.00586V40.5294H8.56336V38.9688Z" fill="#C85529"/>
<path d="M8.56336 37.4082H7.00586V38.9689H8.56336V37.4082Z" fill="#C85529"/>
<path d="M8.56336 35.8516H7.00586V37.4074H8.56336V35.8516Z" fill="#C85529"/>
<path d="M8.56336 34.291H7.00586V35.8517H8.56336V34.291Z" fill="#C85529"/>
<path d="M8.56336 32.7363H7.00586V34.2922H8.56336V32.7363Z" fill="#C85529"/>
<path d="M8.56336 31.1738H7.00586V32.7345H8.56336V31.1738Z" fill="#C85529"/>
<path d="M8.56336 29.6133H7.00586V31.1739H8.56336V29.6133Z" fill="#C85529"/>
<path d="M8.56336 28.0586H7.00586V29.6145H8.56336V28.0586Z" fill="#C85529"/>
<path d="M8.56336 26.498H7.00586V28.0587H8.56336V26.498Z" fill="#C85529"/>
<path d="M8.56336 24.9414H7.00586V26.4973H8.56336V24.9414Z" fill="#863012"/>
<path d="M8.56336 23.3809H7.00586V24.9415H8.56336V23.3809Z" fill="#863012"/>
<path d="M7.00587 48.3223H5.45312V49.8782H7.00587V48.3223Z" fill="#863012"/>
<path d="M7.00587 46.7617H5.45312V48.3224H7.00587V46.7617Z" fill="#C85529"/>
<path d="M7.00587 45.207H5.45312V46.7629H7.00587V45.207Z" fill="#C85529"/>
<path d="M7.00587 43.6465H5.45312V45.2071H7.00587V43.6465Z" fill="#C85529"/>
<path d="M7.00587 42.0859H5.45312V43.6465H7.00587V42.0859Z" fill="#C85529"/>
<path d="M7.00587 40.5293H5.45312V42.0852H7.00587V40.5293Z" fill="#C85529"/>
<path d="M7.00587 38.9688H5.45312V40.5294H7.00587V38.9688Z" fill="#C85529"/>
<path d="M7.00587 37.4082H5.45312V38.9689H7.00587V37.4082Z" fill="#C85529"/>
<path d="M7.00587 35.8516H5.45312V37.4074H7.00587V35.8516Z" fill="#C85529"/>
<path d="M7.00587 34.291H5.45312V35.8517H7.00587V34.291Z" fill="#C85529"/>
<path d="M7.00587 32.7363H5.45312V34.2922H7.00587V32.7363Z" fill="#C85529"/>
<path d="M7.00587 31.1738H5.45312V32.7345H7.00587V31.1738Z" fill="#C85529"/>
<path d="M7.00587 29.6133H5.45312V31.1739H7.00587V29.6133Z" fill="#C85529"/>
<path d="M7.00587 28.0586H5.45312V29.6145H7.00587V28.0586Z" fill="#C85529"/>
<path d="M7.00587 26.498H5.45312V28.0587H7.00587V26.498Z" fill="#863012"/>
<path d="M7.00587 24.9414H5.45312V26.4973H7.00587V24.9414Z" fill="#863012"/>
<path d="M5.45301 48.3223H3.89551V49.8782H5.45301V48.3223Z" fill="#863012"/>
<path d="M5.45301 46.7617H3.89551V48.3224H5.45301V46.7617Z" fill="#863012"/>
<path d="M5.45301 45.207H3.89551V46.7629H5.45301V45.207Z" fill="#C85529"/>
<path d="M5.45301 43.6465H3.89551V45.2071H5.45301V43.6465Z" fill="#C85529"/>
<path d="M5.45301 42.0859H3.89551V43.6465H5.45301V42.0859Z" fill="#C85529"/>
<path d="M5.45301 40.5293H3.89551V42.0852H5.45301V40.5293Z" fill="#C85529"/>
<path d="M5.45301 38.9688H3.89551V40.5294H5.45301V38.9688Z" fill="#C85529"/>
<path d="M5.45301 37.4082H3.89551V38.9689H5.45301V37.4082Z" fill="#C85529"/>
<path d="M5.45301 35.8516H3.89551V37.4074H5.45301V35.8516Z" fill="#C85529"/>
<path d="M5.45301 34.291H3.89551V35.8517H5.45301V34.291Z" fill="#C85529"/>
<path d="M5.45301 32.7363H3.89551V34.2922H5.45301V32.7363Z" fill="#C85529"/>
<path d="M5.45301 31.1738H3.89551V32.7345H5.45301V31.1738Z" fill="#C85529"/>
<path d="M5.45301 29.6133H3.89551V31.1739H5.45301V29.6133Z" fill="#C85529"/>
<path d="M5.45301 28.0586H3.89551V29.6145H5.45301V28.0586Z" fill="#863012"/>
<path d="M3.89551 46.7617H2.34277V48.3224H3.89551V46.7617Z" fill="#863012"/>
<path d="M3.89551 45.207H2.34277V46.7629H3.89551V45.207Z" fill="#863012"/>
<path d="M3.89551 43.6465H2.34277V45.2071H3.89551V43.6465Z" fill="#863012"/>
<path d="M3.89551 42.0859H2.34277V43.6465H3.89551V42.0859Z" fill="#C85529"/>
<path d="M3.89551 40.5293H2.34277V42.0852H3.89551V40.5293Z" fill="#C85529"/>
<path d="M3.89551 38.9688H2.34277V40.5294H3.89551V38.9688Z" fill="#C85529"/>
<path d="M3.89551 37.4082H2.34277V38.9689H3.89551V37.4082Z" fill="#C85529"/>
<path d="M3.89551 35.8516H2.34277V37.4074H3.89551V35.8516Z" fill="#C85529"/>
<path d="M3.89551 34.291H2.34277V35.8517H3.89551V34.291Z" fill="#C85529"/>
<path d="M3.89551 32.7363H2.34277V34.2922H3.89551V32.7363Z" fill="#C85529"/>
<path d="M3.89551 31.1738H2.34277V32.7345H3.89551V31.1738Z" fill="#863012"/>
<path d="M2.34261 43.6465H0.785156V45.2071H2.34261V43.6465Z" fill="#863012"/>
<path d="M2.34261 42.0859H0.785156V43.6465H2.34261V42.0859Z" fill="#863012"/>
<path d="M2.34261 40.5293H0.785156V42.0852H2.34261V40.5293Z" fill="#863012"/>
<path d="M2.34261 38.9688H0.785156V40.5294H2.34261V38.9688Z" fill="#863012"/>
<path d="M2.34261 37.4082H0.785156V38.9689H2.34261V37.4082Z" fill="#863012"/>
<path d="M2.34261 35.8516H0.785156V37.4074H2.34261V35.8516Z" fill="#863012"/>
<path d="M2.34261 34.291H0.785156V35.8517H2.34261V34.291Z" fill="#863012"/>
</g>
<defs>
<clipPath id="clip0_208_657">
<rect width="42" height="53" fill="white" transform="translate(0.785156)"/>
</clipPath>
</defs>
</svg>
