<svg width="230" height="415" viewBox="0 0 230 415" fill="none" xmlns="http://www.w3.org/2000/svg">
<g opacity="0.5" clip-path="url(#clip0_434_534)">
<mask id="mask0_434_534" style="mask-type:luminance" maskUnits="userSpaceOnUse" x="-199" y="-2" width="332" height="574">
<path d="M-198.133 -1.14502H132.516V571.493H-198.133V-1.14502Z" fill="white"/>
</mask>
<g mask="url(#mask0_434_534)">
<path d="M132.408 -0.633911V124.067C132.408 150.342 111.027 171.731 84.7574 171.731H74.3344C21.803 171.731 -20.9636 214.508 -20.9636 267.055V277.424C-20.9636 303.759 -42.3452 325.088 -68.6108 325.088H-78.9743C-131.509 325.088 -174.272 367.865 -174.272 420.412V571.328H-198.098V420.412C-198.098 354.758 -144.67 301.256 -78.9743 301.256H-68.6108C-55.45 301.256 -44.7855 290.589 -44.7855 277.424V267.055C-44.7855 201.342 8.69821 147.899 74.3344 147.899H84.7574C97.8622 147.899 108.583 137.233 108.583 124.067V-0.633911H132.408Z" fill="#058789"/>
</g>
<path d="M164.932 -0.633911V132.825C164.932 172.207 132.889 204.318 93.4589 204.318H83.0955C43.6655 204.318 11.6229 236.372 11.6229 275.813V286.182C11.6229 325.623 -20.4828 357.678 -59.8533 357.678H-70.2762C-109.643 357.678 -141.749 389.729 -141.749 429.17V571.328H-165.574V429.17C-165.574 376.623 -122.808 333.846 -70.2762 333.846H-59.8533C-33.5841 333.846 -12.2025 312.454 -12.2025 286.182V275.813C-12.2025 223.207 30.5641 180.486 83.0955 180.486H93.4589C119.725 180.486 141.11 159.097 141.11 132.825V-0.633911H164.932Z" fill="#A25752"/>
<path d="M197.514 -0.633911V141.521C197.514 194.072 154.747 236.849 102.216 236.849H91.7926C65.5269 236.849 44.1419 258.237 44.1419 284.512V294.881C44.1419 347.488 1.37874 390.205 -51.1561 390.205H-61.5196C-87.7852 390.205 -109.167 411.594 -109.167 437.869V571.328H-132.992V437.869C-132.992 398.488 -100.95 366.373 -61.5196 366.373H-51.1561C-11.7261 366.373 20.32 334.322 20.32 294.881V284.512C20.32 245.071 52.4221 213.017 91.7926 213.017H102.216C141.586 213.017 173.688 180.965 173.688 141.521V-0.633911H197.514Z" fill="#D54B1A"/>
<path fill-rule="evenodd" clip-rule="evenodd" d="M230.029 150.279V-0.633911H206.207V150.279C206.207 202.83 163.441 245.607 110.909 245.607H100.542C74.2767 245.607 52.8951 266.936 52.8951 293.271V303.636C52.8951 356.187 10.132 398.964 -42.4029 398.964H-52.8258C-79.0915 398.964 -100.477 420.352 -100.477 446.627V571.328H-76.6512V446.627C-76.6512 433.462 -65.9306 422.796 -52.8258 422.796H-42.4029C23.2333 422.796 76.7205 369.352 76.7205 303.636V293.271C76.7205 280.105 87.3815 269.439 100.542 269.439H110.909C176.605 269.439 230.029 215.936 230.029 150.279Z" fill="#E3A72F"/>
</g>
<defs>
<clipPath id="clip0_434_534">
<rect width="230" height="415" fill="white"/>
</clipPath>
</defs>
</svg>