<svg xmlns="http://www.w3.org/2000/svg" xmlns:xlink="http://www.w3.org/1999/xlink" width="154" zoomAndPan="magnify" viewBox="0 0 115.5 115.499996" height="154" preserveAspectRatio="xMidYMid meet" version="1.0"><defs><g/></defs><path fill="#7ed957" d="M 47.128906 94.160156 C 58.9375 94.160156 70.363281 89.730469 79.027344 81.675781 L 87.179688 89.828125 L 89.90625 87.097656 L 81.722656 78.949219 C 89.746094 70.28125 94.207031 58.890625 94.207031 47.046875 C 94.207031 21.117188 73.058594 0 47.128906 0 C 21.195312 0 0.015625 21.117188 0.015625 47.046875 C 0.015625 72.976562 21.132812 94.160156 47.128906 94.160156 Z M 47.128906 7.703125 C 68.855469 7.703125 86.570312 25.386719 86.570312 47.113281 C 86.570312 68.839844 68.886719 86.523438 47.128906 86.523438 C 25.371094 86.523438 7.6875 68.804688 7.6875 47.113281 C 7.6875 25.417969 25.371094 7.703125 47.128906 7.703125 Z M 47.128906 7.703125 " fill-opacity="1" fill-rule="nonzero"/><path fill="#7ed957" d="M 85.671875 94.09375 L 94.113281 85.65625 L 97.257812 88.800781 L 88.816406 97.242188 Z M 85.671875 94.09375 " fill-opacity="1" fill-rule="nonzero"/><path fill="#7ed957" d="M 99.953125 91.59375 L 91.511719 100.03125 L 103.898438 112.386719 C 106.242188 114.699219 109.996094 114.699219 112.339844 112.386719 C 112.402344 112.324219 112.5 112.226562 112.566406 112.164062 C 114.683594 109.820312 114.554688 106.226562 112.339844 104.011719 Z M 99.953125 91.59375 " fill-opacity="1" fill-rule="nonzero"/><path fill="#7ed957" d="M 47.128906 82.636719 C 66.738281 82.636719 82.71875 66.6875 82.71875 47.078125 C 82.71875 27.472656 66.703125 11.554688 47.128906 11.554688 C 27.550781 11.554688 11.539062 27.503906 11.539062 47.113281 C 11.539062 66.71875 27.488281 82.636719 47.128906 82.636719 Z M 54.253906 37.996094 L 56.980469 35.269531 L 67.925781 46.214844 L 56.980469 57.15625 L 54.253906 54.429688 L 62.46875 46.179688 Z M 49.148438 30.679688 L 52.839844 31.675781 L 44.722656 61.746094 L 41.03125 60.75 Z M 36.953125 35.269531 L 39.683594 37.996094 L 31.433594 46.246094 L 39.683594 54.492188 L 36.953125 57.222656 L 26.011719 46.277344 Z M 36.953125 35.269531 " fill-opacity="1" fill-rule="nonzero"/><g fill="#7ed957" fill-opacity="1"><g transform="translate(19.764475, 46.915816)"><g><path d="M 1.5625 0.0625 C 1.34375 0.0625 1.171875 0 1.046875 -0.125 C 0.921875 -0.25 0.859375 -0.414062 0.859375 -0.625 C 0.859375 -0.820312 0.921875 -0.984375 1.046875 -1.109375 C 1.171875 -1.242188 1.34375 -1.3125 1.5625 -1.3125 C 1.789062 -1.3125 1.96875 -1.25 2.09375 -1.125 C 2.226562 -1.007812 2.296875 -0.847656 2.296875 -0.640625 C 2.296875 -0.429688 2.226562 -0.257812 2.09375 -0.125 C 1.96875 0 1.789062 0.0625 1.5625 0.0625 Z M 1.5625 0.0625 "/></g></g></g></svg>