
<svg width="918" height="585" viewBox="0 0 918 585" fill="none" xmlns="http://www.w3.org/2000/svg">
<g clip-path="url(#clip0_373_654)">
<mask id="mask0_373_654" style="mask-type:luminance" maskUnits="userSpaceOnUse" x="14" y="79" width="905" height="497">
<path d="M14.334 79.667H918.334V575.667H14.334V79.667Z" fill="white"/>
</mask>
<g mask="url(#mask0_373_654)">
<mask id="mask1_373_654" style="mask-type:luminance" maskUnits="userSpaceOnUse" x="-79" y="-115" width="1008" height="941">
<path d="M604.448 -115L928.255 346.786L245.401 825.604L-78.4062 363.823L604.448 -115Z" fill="white"/>
</mask>
<g mask="url(#mask1_373_654)">
<mask id="mask2_373_654" style="mask-type:luminance" maskUnits="userSpaceOnUse" x="-79" y="-115" width="1008" height="941">
<path d="M604.448 -115L928.255 346.786L245.401 825.604L-78.4062 363.823L604.448 -115Z" fill="white"/>
</mask>
<g mask="url(#mask2_373_654)">
<mask id="mask3_373_654" style="mask-type:luminance" maskUnits="userSpaceOnUse" x="-79" y="-115" width="1008" height="941">
<path d="M604.448 -115L928.255 346.786L245.401 825.604L-78.4062 363.823L604.448 -115Z" fill="white"/>
</mask>
<g mask="url(#mask3_373_654)">
<path d="M14.8223 474.63C44.1243 431.641 158.104 275.542 371.171 223.589C503.39 191.354 614.734 213.609 671.359 229.349C675.307 179.844 679.239 130.318 683.166 80.8281C761.327 170.995 839.505 261.182 917.666 351.349C808.031 425.917 698.39 500.484 588.765 575.068C602.067 528.005 615.369 480.948 628.682 433.854C580.02 407.984 501.765 374.875 401.244 367.036C206.791 351.885 62.6816 441.698 14.8223 474.63Z" fill="#D53E28"/>
</g>
</g>
</g>
</g>
<mask id="mask4_373_654" style="mask-type:luminance" maskUnits="userSpaceOnUse" x="-49" y="17" width="978" height="622">
<path d="M-48.334 17H928.999V638.333H-48.334V17Z" fill="white"/>
</mask>
<g mask="url(#mask4_373_654)">
<mask id="mask5_373_654" style="mask-type:luminance" maskUnits="userSpaceOnUse" x="-79" y="-115" width="1008" height="941">
<path d="M604.448 -115L928.255 346.786L245.401 825.604L-78.4062 363.823L604.448 -115Z" fill="white"/>
</mask>
<g mask="url(#mask5_373_654)">
<mask id="mask6_373_654" style="mask-type:luminance" maskUnits="userSpaceOnUse" x="-79" y="-115" width="1008" height="941">
<path d="M604.448 -115L928.255 346.786L245.401 825.604L-78.4062 363.823L604.448 -115Z" fill="white"/>
</mask>
<g mask="url(#mask6_373_654)">
<mask id="mask7_373_654" style="mask-type:luminance" maskUnits="userSpaceOnUse" x="-79" y="-115" width="1008" height="941">
<path d="M604.448 -115L928.255 346.786L245.401 825.604L-78.4062 363.823L604.448 -115Z" fill="white"/>
</mask>
<g mask="url(#mask7_373_654)">
<path d="M14.8236 474.63C44.1257 431.641 158.105 275.542 371.173 223.589C503.391 191.354 614.735 213.609 671.36 229.349C675.308 179.844 679.24 130.318 683.167 80.8282C761.329 170.995 839.506 261.182 917.667 351.349C808.032 425.917 698.391 500.484 588.766 575.068C602.068 528.005 615.37 480.948 628.683 433.854C580.021 407.984 501.766 374.875 401.245 367.036C206.792 351.885 62.683 441.698 14.8236 474.63Z" stroke="black" stroke-width="4.45495" stroke-miterlimit="10"/>
</g>
</g>
</g>
</g>
<mask id="mask8_373_654" style="mask-type:luminance" maskUnits="userSpaceOnUse" x="26" y="43" width="890" height="508">
<path d="M26.334 43.667H915.667V550.334H26.334V43.667Z" fill="white"/>
</mask>
<g mask="url(#mask8_373_654)">
<mask id="mask9_373_654" style="mask-type:luminance" maskUnits="userSpaceOnUse" x="-79" y="-115" width="1008" height="941">
<path d="M604.448 -115L928.255 346.786L245.401 825.604L-78.4062 363.823L604.448 -115Z" fill="white"/>
</mask>
<g mask="url(#mask9_373_654)">
<mask id="mask10_373_654" style="mask-type:luminance" maskUnits="userSpaceOnUse" x="-79" y="-115" width="1008" height="941">
<path d="M604.448 -115L928.255 346.786L245.401 825.604L-78.4062 363.823L604.448 -115Z" fill="white"/>
</mask>
<g mask="url(#mask10_373_654)">
<mask id="mask11_373_654" style="mask-type:luminance" maskUnits="userSpaceOnUse" x="-79" y="-115" width="1008" height="941">
<path d="M604.448 -115L928.255 346.786L245.401 825.604L-78.4062 363.823L604.448 -115Z" fill="white"/>
</mask>
<g mask="url(#mask11_373_654)">
<path d="M26.4219 458.417C47.4635 421.193 152.005 245.433 369.531 187.302C503.495 151.506 616.943 177.266 669.724 193.063C673.667 143.558 677.599 94.0316 681.526 44.542C759.177 145.813 836.859 247.094 914.51 348.365C808.635 415.375 702.766 482.401 596.87 549.417C610.182 500.474 623.49 451.558 636.807 402.61C591.536 376.188 508.87 336.511 399.583 330.766C202.141 320.349 62.8698 428.266 26.4219 458.417Z" fill="#F9B927"/>
</g>
</g>
</g>
</g>
<mask id="mask12_373_654" style="mask-type:luminance" maskUnits="userSpaceOnUse" x="-38" y="-19" width="967" height="632">
<path d="M-37.666 -19H929.001V613H-37.666V-19Z" fill="white"/>
</mask>
<g mask="url(#mask12_373_654)">
<mask id="mask13_373_654" style="mask-type:luminance" maskUnits="userSpaceOnUse" x="-79" y="-115" width="1008" height="941">
<path d="M604.448 -115L928.255 346.786L245.401 825.604L-78.4062 363.823L604.448 -115Z" fill="white"/>
</mask>
<g mask="url(#mask13_373_654)">
<mask id="mask14_373_654" style="mask-type:luminance" maskUnits="userSpaceOnUse" x="-79" y="-115" width="1008" height="941">
<path d="M604.448 -115L928.255 346.786L245.401 825.604L-78.4062 363.823L604.448 -115Z" fill="white"/>
</mask>
<g mask="url(#mask14_373_654)">
<mask id="mask15_373_654" style="mask-type:luminance" maskUnits="userSpaceOnUse" x="-79" y="-115" width="1008" height="941">
<path d="M604.448 -115L928.255 346.786L245.401 825.604L-78.4062 363.823L604.448 -115Z" fill="white"/>
</mask>
<g mask="url(#mask15_373_654)">
<path d="M26.422 458.416C47.4636 421.192 152.005 245.432 369.531 187.302C503.495 151.505 616.943 177.265 669.724 193.062C673.667 143.557 677.599 94.0309 681.526 44.5414C759.177 145.812 836.859 247.093 914.51 348.364C808.635 415.375 702.766 482.401 596.87 549.416C610.182 500.474 623.49 451.557 636.807 402.609C591.537 376.187 508.87 336.51 399.583 330.765C202.141 320.349 62.8699 428.265 26.422 458.416Z" stroke="black" stroke-width="4.45495" stroke-miterlimit="10"/>
</g>
</g>
</g>
</g>
<mask id="mask16_373_654" style="mask-type:luminance" maskUnits="userSpaceOnUse" x="38" y="-1" width="873" height="522">
<path d="M38.334 -0.333008H910.334V521H38.334V-0.333008Z" fill="white"/>
</mask>
<g mask="url(#mask16_373_654)">
<mask id="mask17_373_654" style="mask-type:luminance" maskUnits="userSpaceOnUse" x="-79" y="-115" width="1008" height="941">
<path d="M604.448 -115L928.255 346.786L245.401 825.604L-78.4062 363.823L604.448 -115Z" fill="white"/>
</mask>
<g mask="url(#mask17_373_654)">
<mask id="mask18_373_654" style="mask-type:luminance" maskUnits="userSpaceOnUse" x="-79" y="-115" width="1008" height="941">
<path d="M604.448 -115L928.255 346.786L245.401 825.604L-78.4062 363.823L604.448 -115Z" fill="white"/>
</mask>
<g mask="url(#mask18_373_654)">
<mask id="mask19_373_654" style="mask-type:luminance" maskUnits="userSpaceOnUse" x="-79" y="-115" width="1008" height="941">
<path d="M604.448 -115L928.255 346.786L245.401 825.604L-78.4062 363.823L604.448 -115Z" fill="white"/>
</mask>
<g mask="url(#mask19_373_654)">
<path d="M39.6309 433.838C54.4434 401.932 148.626 207.593 369.704 143.625C505.074 104.448 620.652 133.666 669.891 149.385C673.839 99.8799 677.772 50.3591 681.699 0.864258C757.704 115.234 833.73 229.593 909.751 343.979C808.495 402.958 707.272 461.937 606.016 520.911C619.574 468.859 633.131 416.802 646.688 364.75C605.798 338.411 518.407 290.406 399.771 287.109C199.277 281.494 65.8861 407.89 39.6309 433.838Z" fill="#36AB9E"/>
</g>
</g>
</g>
</g>
<mask id="mask20_373_654" style="mask-type:luminance" maskUnits="userSpaceOnUse" x="-25" y="-63" width="954" height="648">
<path d="M-24.334 -63H928.999V585H-24.334V-63Z" fill="white"/>
</mask>
<g mask="url(#mask20_373_654)">
<mask id="mask21_373_654" style="mask-type:luminance" maskUnits="userSpaceOnUse" x="-79" y="-115" width="1008" height="941">
<path d="M604.448 -115L928.255 346.786L245.401 825.604L-78.4062 363.823L604.448 -115Z" fill="white"/>
</mask>
<g mask="url(#mask21_373_654)">
<mask id="mask22_373_654" style="mask-type:luminance" maskUnits="userSpaceOnUse" x="-79" y="-115" width="1008" height="941">
<path d="M604.448 -115L928.255 346.786L245.401 825.604L-78.4062 363.823L604.448 -115Z" fill="white"/>
</mask>
<g mask="url(#mask22_373_654)">
<mask id="mask23_373_654" style="mask-type:luminance" maskUnits="userSpaceOnUse" x="-79" y="-115" width="1008" height="941">
<path d="M604.448 -115L928.255 346.786L245.401 825.604L-78.4062 363.823L604.448 -115Z" fill="white"/>
</mask>
<g mask="url(#mask23_373_654)">
<path d="M39.6304 433.839C54.4429 401.933 148.625 207.594 369.703 143.625C505.073 104.448 620.651 133.667 669.891 149.386C673.839 99.8806 677.771 50.3597 681.698 0.864951C757.703 115.235 833.729 229.594 909.75 343.979C808.495 402.959 707.271 461.938 606.016 520.912C619.573 468.86 633.13 416.802 646.688 364.75C605.797 338.412 518.406 290.407 399.771 287.11C199.276 281.495 65.8856 407.891 39.6304 433.839Z" stroke="black" stroke-width="4.45495" stroke-miterlimit="10"/>
</g>
</g>
</g>
</g>
</g>
<defs>
<clipPath id="clip0_373_654">
<rect width="918" height="585" fill="white"/>
</clipPath>
</defs>
</svg>
