<svg width="604" height="206" viewBox="0 0 604 206" fill="none" xmlns="http://www.w3.org/2000/svg">
<g clip-path="url(#clip0_434_561)">
<path fill-rule="evenodd" clip-rule="evenodd" d="M302.996 5.04095C438.764 5.04095 548.833 94.1 548.9 203.978H525.62C525.55 104.505 425.908 23.8917 302.993 23.8917C180.041 23.8917 80.3697 104.56 80.3697 204.089V270.356H57.0898V204.089C57.0932 94.1542 167.188 5.04095 302.996 5.04095Z" fill="#94D1C9"/>
<path fill-rule="evenodd" clip-rule="evenodd" d="M304.303 4.18408C371.964 4.46701 433.181 26.7735 477.579 62.691C522.279 98.8471 549.926 148.803 549.963 203.978L549.963 204.837L524.561 204.837V203.978C524.534 154.478 499.72 109.673 459.622 77.2337C419.534 44.8027 364.163 24.751 302.997 24.751C241.821 24.751 186.43 44.819 146.332 77.2717C106.234 109.727 81.4427 154.562 81.4427 204.086L81.4427 271.22H56.0312L56.0313 204.086C56.0313 148.879 83.6681 98.9068 128.368 62.729C172.783 26.7898 234.017 4.46711 301.697 4.18408L304.303 4.18408ZM303 5.90837C370.591 5.90837 431.787 28.064 476.088 63.9083C520.157 99.5656 547.513 148.754 547.848 203.108L526.679 203.108C526.361 153.48 501.369 108.567 461.126 76.011C420.653 43.2764 364.749 23.0212 303.004 23.0212C241.238 23.0212 185.317 43.2926 144.834 76.0516C104.351 108.819 79.3178 154.084 79.3178 204.086L79.3178 269.493L58.1595 269.493L58.1595 204.086C58.1595 149.356 85.5651 99.8123 129.876 63.9463C174.187 28.0911 235.389 5.90837 303 5.90837Z" fill="#684E3E"/>
<path fill-rule="evenodd" clip-rule="evenodd" d="M302.998 23.8914C425.91 23.8914 525.555 104.505 525.625 203.978H502.345C502.268 114.911 413.047 42.734 302.998 42.734C192.913 42.734 103.662 114.973 103.662 204.089V270.355H80.375V204.089C80.375 104.559 180.047 23.8914 302.998 23.8914Z" fill="#FFFAD5"/>
<path d="M302.998 23.0237C364.744 23.0237 420.648 43.2789 461.121 76.0135C501.605 108.756 526.644 153.997 526.684 203.975V204.834H501.283V203.975C501.246 159.677 479.045 119.585 443.164 90.5562C407.282 61.5358 357.736 43.5906 302.998 43.5906C248.244 43.5906 198.678 61.5575 162.796 90.5941C126.911 119.639 104.724 159.767 104.724 204.086V271.22H79.3125V204.086C79.3125 154.084 104.345 108.819 144.829 76.0514C185.312 43.2951 241.233 23.0237 302.998 23.0237ZM459.623 77.2335C419.535 44.8025 364.164 24.7508 302.998 24.7508C241.822 24.7508 186.431 44.8188 146.333 77.2714C106.236 109.727 81.4441 154.561 81.4441 204.086V269.493H102.592V204.086C102.592 159.29 125.021 118.733 161.288 89.3768C197.555 60.0284 247.664 41.8718 302.995 41.8718C358.309 41.8718 408.398 60.0122 444.655 89.3443C480.681 118.489 503.072 158.68 503.391 203.107H524.549C524.234 153.959 499.48 109.477 459.623 77.2335Z" fill="#684E3E"/>
<path fill-rule="evenodd" clip-rule="evenodd" d="M302.997 42.734C413.045 42.734 502.267 114.911 502.344 203.978H479.064C478.987 125.322 400.192 61.5766 302.997 61.5766C205.765 61.5766 126.94 125.376 126.94 204.089V270.355H103.66V204.089C103.66 114.97 192.909 42.734 302.997 42.734Z" fill="#F6B865"/>
<path d="M302.996 41.8745C358.313 41.8745 408.399 60.0149 444.656 89.347C480.923 118.679 503.362 159.206 503.405 203.978V204.837H478V203.978C477.964 164.888 458.37 129.499 426.702 103.887C395.033 78.2719 351.302 62.4333 302.996 62.4333C254.677 62.4333 210.922 78.2936 179.253 103.92C147.588 129.551 128.001 164.964 128.001 204.086V271.22H102.59V204.086C102.59 159.29 125.018 118.733 161.286 89.3768C197.556 60.0285 247.665 41.8745 302.996 41.8745ZM443.158 90.5562C407.276 61.5359 357.73 43.5907 302.992 43.5907C248.238 43.5907 198.672 61.5576 162.79 90.5941C126.909 119.639 104.721 159.767 104.721 204.086V269.493H125.88V203.219C126.168 163.972 145.935 128.458 177.752 102.708C209.803 76.7618 254.087 60.7144 302.996 60.7144C351.888 60.7144 396.142 76.7455 428.193 102.667C460.009 128.404 479.783 163.885 480.115 203.107H501.27C500.952 159.157 478.801 119.395 443.158 90.5562Z" fill="#684E3E"/>
<path fill-rule="evenodd" clip-rule="evenodd" d="M302.994 61.5736C400.189 61.5736 478.984 125.321 479.061 203.975H455.772C455.704 135.724 387.336 80.4162 302.994 80.4162C218.616 80.4162 150.217 135.781 150.217 204.086V270.352H126.938V204.086C126.938 125.375 205.763 61.5736 302.994 61.5736Z" fill="#ED7A67"/>
<path d="M302.999 60.7175C351.891 60.7175 396.145 76.7486 428.196 102.67C460.25 128.594 480.088 164.411 480.118 203.978L480.128 204.838H454.724V203.978C454.687 170.089 437.694 139.412 410.242 117.213C382.789 95.0056 344.88 81.2844 302.999 81.2844C261.108 81.2844 223.172 95.03 195.719 117.251C168.267 139.474 151.284 170.173 151.284 204.087V271.221H125.883V203.219C126.171 163.972 145.938 128.459 177.755 102.708C209.806 76.7649 254.086 60.7175 302.999 60.7175ZM426.705 103.887C395.036 78.2723 351.305 62.4337 302.999 62.4337C254.68 62.4337 210.925 78.294 179.256 103.92C147.591 129.551 128.004 164.965 128.004 204.087V269.496H149.159V203.222C149.451 169.18 166.618 138.382 194.211 116.033C222.052 93.4982 260.518 79.5601 302.999 79.5601C345.46 79.5601 383.899 93.4847 411.737 115.995C439.333 138.319 456.507 169.096 456.828 203.111H477.993C477.678 164.365 458.132 129.31 426.705 103.887Z" fill="#684E3E"/>
<path fill-rule="evenodd" clip-rule="evenodd" d="M89.1383 190.075C93.9612 189.311 99.4008 193.648 103.661 200.822C107.914 193.648 113.353 189.311 118.176 190.075C125.707 191.271 128.851 204.485 125.198 219.589C121.551 234.693 112.475 245.963 104.944 244.77C104.502 244.7 104.066 244.591 103.661 244.434C103.248 244.591 102.816 244.7 102.37 244.77C94.836 245.966 85.7734 234.693 82.1168 219.589C78.4637 204.485 81.6074 191.271 89.1383 190.075Z" fill="#FFFAD5"/>
<path d="M88.9445 189.232C91.6559 188.804 94.4812 189.739 97.1926 191.74C99.4583 193.424 101.667 195.883 103.661 198.919C105.649 195.883 107.857 193.424 110.123 191.74C112.834 189.739 115.656 188.804 118.374 189.232C122.607 189.905 125.57 193.76 126.918 199.456C128.211 204.881 128.094 212.063 126.251 219.714C126.241 219.736 126.23 219.768 126.22 219.79C124.37 227.43 121.139 234.118 117.406 238.757C113.501 243.61 108.97 246.283 104.734 245.611C104.482 245.57 104.224 245.516 103.953 245.446C103.856 245.424 103.748 245.389 103.651 245.359C103.547 245.389 103.447 245.424 103.343 245.446C103.081 245.516 102.823 245.568 102.562 245.611C98.3288 246.283 93.7942 243.61 89.8896 238.757C86.156 234.11 82.9184 227.406 81.065 219.752C79.2116 212.085 79.0876 204.897 80.3813 199.456C81.7319 193.76 84.6914 189.902 88.921 189.232H88.9445ZM95.7649 193.004C93.5763 191.388 91.3844 190.615 89.3869 190.919C89.3567 190.919 89.34 190.927 89.3098 190.927C86.032 191.466 83.6591 194.807 82.4726 199.779C81.2259 205.017 81.3532 211.982 83.1563 219.418V219.427C84.9595 226.863 88.0865 233.359 91.6693 237.822C95.0946 242.078 98.8651 244.451 102.163 243.927C102.347 243.898 102.528 243.865 102.693 243.819C102.867 243.77 103.041 243.716 103.212 243.654C103.484 243.551 103.802 243.542 104.09 243.654C104.264 243.716 104.439 243.77 104.613 243.819C104.774 243.857 104.948 243.895 105.143 243.927C108.44 244.451 112.211 242.078 115.633 237.822C119.229 233.359 122.346 226.863 124.149 219.427C125.952 211.982 126.076 205.017 124.833 199.779C123.646 194.793 121.263 191.445 117.969 190.921C115.955 190.61 113.753 191.382 111.554 193.006C109.104 194.817 106.714 197.642 104.613 201.194C104.506 201.365 104.341 201.514 104.11 201.601C103.581 201.804 102.954 201.622 102.703 201.194C100.594 197.64 98.2015 194.815 95.7649 193.004Z" fill="#684E3E"/>
<path fill-rule="evenodd" clip-rule="evenodd" d="M140.684 194.964C145.319 196.251 147.356 202.208 146.612 210.138C154.733 205.651 162.12 204.097 165.824 206.714C171.612 210.797 166.172 223.509 153.671 235.108C141.183 246.706 126.362 252.804 120.574 248.721C120.239 248.479 119.937 248.205 119.669 247.91C119.217 247.88 118.781 247.799 118.349 247.685C111.089 245.67 110.201 232.228 116.365 217.672C122.535 203.111 133.424 192.938 140.684 194.964Z" fill="#FFFAD5"/>
<path d="M141.071 194.158C143.672 194.901 145.525 196.845 146.624 199.657C147.549 202.029 147.945 205.049 147.791 208.492C151.387 206.665 154.819 205.431 157.832 204.892C161.411 204.255 164.428 204.588 166.519 206.063C169.767 208.357 169.951 212.893 167.608 218.364C165.363 223.61 160.811 229.791 154.474 235.666C148.139 241.552 141.195 246.047 135.088 248.561C128.704 251.182 123.13 251.66 119.882 249.366C119.671 249.217 119.477 249.06 119.306 248.913C119.235 248.843 119.168 248.783 119.101 248.71C118.984 248.694 118.89 248.68 118.78 248.664C118.512 248.618 118.25 248.561 117.999 248.493C113.92 247.362 111.644 243.217 111.259 237.423C110.89 231.89 112.231 224.77 115.358 217.393V217.385C118.481 210.008 122.822 203.726 127.306 199.535C131.975 195.178 136.891 193.033 140.96 194.126C141.004 194.134 141.044 194.15 141.071 194.158ZM144.6 200.166C143.702 197.873 142.277 196.314 140.337 195.772C137.156 194.89 133.027 196.818 128.921 200.657C124.601 204.686 120.415 210.767 117.379 217.949C114.332 225.12 113.032 232.004 113.384 237.336C113.722 242.401 115.515 245.977 118.699 246.866C118.884 246.912 119.054 246.95 119.229 246.985C119.403 247.015 119.577 247.04 119.738 247.048C120.05 247.072 120.348 247.189 120.539 247.406C120.633 247.525 120.76 247.639 120.888 247.758C121.012 247.877 121.149 247.983 121.28 248.07C123.807 249.857 128.533 249.325 134.136 247.023C140.008 244.611 146.722 240.254 152.885 234.541C159.038 228.818 163.456 222.848 165.604 217.808C167.659 213.006 167.659 209.146 165.122 207.354C163.576 206.261 161.197 206.044 158.284 206.559C155.064 207.137 151.263 208.612 147.251 210.829C147.047 210.949 146.799 211.008 146.537 210.995C145.947 210.965 145.515 210.547 145.555 210.076C145.92 206.147 145.605 202.728 144.6 200.166Z" fill="#684E3E"/>
<path fill-rule="evenodd" clip-rule="evenodd" d="M41.4946 206.711C45.1981 204.095 52.595 205.648 60.7057 210.135C59.9617 202.205 61.9961 196.249 66.6447 194.961C70.7604 193.811 76.0659 196.598 80.9927 201.891C80.2319 206.895 80.5402 213.061 82.1221 219.586C84.495 229.414 89.1704 237.616 94.2179 241.823C93.2593 244.876 91.5065 246.975 88.9727 247.677C88.5471 247.796 88.1046 247.875 87.6522 247.905C87.3908 248.2 87.0824 248.474 86.7473 248.715C80.9591 252.801 66.1386 246.704 53.6474 235.102C41.1461 223.507 35.7065 210.791 41.4946 206.711Z" fill="#FFFAD5"/>
<path d="M40.7967 206.06C42.8881 204.585 45.9045 204.249 49.4839 204.889C52.4903 205.429 55.929 206.659 59.5218 208.489C59.371 205.046 59.7665 202.026 60.6915 199.654C61.8009 196.826 63.6711 194.874 66.292 194.142C68.628 193.497 71.2389 193.917 73.91 195.21C76.5343 196.474 79.2457 198.599 81.8365 201.375C82.0107 201.562 82.0778 201.782 82.0476 202.002C81.6622 204.507 81.5549 207.302 81.7393 210.29C81.9203 213.177 82.3828 216.254 83.157 219.424C84.3032 224.184 85.9991 228.558 88.0167 232.256C90.088 236.062 92.491 239.155 94.9712 241.224C95.2326 241.441 95.3298 241.755 95.2393 242.027C94.7198 243.691 93.9791 245.096 92.9938 246.188C92.0017 247.297 90.765 248.086 89.3104 248.49C89.0591 248.56 88.801 248.615 88.5295 248.661C88.4323 248.677 88.3251 248.691 88.2178 248.707C88.1407 248.78 88.0737 248.84 88.0067 248.91C87.8223 249.076 87.6313 249.222 87.4302 249.363C87.4101 249.387 87.3833 249.401 87.3498 249.417C84.0921 251.651 78.5587 251.158 72.2209 248.558C66.1177 246.045 59.1733 241.549 52.8355 235.672V235.663H52.8254L52.8053 235.642C46.4776 229.767 41.9363 223.591 39.7008 218.361C37.3714 212.892 37.5457 208.357 40.7967 206.06ZM49.0315 206.562C46.119 206.047 43.7394 206.264 42.1943 207.356C39.6572 209.143 39.6572 213.006 41.7117 217.81C43.86 222.842 48.2707 228.807 54.4107 234.522L54.4409 234.552C60.5943 240.264 67.3041 244.613 73.1794 247.026C78.743 249.32 83.4486 249.851 85.9924 248.11C86.0024 248.094 86.0259 248.086 86.0427 248.072C86.1767 247.969 86.3108 247.869 86.4247 247.761C86.5622 247.641 86.6761 247.528 86.7733 247.408C86.9476 247.213 87.2258 247.08 87.5442 247.056C87.7184 247.04 87.9028 247.018 88.0972 246.985C88.258 246.953 88.4424 246.912 88.6167 246.866C89.6489 246.576 90.5337 245.998 91.2778 245.172C92.0084 244.361 92.5916 243.309 93.0306 242.067C90.5237 239.858 88.134 236.734 86.0795 232.95C83.9982 229.132 82.2521 224.634 81.0757 219.752C80.2914 216.512 79.8121 213.356 79.6278 210.376C79.4334 207.421 79.534 204.642 79.8892 202.137C77.5364 199.662 75.1267 197.788 72.8308 196.682C70.6926 195.652 68.695 195.3 66.9757 195.774C65.0485 196.316 63.6141 197.875 62.7159 200.169C61.7205 202.731 61.3954 206.147 61.7573 210.075C61.7774 210.263 61.7205 210.458 61.5763 210.62C61.2479 211.019 60.5809 211.114 60.0983 210.845C56.0798 208.622 52.259 207.139 49.0315 206.562Z" fill="#684E3E"/>
<path d="M98.6463 204.485C98.1536 204.235 97.9995 203.707 98.3212 203.305C98.6296 202.901 99.2831 202.782 99.7758 203.034L107.357 206.906C107.85 207.163 108.004 207.692 107.682 208.093C107.374 208.492 106.72 208.614 106.228 208.356L98.6463 204.485ZM100.644 213.163C100.151 212.914 99.997 212.385 100.309 211.978C100.627 211.577 101.281 211.463 101.773 211.713L105.359 213.548C105.859 213.798 106.006 214.326 105.695 214.733C105.376 215.134 104.723 215.248 104.23 214.999L100.644 213.163ZM99.1792 208.589C98.6832 208.332 98.5324 207.803 98.8508 207.405C99.1625 207.003 99.8127 206.881 100.309 207.139L106.824 210.466C107.32 210.715 107.471 211.244 107.153 211.653C106.844 212.052 106.191 212.176 105.695 211.916L99.1792 208.589Z" fill="#684E3E"/>
<path fill-rule="evenodd" clip-rule="evenodd" d="M502.347 123.175C519.272 123.175 532.983 130.544 532.983 150.574C532.983 170.601 519.272 195.712 502.347 195.712C485.422 195.712 471.707 170.601 471.707 150.574C471.71 130.544 485.422 123.175 502.347 123.175Z" fill="#FFFAD5"/>
<path d="M502.346 122.318C511.67 122.318 520.069 124.506 525.904 129.717C530.965 134.244 534.042 141.02 534.042 150.574C534.042 161.264 530.184 173.388 524.024 182.465C518.383 190.769 510.782 196.569 502.346 196.569C493.91 196.569 486.299 190.769 480.668 182.465C474.508 173.386 470.641 161.264 470.641 150.574C470.637 129.912 484.831 122.318 502.346 122.318ZM524.332 130.872C518.95 126.054 511.104 124.034 502.346 124.034C486.011 124.034 472.769 131.175 472.769 150.574C472.769 160.993 476.533 172.803 482.529 181.638C487.807 189.419 494.775 194.853 502.346 194.853C509.904 194.853 516.889 189.419 522.161 181.638C528.16 172.803 531.924 160.993 531.924 150.574C531.92 141.481 529.048 135.088 524.332 130.872Z" fill="#684E3E"/>
<path fill-rule="evenodd" clip-rule="evenodd" d="M588.795 163.579C597.251 175.435 596.233 188.736 574.793 198.748C553.363 208.771 519.643 211.708 511.187 199.844C502.721 187.985 522.73 165.818 544.159 155.795C565.593 145.78 580.326 151.712 588.795 163.579Z" fill="#FFFAD5"/>
<path d="M589.707 163.148C594.373 169.687 596.236 176.668 593.575 183.365C591.262 189.172 585.555 194.714 575.329 199.499H575.319C564.46 204.574 550.501 207.849 538.174 208.356C525.629 208.879 514.713 206.523 510.259 200.277C505.801 194.025 508.744 185.195 515.571 176.657C522.284 168.274 532.774 160.125 543.623 155.052C553.856 150.275 562.64 149.041 570.01 150.329C578.503 151.807 585.038 156.606 589.707 163.148ZM591.55 182.839C594.011 176.657 592.244 170.14 587.867 164.004C583.497 157.869 577.4 153.374 569.564 152.007C562.687 150.812 554.415 151.991 544.686 156.543C534.115 161.483 523.886 169.429 517.347 177.593C510.936 185.618 508.1 193.797 512.102 199.409C516.104 205.03 526.289 207.128 538.073 206.645C550.088 206.147 563.696 202.945 574.263 198.005C583.993 193.461 589.399 188.25 591.55 182.839Z" fill="#684E3E"/>
<path fill-rule="evenodd" clip-rule="evenodd" d="M588.79 244.38C580.32 256.235 565.587 262.168 544.151 252.152C522.721 242.137 502.715 219.971 511.178 208.107C519.634 196.24 553.357 199.184 574.784 209.199C596.227 219.215 597.246 232.513 588.79 244.38Z" fill="#FFFAD5"/>
<path d="M589.713 244.808C585.044 251.342 578.505 256.144 570.012 257.624C562.703 258.896 554.002 257.695 543.887 253.012H543.877L543.626 252.893C532.777 247.818 522.286 239.671 515.573 231.288C508.746 222.759 505.807 213.923 510.261 207.676H510.271C514.484 201.761 524.495 199.334 536.192 199.535C548.982 199.752 563.889 203.108 575.325 208.457H575.335C585.56 213.234 591.268 218.781 593.581 224.589C596.245 231.28 594.378 238.266 589.713 244.808ZM569.57 255.938C577.409 254.574 583.502 250.084 587.873 243.941C592.25 237.806 594.016 231.296 591.556 225.115C589.405 219.698 583.999 214.492 574.266 209.94C563.115 204.732 548.603 201.465 536.152 201.254C525.189 201.058 515.885 203.227 512.101 208.536C508.099 214.148 510.935 222.336 517.346 230.353C523.885 238.516 534.107 246.465 544.675 251.405L544.685 251.413C554.421 255.957 562.693 257.139 569.57 255.938Z" fill="#684E3E"/>
<path fill-rule="evenodd" clip-rule="evenodd" d="M415.89 244.38C407.434 232.513 408.453 219.215 429.883 209.2C451.316 199.185 485.039 196.24 493.499 208.107C501.955 219.971 481.956 242.138 460.519 252.153C439.09 262.168 424.346 256.236 415.89 244.38Z" fill="#FFFAD5"/>
<path d="M414.981 244.808C410.312 238.269 408.452 231.282 411.113 224.591C413.426 218.784 419.133 213.237 429.356 208.46H429.366C440.215 203.385 454.187 200.107 466.501 199.592C479.049 199.077 489.965 201.435 494.419 207.679C498.877 213.926 495.944 222.761 489.114 231.291C482.404 239.674 471.91 247.823 461.061 252.896C450.829 257.681 442.045 258.907 434.678 257.627C426.185 256.144 419.646 251.34 414.981 244.808ZM413.137 225.115C410.667 231.296 412.434 237.806 416.811 243.941C421.188 250.084 427.274 254.574 435.124 255.938C441.988 257.142 450.263 255.957 459.995 251.413C470.573 246.473 480.805 238.524 487.334 230.353C493.756 222.336 496.588 214.148 492.589 208.536C488.588 202.924 478.402 200.817 466.618 201.308C454.603 201.807 440.996 205 430.418 209.94C420.689 214.492 415.286 219.698 413.137 225.115Z" fill="#684E3E"/>
<path fill-rule="evenodd" clip-rule="evenodd" d="M415.89 163.579C424.346 151.712 439.089 145.78 460.519 155.795C464.947 157.864 469.304 160.448 473.366 163.351C476.771 176.98 485.113 190.108 495.456 194.324C495.312 196.325 494.685 198.187 493.502 199.844C485.043 211.708 451.319 208.772 429.886 198.748C408.453 188.736 407.434 175.432 415.89 163.579Z" fill="#FFFAD5"/>
<path d="M414.976 163.148C419.641 156.608 426.18 151.807 434.676 150.332C442.043 149.044 450.827 150.278 461.06 155.055H461.05C463.295 156.109 465.497 157.272 467.639 158.528C469.824 159.816 471.979 161.212 474.07 162.711L474.332 162.898L474.399 163.177C476.145 170.156 479.205 177.002 483.156 182.551C486.783 187.632 491.15 191.607 495.936 193.551L496.559 193.808L496.512 194.372C496.435 195.448 496.234 196.495 495.876 197.484C495.54 198.46 495.058 199.39 494.421 200.28V200.272C490.195 206.19 480.197 208.614 468.497 208.419C455.701 208.194 440.803 204.845 429.364 199.499H429.354C419.132 194.711 413.424 189.172 411.111 183.365C408.447 176.665 410.307 169.687 414.976 163.148ZM435.119 152.01C427.269 153.376 421.183 157.872 416.806 164.007C412.429 170.142 410.662 176.66 413.132 182.841C415.281 188.25 420.684 193.464 430.413 198.008C441.56 203.224 456.073 206.491 468.53 206.705C479.497 206.892 488.8 204.721 492.584 199.42V199.412C493.124 198.664 493.54 197.859 493.828 197.018C494.079 196.308 494.253 195.573 494.341 194.817C489.42 192.631 484.983 188.548 481.32 183.413C477.308 177.785 474.191 170.872 472.401 163.806C470.461 162.44 468.457 161.139 466.392 159.919C464.27 158.677 462.129 157.544 460.001 156.546H459.99C450.261 151.994 441.986 150.814 435.119 152.01Z" fill="#684E3E"/>
<path fill-rule="evenodd" clip-rule="evenodd" d="M502.344 240.554C527.232 240.554 547.529 224.124 547.529 203.978C547.529 183.826 527.232 167.393 502.344 167.393C477.455 167.393 457.145 183.826 457.145 203.978C457.145 224.124 477.452 240.554 502.344 240.554Z" fill="#FAC75B"/>
<path d="M502.343 166.534C515.11 166.534 526.682 170.726 535.051 177.504C543.42 184.279 548.602 193.635 548.602 203.978C548.602 214.313 543.423 223.68 535.051 230.455C526.682 237.228 515.11 241.422 502.343 241.422C489.564 241.422 478.001 237.231 469.632 230.455C461.264 223.68 456.082 214.313 456.082 203.978C456.082 193.635 461.26 184.276 469.632 177.504C478.005 170.728 489.564 166.534 502.343 166.534ZM533.546 178.721C525.56 172.258 514.53 168.253 502.34 168.253C490.151 168.253 479.117 172.258 471.134 178.721C463.15 185.182 458.214 194.112 458.214 203.978C458.214 213.836 463.15 222.775 471.134 229.238C479.117 235.699 490.151 239.695 502.34 239.695C514.53 239.695 525.56 235.699 533.546 229.238C541.53 222.775 546.467 213.836 546.467 203.978C546.47 194.112 541.533 185.182 533.546 178.721Z" fill="#684E3E"/>
<path fill-rule="evenodd" clip-rule="evenodd" d="M491.511 185.306C493.844 185.306 495.775 188.356 496.1 192.331L495.838 192.423L492.775 193.477L495.838 194.532L496.106 194.627C495.798 198.64 493.851 201.73 491.508 201.73C488.944 201.73 486.859 198.054 486.859 193.521C486.863 188.982 488.947 185.306 491.511 185.306Z" fill="#684E3E"/>
<path fill-rule="evenodd" clip-rule="evenodd" d="M513.223 185.307C515.555 185.307 517.486 188.357 517.811 192.331L517.543 192.423L514.483 193.478L517.543 194.533L517.821 194.628C517.513 198.64 515.566 201.731 513.223 201.731C510.659 201.731 508.574 198.054 508.574 193.521C508.574 188.983 510.659 185.307 513.223 185.307Z" fill="#684E3E"/>
<path d="M480.416 167.502C479.974 167.814 479.307 167.773 478.912 167.423C478.529 167.066 478.576 166.518 479.009 166.206C479.019 166.198 482.333 163.812 490.273 162.655C490.84 162.571 491.389 162.882 491.497 163.349C491.601 163.818 491.218 164.262 490.639 164.341C483.309 165.417 480.423 167.497 480.416 167.502Z" fill="#684E3E"/>
<path d="M479.712 163.953C479.259 164.248 478.592 164.194 478.223 163.828C477.858 163.462 477.925 162.914 478.378 162.619C478.378 162.611 480.566 161.16 485.687 160.48C486.267 160.401 486.817 160.721 486.914 161.19C487.001 161.659 486.612 162.096 486.036 162.174C481.474 162.779 479.718 163.945 479.712 163.953Z" fill="#684E3E"/>
<path d="M479.089 160.596C478.596 160.859 477.932 160.751 477.614 160.361C477.286 159.962 477.42 159.425 477.902 159.165C477.912 159.157 479.89 158.102 482.832 157.785C483.419 157.72 483.952 158.056 484.026 158.525C484.103 158.991 483.687 159.422 483.111 159.485C480.671 159.753 479.089 160.596 479.089 160.596Z" fill="#684E3E"/>
<path d="M530.404 170.367C529.845 170.21 529.546 169.727 529.737 169.275C529.922 168.827 530.525 168.589 531.078 168.735C531.098 168.743 535.308 169.874 540.506 174.849C540.891 175.215 540.834 175.754 540.382 176.055C539.94 176.367 539.273 176.321 538.887 175.955C534.078 171.351 530.414 170.367 530.404 170.367Z" fill="#684E3E"/>
<path d="M533.848 168.096C533.309 167.931 533.037 167.432 533.238 166.987C533.449 166.548 534.069 166.323 534.616 166.494C534.616 166.502 537.27 167.307 540.558 170.552C540.923 170.918 540.856 171.458 540.41 171.761C539.958 172.06 539.281 172.003 538.916 171.637C535.993 168.752 533.858 168.104 533.848 168.096Z" fill="#684E3E"/>
<path d="M537.115 165.981C536.596 165.765 536.391 165.249 536.653 164.826C536.924 164.403 537.568 164.233 538.09 164.452C538.09 164.452 540.202 165.309 542.005 167.207C542.364 167.581 542.283 168.121 541.811 168.411C541.348 168.701 540.681 168.627 540.326 168.253C538.824 166.667 537.115 165.981 537.115 165.981Z" fill="#684E3E"/>
<path d="M552.337 206.833C552.22 206.375 552.599 205.92 553.175 205.827C553.745 205.741 554.304 206.039 554.422 206.505C554.422 206.516 555.32 210.035 552.588 216.168C552.394 216.615 551.787 216.848 551.238 216.683C550.685 216.526 550.397 216.038 550.601 215.59C553.118 209.91 552.337 206.849 552.337 206.833Z" fill="#684E3E"/>
<path d="M452.352 201.112C452.469 201.578 452.09 202.031 451.51 202.121C450.934 202.213 450.374 201.906 450.267 201.44C450.267 201.432 449.369 197.921 452.09 191.786C452.295 191.333 452.898 191.105 453.451 191.262C454.001 191.428 454.282 191.919 454.088 192.363C451.571 198.035 452.352 201.104 452.352 201.112Z" fill="#684E3E"/>
<path d="M448.204 199.832C448.291 200.299 447.882 200.738 447.305 200.806C446.726 200.879 446.186 200.548 446.099 200.079C446.099 200.071 445.636 197.823 447.47 193.897C447.681 193.45 448.291 193.225 448.84 193.391C449.393 193.561 449.662 194.055 449.457 194.499C447.825 198.005 448.204 199.832 448.204 199.832Z" fill="#684E3E"/>
<path d="M444.3 198.602C444.33 199.068 443.877 199.475 443.298 199.499C442.708 199.521 442.208 199.163 442.178 198.686C442.178 198.678 442.031 196.775 443.17 194.557C443.391 194.118 444.011 193.909 444.551 194.088C445.091 194.267 445.349 194.768 445.127 195.202C444.186 197.062 444.3 198.594 444.3 198.602Z" fill="#684E3E"/>
</g>
<defs>
<clipPath id="clip0_434_561">
<rect width="604" height="206" fill="white"/>
</clipPath>
</defs>
</svg>