<svg width="690" height="690" viewBox="0 0 690 690" fill="none" xmlns="http://www.w3.org/2000/svg">
<g opacity="0.5">
<path d="M487.472 214.051C487.472 293.333 411.015 244.491 331.72 244.491C252.421 244.491 200.275 293.333 200.275 214.051C200.275 134.769 264.576 70.5938 343.875 70.5938C423.171 70.5938 487.472 134.882 487.472 214.051Z" fill="#FFAEB3"/>
<path d="M229.474 260.62C222.087 260.62 215.955 259.143 211.07 255.283C202.887 248.694 199.027 235.634 199.027 214.164C199.14 134.317 264.124 69.3462 343.875 69.3462C423.627 69.3462 488.61 134.317 488.61 214.051C488.61 232.792 484.408 245.4 475.546 252.671C460.21 265.392 432.601 260.168 400.564 254.148C379.434 250.172 355.462 245.626 331.607 245.626C306.384 245.626 284.346 250.511 264.919 254.827C251.4 257.895 239.357 260.62 229.474 260.62ZM331.72 243.244C355.805 243.244 379.889 247.786 401.133 251.762C432.488 257.669 459.641 262.78 474.069 250.737C482.248 243.923 486.225 231.884 486.225 213.938C486.225 135.678 422.376 71.7287 343.875 71.7287C265.372 71.7287 201.526 135.678 201.526 214.051C201.526 234.725 205.047 247.217 212.66 253.353C223.112 261.758 241.4 257.669 264.577 252.558C283.094 248.468 306.271 243.244 331.72 243.244Z" fill="black"/>
<path d="M586.653 221.435C586.653 222.629 586.557 223.824 586.36 225.019C586.167 226.213 585.878 227.404 585.489 228.592C585.103 229.784 584.62 230.968 584.038 232.149C583.459 233.334 582.783 234.509 582.011 235.683C581.239 236.855 580.374 238.019 579.416 239.181C578.454 240.339 577.399 241.49 576.251 242.635C575.107 243.779 573.866 244.914 572.534 246.039C571.203 247.163 569.779 248.278 568.269 249.383C566.755 250.488 565.154 251.579 563.464 252.66C561.773 253.742 559.996 254.807 558.133 255.862C556.269 256.916 554.323 257.955 552.29 258.983C550.257 260.008 548.144 261.016 545.947 262.011C543.751 263.002 541.475 263.981 539.123 264.939C536.767 265.901 534.338 266.842 531.829 267.768C529.32 268.689 526.741 269.594 524.085 270.479C521.43 271.368 518.705 272.233 515.91 273.078C513.114 273.923 510.253 274.745 507.325 275.551C504.396 276.353 501.405 277.131 498.347 277.89C495.292 278.649 492.178 279.384 489.003 280.096C485.829 280.808 482.598 281.497 479.31 282.159C476.022 282.825 472.685 283.464 469.294 284.079C465.903 284.691 462.466 285.28 458.979 285.846C455.495 286.408 451.964 286.944 448.39 287.457C444.817 287.969 441.206 288.452 437.553 288.911C433.902 289.367 430.215 289.796 426.492 290.199C422.772 290.601 419.018 290.977 415.238 291.323C411.455 291.669 407.645 291.989 403.811 292.282C399.978 292.571 396.121 292.831 392.245 293.067C388.368 293.3 384.475 293.503 380.565 293.679C376.655 293.852 372.732 293.999 368.799 294.118C364.866 294.235 360.922 294.321 356.976 294.381C353.026 294.438 349.076 294.468 345.123 294.468C341.17 294.468 337.22 294.438 333.274 294.381C329.324 294.321 325.384 294.235 321.451 294.118C317.518 293.999 313.595 293.852 309.685 293.679C305.775 293.503 301.882 293.3 298.005 293.067C294.129 292.831 290.272 292.571 286.439 292.282C282.602 291.989 278.795 291.669 275.012 291.323C271.228 290.977 267.478 290.601 263.755 290.199C260.035 289.796 256.348 289.367 252.697 288.911C249.044 288.452 245.43 287.969 241.86 287.457C238.286 286.944 234.755 286.408 231.268 285.846C227.784 285.28 224.343 284.691 220.956 284.079C217.565 283.464 214.224 282.825 210.94 282.159C207.652 281.497 204.421 280.808 201.247 280.096C198.072 279.384 194.958 278.649 191.9 277.89C188.845 277.131 185.854 276.353 182.925 275.551C179.994 274.745 177.132 273.923 174.337 273.078C171.542 272.233 168.82 271.368 166.165 270.479C163.509 269.594 160.927 268.689 158.421 267.768C155.912 266.842 153.483 265.901 151.127 264.939C148.771 263.981 146.499 263.002 144.303 262.011C142.106 261.016 139.99 260.008 137.96 258.983C135.927 257.955 133.981 256.916 132.117 255.862C130.254 254.807 128.477 253.742 126.786 252.66C125.096 251.579 123.495 250.488 121.981 249.383C120.467 248.278 119.046 247.163 117.715 246.039C116.384 244.914 115.143 243.779 113.995 242.635C112.851 241.49 111.796 240.339 110.834 239.181C109.876 238.019 109.007 236.855 108.239 235.683C107.467 234.509 106.791 233.334 106.212 232.149C105.63 230.968 105.147 229.784 104.758 228.592C104.372 227.404 104.083 226.213 103.886 225.019C103.693 223.824 103.597 222.629 103.597 221.435C103.597 220.24 103.693 219.046 103.886 217.851C104.083 216.656 104.372 215.465 104.758 214.274C105.147 213.086 105.63 211.901 106.212 210.717C106.791 209.535 107.467 208.357 108.239 207.186C109.007 206.015 109.876 204.847 110.834 203.689C111.796 202.528 112.851 201.376 113.995 200.232C115.143 199.09 116.384 197.956 117.715 196.831C119.046 195.703 120.467 194.588 121.981 193.483C123.495 192.382 125.096 191.287 126.786 190.209C128.477 189.128 130.254 188.059 132.117 187.005C133.981 185.953 135.927 184.912 137.96 183.887C139.99 182.862 142.106 181.85 144.303 180.859C146.499 179.864 148.771 178.889 151.127 177.927C153.483 176.969 155.912 176.024 158.421 175.102C160.927 174.177 163.509 173.272 166.165 172.387C168.82 171.502 171.542 170.636 174.337 169.791C177.132 168.946 179.994 168.121 182.925 167.319C185.854 166.517 188.845 165.735 191.9 164.976C194.958 164.218 198.072 163.486 201.247 162.773C204.421 162.061 207.652 161.373 210.94 160.707C214.224 160.045 217.565 159.406 220.956 158.79C224.343 158.175 227.784 157.586 231.268 157.023C234.755 156.461 238.286 155.922 241.86 155.413C245.43 154.9 249.044 154.415 252.697 153.959C256.348 153.503 260.035 153.07 263.755 152.668C267.478 152.265 271.228 151.892 275.012 151.543C278.795 151.197 282.602 150.877 286.439 150.588C290.272 150.298 294.129 150.036 298.005 149.803C301.882 149.57 305.775 149.367 309.685 149.19C313.595 149.014 317.518 148.868 321.451 148.751C325.384 148.635 329.324 148.545 333.274 148.488C337.22 148.428 341.17 148.398 345.123 148.398C349.076 148.398 353.026 148.428 356.976 148.488C360.922 148.545 364.866 148.635 368.799 148.751C372.732 148.868 376.655 149.014 380.565 149.19C384.475 149.367 388.368 149.57 392.245 149.803C396.121 150.036 399.978 150.298 403.811 150.588C407.645 150.877 411.455 151.197 415.238 151.543C419.018 151.892 422.772 152.265 426.492 152.668C430.215 153.07 433.902 153.503 437.553 153.959C441.206 154.415 444.817 154.9 448.39 155.413C451.964 155.922 455.495 156.461 458.979 157.023C462.466 157.586 465.903 158.175 469.294 158.79C472.685 159.406 476.022 160.045 479.31 160.707C482.598 161.373 485.829 162.061 489.003 162.773C492.178 163.486 495.292 164.218 498.347 164.976C501.405 165.735 504.396 166.517 507.325 167.319C510.253 168.121 513.114 168.946 515.91 169.791C518.705 170.636 521.43 171.502 524.085 172.387C526.741 173.272 529.32 174.177 531.829 175.102C534.334 176.024 536.767 176.969 539.123 177.927C541.475 178.889 543.751 179.864 545.947 180.859C548.144 181.85 550.257 182.862 552.29 183.887C554.323 184.912 556.269 185.953 558.133 187.005C559.996 188.059 561.773 189.128 563.464 190.209C565.154 191.287 566.755 192.382 568.269 193.483C569.779 194.588 571.203 195.703 572.534 196.831C573.866 197.956 575.107 199.09 576.251 200.232C577.399 201.376 578.454 202.528 579.416 203.689C580.374 204.847 581.239 206.015 582.011 207.186C582.783 208.357 583.459 209.535 584.038 210.717C584.62 211.901 585.103 213.086 585.489 214.274C585.878 215.465 586.167 216.656 586.36 217.851C586.557 219.046 586.653 220.24 586.653 221.435Z" fill="#0A567C"/>
<mask id="mask0_292_487" style="mask-type:luminance" maskUnits="userSpaceOnUse" x="102" y="146" width="486" height="151">
<path d="M102.345 146.519H587.901V296.444H102.345V146.519Z" fill="white"/>
</mask>
<g mask="url(#mask0_292_487)">
<path d="M345.123 295.606C211.296 295.606 102.345 262.324 102.345 221.435C102.345 180.543 211.183 147.264 345.123 147.264C479.067 147.264 587.901 180.543 587.901 221.435C587.901 262.324 478.954 295.606 345.123 295.606ZM345.123 149.65C212.66 149.65 104.844 181.794 104.844 221.435C104.844 260.963 212.66 293.22 345.123 293.22C477.589 293.22 585.402 261.076 585.402 221.435C585.402 181.794 477.589 149.65 345.123 149.65Z" fill="#020202"/>
</g>
<path d="M457.707 254.148C457.707 254.707 457.664 255.266 457.574 255.825C457.484 256.384 457.351 256.94 457.172 257.499C456.992 258.055 456.766 258.61 456.499 259.163C456.23 259.715 455.917 260.267 455.561 260.816C455.205 261.366 454.802 261.911 454.36 262.454C453.914 262.996 453.425 263.535 452.896 264.071C452.363 264.607 451.791 265.139 451.175 265.665C450.556 266.19 449.901 266.713 449.199 267.229C448.5 267.748 447.758 268.257 446.976 268.763C446.194 269.268 445.372 269.771 444.51 270.263C443.645 270.756 442.743 271.242 441.805 271.724C440.863 272.203 439.885 272.676 438.87 273.142C437.852 273.608 436.8 274.063 435.709 274.513C434.621 274.962 433.493 275.404 432.335 275.837C431.173 276.27 429.979 276.692 428.751 277.105C427.52 277.521 426.259 277.927 424.968 278.323C423.673 278.719 422.349 279.101 420.991 279.477C419.637 279.853 418.253 280.219 416.838 280.575C415.424 280.928 413.983 281.274 412.513 281.607C411.042 281.94 409.548 282.263 408.027 282.572C406.506 282.885 404.959 283.184 403.392 283.47C401.821 283.76 400.231 284.036 398.617 284.299C397.003 284.562 395.369 284.815 393.715 285.054C392.061 285.291 390.391 285.52 388.701 285.733C387.01 285.946 385.303 286.149 383.579 286.335C381.859 286.525 380.122 286.701 378.369 286.864C376.618 287.024 374.858 287.174 373.081 287.31C371.307 287.447 369.524 287.57 367.727 287.68C365.934 287.786 364.133 287.883 362.323 287.966C360.513 288.046 358.696 288.116 356.876 288.172C355.056 288.225 353.232 288.265 351.405 288.295C349.579 288.322 347.748 288.335 345.918 288.335C344.091 288.335 342.261 288.322 340.435 288.295C338.608 288.265 336.784 288.225 334.961 288.172C333.141 288.116 331.327 288.046 329.517 287.966C327.707 287.883 325.906 287.786 324.11 287.68C322.316 287.57 320.532 287.447 318.756 287.31C316.982 287.174 315.218 287.024 313.468 286.864C311.718 286.701 309.981 286.525 308.26 286.335C306.537 286.149 304.83 285.946 303.139 285.733C301.449 285.52 299.779 285.291 298.125 285.054C296.471 284.815 294.837 284.562 293.223 284.299C291.609 284.036 290.019 283.76 288.448 283.47C286.878 283.184 285.334 282.885 283.813 282.572C282.292 282.263 280.795 281.94 279.327 281.607C277.857 281.274 276.416 280.928 275.002 280.575C273.587 280.219 272.203 279.853 270.846 279.477C269.491 279.101 268.167 278.719 266.872 278.323C265.578 277.927 264.317 277.521 263.089 277.105C261.861 276.692 260.667 276.27 259.505 275.837C258.344 275.404 257.219 274.962 256.131 274.513C255.04 274.063 253.988 273.608 252.97 273.142C251.955 272.676 250.977 272.203 250.035 271.724C249.093 271.242 248.192 270.756 247.33 270.263C246.468 269.771 245.646 269.268 244.864 268.763C244.082 268.257 243.34 267.748 242.641 267.229C241.939 266.713 241.28 266.19 240.665 265.665C240.049 265.139 239.473 264.607 238.944 264.071C238.412 263.535 237.926 262.996 237.48 262.454C237.038 261.911 236.635 261.366 236.279 260.816C235.923 260.267 235.61 259.715 235.341 259.163C235.071 258.61 234.848 258.055 234.668 257.499C234.489 256.94 234.356 256.384 234.266 255.825C234.176 255.266 234.129 254.707 234.129 254.148C234.129 253.586 234.176 253.027 234.266 252.468C234.356 251.909 234.489 251.353 234.668 250.794C234.848 250.238 235.071 249.682 235.341 249.13C235.61 248.578 235.923 248.025 236.279 247.476C236.635 246.927 237.038 246.382 237.48 245.839C237.926 245.297 238.412 244.758 238.944 244.222C239.473 243.686 240.049 243.154 240.665 242.628C241.28 242.102 241.939 241.58 242.641 241.064C243.34 240.545 244.082 240.036 244.864 239.53C245.646 239.024 246.468 238.522 247.33 238.029C248.192 237.537 249.093 237.051 250.035 236.569C250.977 236.089 251.955 235.617 252.97 235.151C253.988 234.685 255.04 234.229 256.131 233.78C257.219 233.331 258.344 232.888 259.505 232.456C260.667 232.023 261.861 231.601 263.089 231.188C264.317 230.772 265.578 230.366 266.872 229.97C268.167 229.574 269.491 229.191 270.846 228.815C272.203 228.439 273.587 228.073 275.002 227.717C276.416 227.365 277.857 227.019 279.327 226.686C280.795 226.353 282.292 226.03 283.813 225.721C285.334 225.408 286.878 225.109 288.448 224.822C290.019 224.533 291.609 224.257 293.223 223.994C294.837 223.731 296.471 223.478 298.125 223.238C299.779 223.002 301.449 222.773 303.139 222.56C304.83 222.347 306.537 222.144 308.26 221.957C309.981 221.768 311.718 221.591 313.468 221.428C315.218 221.269 316.982 221.119 318.756 220.982C320.532 220.846 322.316 220.723 324.11 220.613C325.906 220.507 327.707 220.41 329.517 220.327C331.327 220.247 333.141 220.177 334.961 220.124C336.784 220.067 338.608 220.027 340.435 219.997C342.261 219.971 344.091 219.958 345.918 219.958C347.748 219.958 349.579 219.971 351.405 219.997C353.232 220.027 355.056 220.067 356.876 220.124C358.696 220.177 360.513 220.247 362.323 220.327C364.133 220.41 365.934 220.507 367.727 220.613C369.524 220.723 371.307 220.846 373.081 220.982C374.858 221.119 376.618 221.269 378.369 221.428C380.122 221.591 381.859 221.768 383.579 221.957C385.303 222.144 387.01 222.347 388.701 222.56C390.391 222.773 392.061 223.002 393.715 223.238C395.369 223.478 397.003 223.731 398.617 223.994C400.231 224.257 401.821 224.533 403.392 224.822C404.959 225.109 406.506 225.408 408.027 225.721C409.548 226.03 411.042 226.353 412.513 226.686C413.983 227.019 415.424 227.365 416.838 227.717C418.253 228.073 419.637 228.439 420.991 228.815C422.349 229.191 423.673 229.574 424.968 229.97C426.259 230.366 427.52 230.772 428.751 231.188C429.979 231.601 431.173 232.023 432.335 232.456C433.493 232.888 434.621 233.331 435.709 233.78C436.8 234.229 437.852 234.685 438.87 235.151C439.885 235.617 440.863 236.089 441.805 236.569C442.743 237.051 443.645 237.537 444.51 238.029C445.372 238.522 446.194 239.024 446.976 239.53C447.758 240.036 448.5 240.545 449.199 241.064C449.901 241.58 450.556 242.102 451.175 242.628C451.791 243.154 452.363 243.686 452.896 244.222C453.425 244.758 453.914 245.297 454.36 245.839C454.802 246.382 455.205 246.927 455.561 247.476C455.917 248.025 456.23 248.578 456.499 249.13C456.766 249.682 456.992 250.238 457.172 250.794C457.351 251.353 457.484 251.909 457.574 252.468C457.664 253.027 457.707 253.586 457.707 254.148Z" fill="white"/>
<path d="M345.919 289.47C282.529 289.47 232.882 273.91 232.882 254.032C232.882 234.156 282.529 218.593 345.919 218.593C409.312 218.593 458.959 234.156 458.959 254.032C458.846 273.91 409.199 289.47 345.919 289.47ZM345.919 221.092C285.936 221.092 235.381 236.199 235.381 254.032C235.381 271.867 286.049 287.087 345.919 287.087C405.791 287.087 456.46 271.98 456.46 254.032C456.46 236.086 405.791 221.092 345.919 221.092Z" fill="#020202"/>
<path d="M363.188 182.928C363.188 183.62 363.155 184.313 363.085 184.998C363.019 185.687 362.916 186.372 362.782 187.051C362.646 187.73 362.48 188.399 362.277 189.061C362.077 189.723 361.844 190.375 361.578 191.014C361.315 191.653 361.019 192.279 360.693 192.888C360.367 193.497 360.011 194.092 359.628 194.665C359.242 195.24 358.829 195.796 358.39 196.332C357.951 196.867 357.488 197.38 356.999 197.869C356.51 198.358 355.998 198.821 355.462 199.26C354.926 199.699 354.37 200.112 353.798 200.494C353.222 200.88 352.627 201.233 352.018 201.563C351.409 201.889 350.783 202.182 350.144 202.448C349.506 202.711 348.853 202.944 348.191 203.147C347.529 203.346 346.857 203.516 346.178 203.649C345.499 203.785 344.817 203.885 344.128 203.955C343.439 204.022 342.751 204.055 342.059 204.055C341.366 204.055 340.674 204.022 339.985 203.955C339.297 203.885 338.615 203.785 337.936 203.649C337.257 203.516 336.585 203.346 335.923 203.147C335.26 202.944 334.611 202.711 333.969 202.448C333.33 202.182 332.705 201.889 332.096 201.563C331.487 201.233 330.891 200.88 330.319 200.494C329.743 200.112 329.188 199.699 328.652 199.26C328.116 198.821 327.604 198.358 327.115 197.869C326.625 197.38 326.163 196.867 325.724 196.332C325.284 195.796 324.872 195.24 324.486 194.665C324.103 194.092 323.747 193.497 323.421 192.888C323.095 192.279 322.799 191.653 322.536 191.014C322.27 190.375 322.037 189.723 321.837 189.061C321.634 188.399 321.468 187.73 321.331 187.051C321.198 186.372 321.095 185.687 321.028 184.998C320.959 184.313 320.925 183.62 320.925 182.928C320.925 182.236 320.959 181.547 321.028 180.859C321.095 180.17 321.198 179.484 321.331 178.809C321.468 178.13 321.634 177.458 321.837 176.796C322.037 176.133 322.27 175.485 322.536 174.842C322.799 174.204 323.095 173.581 323.421 172.969C323.747 172.36 324.103 171.768 324.486 171.192C324.872 170.616 325.284 170.061 325.724 169.525C326.163 168.993 326.625 168.48 327.115 167.991C327.604 167.502 328.116 167.036 328.652 166.597C329.188 166.158 329.743 165.748 330.319 165.362C330.891 164.98 331.487 164.624 332.096 164.297C332.705 163.971 333.33 163.675 333.969 163.409C334.611 163.146 335.26 162.913 335.923 162.714C336.585 162.511 337.257 162.344 337.936 162.208C338.615 162.075 339.297 161.971 339.985 161.905C340.674 161.835 341.366 161.802 342.059 161.802C342.751 161.802 343.439 161.835 344.128 161.905C344.817 161.971 345.499 162.075 346.178 162.208C346.857 162.344 347.529 162.511 348.191 162.714C348.853 162.913 349.506 163.146 350.144 163.409C350.783 163.675 351.409 163.971 352.018 164.297C352.627 164.624 353.222 164.98 353.798 165.362C354.37 165.748 354.926 166.158 355.462 166.597C355.998 167.036 356.51 167.502 356.999 167.991C357.488 168.48 357.951 168.993 358.39 169.525C358.829 170.061 359.242 170.616 359.628 171.192C360.011 171.768 360.367 172.36 360.693 172.969C361.019 173.581 361.315 174.204 361.578 174.842C361.844 175.485 362.077 176.133 362.277 176.796C362.48 177.458 362.646 178.13 362.782 178.809C362.916 179.484 363.019 180.17 363.085 180.859C363.155 181.547 363.188 182.236 363.188 182.928Z" fill="#81C3EA"/>
<path d="M342.058 205.306C329.673 205.306 319.677 195.31 319.677 182.929C319.677 170.547 329.673 160.554 342.058 160.554C354.44 160.554 364.436 170.55 364.436 182.929C364.436 195.31 354.44 205.306 342.058 205.306ZM342.058 163.053C331.037 163.053 322.176 172.024 322.176 182.929C322.176 193.833 331.151 202.807 342.058 202.807C353.076 202.807 361.937 193.833 361.937 182.929C361.937 172.024 353.076 163.053 342.058 163.053Z" fill="#020202"/>
<path d="M276.961 193.151C276.961 193.843 276.925 194.535 276.858 195.224C276.792 195.913 276.689 196.595 276.555 197.274C276.419 197.953 276.253 198.621 276.05 199.284C275.85 199.946 275.617 200.598 275.351 201.237C275.088 201.876 274.792 202.501 274.466 203.11C274.14 203.723 273.784 204.315 273.398 204.891C273.015 205.463 272.602 206.019 272.163 206.554C271.724 207.09 271.261 207.603 270.772 208.092C270.283 208.581 269.771 209.043 269.235 209.483C268.699 209.922 268.143 210.334 267.568 210.717C266.992 211.103 266.4 211.459 265.791 211.785C265.179 212.111 264.556 212.404 263.914 212.67C263.275 212.937 262.626 213.17 261.964 213.369C261.302 213.569 260.63 213.739 259.951 213.872C259.272 214.008 258.59 214.108 257.901 214.178C257.212 214.244 256.52 214.278 255.828 214.278C255.136 214.278 254.447 214.244 253.758 214.178C253.07 214.108 252.384 214.008 251.705 213.872C251.027 213.739 250.358 213.569 249.695 213.369C249.033 213.17 248.381 212.937 247.742 212.67C247.103 212.404 246.478 212.111 245.869 211.785C245.257 211.459 244.664 211.103 244.089 210.717C243.513 210.334 242.957 209.922 242.425 209.483C241.889 209.043 241.377 208.581 240.887 208.092C240.398 207.603 239.932 207.09 239.493 206.554C239.057 206.019 238.645 205.463 238.259 204.891C237.876 204.315 237.52 203.723 237.194 203.11C236.868 202.501 236.572 201.876 236.305 201.237C236.043 200.598 235.81 199.946 235.607 199.284C235.407 198.621 235.241 197.953 235.104 197.274C234.968 196.595 234.868 195.913 234.801 195.224C234.732 194.535 234.698 193.843 234.698 193.151C234.698 192.459 234.732 191.77 234.801 191.081C234.868 190.392 234.968 189.71 235.104 189.032C235.241 188.353 235.407 187.681 235.607 187.018C235.81 186.356 236.043 185.707 236.305 185.068C236.572 184.426 236.868 183.804 237.194 183.192C237.52 182.583 237.876 181.99 238.259 181.415C238.645 180.839 239.057 180.283 239.493 179.748C239.932 179.215 240.398 178.703 240.887 178.214C241.377 177.725 241.889 177.259 242.425 176.819C242.957 176.38 243.513 175.971 244.089 175.585C244.664 175.202 245.257 174.846 245.869 174.52C246.478 174.194 247.103 173.898 247.742 173.635C248.381 173.369 249.033 173.136 249.695 172.936C250.358 172.733 251.027 172.567 251.705 172.43C252.384 172.297 253.07 172.194 253.758 172.128C254.447 172.058 255.136 172.024 255.828 172.024C256.52 172.024 257.212 172.058 257.901 172.128C258.59 172.194 259.272 172.297 259.951 172.43C260.63 172.567 261.302 172.733 261.964 172.936C262.626 173.136 263.275 173.369 263.914 173.635C264.556 173.898 265.179 174.194 265.791 174.52C266.4 174.846 266.992 175.202 267.568 175.585C268.143 175.971 268.699 176.38 269.235 176.819C269.771 177.259 270.283 177.725 270.772 178.214C271.261 178.703 271.724 179.215 272.163 179.748C272.602 180.283 273.015 180.839 273.398 181.415C273.784 181.99 274.14 182.583 274.466 183.192C274.792 183.804 275.088 184.426 275.351 185.068C275.617 185.707 275.85 186.356 276.05 187.018C276.253 187.681 276.419 188.353 276.555 189.032C276.689 189.71 276.792 190.392 276.858 191.081C276.925 191.77 276.961 192.459 276.961 193.151Z" fill="#81C3EA"/>
<path d="M255.828 215.529C243.447 215.529 233.447 205.533 233.447 193.151C233.447 180.772 243.447 170.776 255.828 170.776C268.213 170.776 278.209 180.772 278.209 193.151C278.209 205.533 268.213 215.529 255.828 215.529ZM255.828 173.162C244.811 173.162 235.95 182.133 235.95 193.038C235.95 203.942 244.924 212.916 255.828 212.916C266.736 212.916 275.824 204.055 275.824 193.151C275.824 182.246 266.849 173.162 255.828 173.162Z" fill="#020202"/>
<path d="M204.594 231.431C204.594 232.123 204.558 232.812 204.491 233.501C204.425 234.189 204.321 234.871 204.188 235.55C204.052 236.229 203.882 236.901 203.682 237.563C203.483 238.226 203.25 238.875 202.984 239.513C202.721 240.152 202.425 240.778 202.099 241.39C201.772 241.999 201.416 242.591 201.03 243.167C200.648 243.743 200.235 244.298 199.796 244.831C199.357 245.367 198.894 245.879 198.405 246.368C197.916 246.857 197.403 247.323 196.868 247.759C196.332 248.198 195.776 248.611 195.201 248.997C194.625 249.38 194.033 249.736 193.424 250.062C192.811 250.388 192.189 250.684 191.547 250.947C190.908 251.213 190.259 251.446 189.597 251.646C188.935 251.849 188.263 252.015 187.584 252.151C186.905 252.285 186.223 252.388 185.534 252.454C184.845 252.521 184.153 252.557 183.461 252.557C182.769 252.557 182.08 252.521 181.391 252.454C180.702 252.388 180.017 252.285 179.338 252.151C178.659 252.015 177.99 251.849 177.328 251.646C176.666 251.446 176.014 251.213 175.375 250.947C174.736 250.684 174.111 250.388 173.502 250.062C172.889 249.736 172.297 249.38 171.721 248.997C171.146 248.611 170.59 248.198 170.058 247.759C169.522 247.323 169.009 246.857 168.52 246.368C168.031 245.879 167.565 245.367 167.126 244.831C166.687 244.298 166.278 243.743 165.892 243.167C165.509 242.591 165.153 241.999 164.827 241.39C164.501 240.778 164.204 240.152 163.938 239.513C163.675 238.875 163.442 238.226 163.239 237.563C163.04 236.901 162.873 236.229 162.737 235.55C162.601 234.871 162.501 234.189 162.434 233.501C162.364 232.812 162.331 232.123 162.331 231.431C162.331 230.739 162.364 230.047 162.434 229.358C162.501 228.669 162.601 227.987 162.737 227.308C162.873 226.629 163.04 225.96 163.239 225.298C163.442 224.636 163.675 223.984 163.938 223.345C164.204 222.706 164.501 222.08 164.827 221.471C165.153 220.859 165.509 220.267 165.892 219.691C166.278 219.116 166.687 218.563 167.126 218.027C167.565 217.492 168.031 216.979 168.52 216.49C169.009 216.001 169.522 215.538 170.058 215.099C170.59 214.66 171.146 214.247 171.721 213.865C172.297 213.479 172.889 213.123 173.502 212.797C174.111 212.47 174.736 212.174 175.375 211.911C176.014 211.645 176.666 211.412 177.328 211.213C177.99 211.013 178.659 210.843 179.338 210.71C180.017 210.574 180.702 210.474 181.391 210.404C182.08 210.337 182.769 210.304 183.461 210.304C184.153 210.304 184.845 210.337 185.534 210.404C186.223 210.474 186.905 210.574 187.584 210.71C188.263 210.843 188.935 211.013 189.597 211.213C190.259 211.412 190.908 211.645 191.547 211.911C192.189 212.174 192.811 212.47 193.424 212.797C194.033 213.123 194.625 213.479 195.201 213.865C195.776 214.247 196.332 214.66 196.868 215.099C197.403 215.538 197.916 216.001 198.405 216.49C198.894 216.979 199.357 217.492 199.796 218.027C200.235 218.563 200.648 219.116 201.03 219.691C201.416 220.267 201.772 220.859 202.099 221.471C202.425 222.08 202.721 222.706 202.984 223.345C203.25 223.984 203.483 224.636 203.682 225.298C203.882 225.96 204.052 226.629 204.188 227.308C204.321 227.987 204.425 228.669 204.491 229.358C204.558 230.047 204.594 230.739 204.594 231.431Z" fill="#81C3EA"/>
<path d="M183.461 253.805C171.079 253.805 161.08 243.809 161.08 231.431C161.08 219.049 171.079 209.053 183.461 209.053C195.846 209.053 205.842 219.049 205.842 231.431C205.842 243.809 195.733 253.805 183.461 253.805ZM183.461 211.552C172.444 211.552 163.582 220.527 163.582 231.431C163.582 242.448 172.557 251.306 183.461 251.306C194.369 251.306 203.343 242.335 203.343 231.431C203.343 220.413 194.482 211.552 183.461 211.552Z" fill="#020202"/>
<path d="M439.872 192.698C439.872 193.39 439.838 194.079 439.772 194.768C439.702 195.457 439.602 196.139 439.466 196.818C439.333 197.497 439.163 198.169 438.963 198.831C438.76 199.493 438.527 200.142 438.264 200.781C437.998 201.423 437.702 202.045 437.376 202.658C437.05 203.267 436.697 203.859 436.311 204.435C435.925 205.01 435.516 205.566 435.077 206.102C434.637 206.634 434.172 207.147 433.682 207.636C433.193 208.125 432.681 208.591 432.148 209.03C431.613 209.469 431.057 209.878 430.481 210.264C429.906 210.647 429.313 211.003 428.701 211.329C428.092 211.655 427.467 211.952 426.828 212.214C426.189 212.481 425.537 212.714 424.874 212.913C424.212 213.116 423.543 213.283 422.865 213.419C422.186 213.552 421.5 213.655 420.811 213.722C420.123 213.792 419.434 213.825 418.742 213.825C418.05 213.825 417.357 213.792 416.672 213.722C415.983 213.655 415.298 213.552 414.619 213.419C413.94 213.283 413.271 213.116 412.609 212.913C411.947 212.714 411.295 212.481 410.656 212.214C410.017 211.952 409.391 211.655 408.779 211.329C408.17 211.003 407.578 210.647 407.002 210.264C406.426 209.878 405.871 209.469 405.335 209.03C404.803 208.591 404.29 208.125 403.801 207.636C403.312 207.147 402.846 206.634 402.407 206.102C401.968 205.566 401.555 205.01 401.172 204.435C400.786 203.859 400.434 203.267 400.104 202.658C399.778 202.045 399.485 201.423 399.219 200.781C398.953 200.142 398.72 199.493 398.52 198.831C398.321 198.169 398.151 197.497 398.018 196.818C397.881 196.139 397.782 195.457 397.712 194.768C397.645 194.079 397.612 193.39 397.612 192.698C397.612 192.006 397.645 191.314 397.712 190.625C397.782 189.937 397.881 189.254 398.018 188.576C398.151 187.897 398.321 187.228 398.52 186.566C398.72 185.904 398.953 185.251 399.219 184.612C399.485 183.974 399.778 183.348 400.104 182.739C400.434 182.127 400.786 181.534 401.172 180.959C401.555 180.386 401.968 179.831 402.407 179.295C402.846 178.759 403.312 178.247 403.801 177.758C404.29 177.269 404.803 176.806 405.335 176.367C405.871 175.928 406.426 175.515 407.002 175.132C407.578 174.746 408.17 174.39 408.779 174.064C409.391 173.738 410.017 173.445 410.656 173.179C411.295 172.913 411.947 172.68 412.609 172.48C413.271 172.281 413.94 172.111 414.619 171.978C415.298 171.841 415.983 171.741 416.672 171.672C417.357 171.605 418.05 171.572 418.742 171.572C419.434 171.572 420.123 171.605 420.811 171.672C421.5 171.741 422.186 171.841 422.865 171.978C423.543 172.111 424.212 172.281 424.874 172.48C425.537 172.68 426.189 172.913 426.828 173.179C427.467 173.445 428.092 173.738 428.701 174.064C429.313 174.39 429.906 174.746 430.481 175.132C431.057 175.515 431.613 175.928 432.148 176.367C432.681 176.806 433.193 177.269 433.682 177.758C434.172 178.247 434.637 178.759 435.077 179.295C435.516 179.831 435.925 180.386 436.311 180.959C436.697 181.534 437.05 182.127 437.376 182.739C437.702 183.348 437.998 183.974 438.264 184.612C438.527 185.251 438.76 185.904 438.963 186.566C439.163 187.228 439.333 187.897 439.466 188.576C439.602 189.254 439.702 189.937 439.772 190.625C439.838 191.314 439.872 192.006 439.872 192.698Z" fill="#81C3EA"/>
<path d="M418.742 214.96C406.36 214.96 396.361 204.964 396.361 192.585C396.361 180.203 406.36 170.208 418.742 170.208C431.124 170.208 441.123 180.203 441.123 192.585C441.123 204.964 431.011 214.96 418.742 214.96ZM418.742 172.707C407.721 172.707 398.86 181.681 398.86 192.585C398.86 203.49 407.834 212.461 418.742 212.461C429.763 212.461 438.624 203.49 438.624 192.585C438.624 181.681 429.763 172.707 418.742 172.707Z" fill="#020202"/>
<path d="M520.305 220.753C520.305 221.445 520.272 222.134 520.205 222.822C520.136 223.511 520.036 224.197 519.899 224.875C519.766 225.554 519.596 226.223 519.397 226.885C519.194 227.547 518.961 228.2 518.698 228.839C518.432 229.477 518.136 230.1 517.81 230.712C517.483 231.321 517.131 231.913 516.745 232.489C516.362 233.064 515.949 233.62 515.51 234.156C515.071 234.688 514.605 235.201 514.116 235.69C513.627 236.179 513.114 236.645 512.582 237.084C512.046 237.523 511.491 237.933 510.915 238.319C510.339 238.705 509.747 239.057 509.138 239.384C508.526 239.71 507.9 240.006 507.261 240.272C506.622 240.535 505.97 240.768 505.308 240.971C504.646 241.17 503.977 241.337 503.298 241.473C502.619 241.61 501.934 241.709 501.245 241.776C500.556 241.846 499.867 241.879 499.175 241.879C498.483 241.879 497.794 241.846 497.106 241.776C496.417 241.709 495.731 241.61 495.052 241.473C494.374 241.337 493.705 241.17 493.043 240.971C492.38 240.768 491.728 240.535 491.089 240.272C490.451 240.006 489.825 239.71 489.213 239.384C488.604 239.057 488.011 238.705 487.436 238.319C486.86 237.933 486.304 237.523 485.769 237.084C485.236 236.645 484.724 236.179 484.235 235.69C483.745 235.201 483.28 234.688 482.84 234.156C482.401 233.62 481.989 233.064 481.606 232.489C481.22 231.913 480.867 231.321 480.541 230.712C480.215 230.1 479.919 229.477 479.653 228.839C479.39 228.2 479.157 227.547 478.954 226.885C478.754 226.223 478.584 225.554 478.451 224.875C478.315 224.197 478.215 223.511 478.145 222.822C478.079 222.134 478.045 221.445 478.045 220.753C478.045 220.06 478.079 219.372 478.145 218.683C478.215 217.994 478.315 217.309 478.451 216.63C478.584 215.951 478.754 215.282 478.954 214.62C479.157 213.958 479.39 213.306 479.653 212.667C479.919 212.028 480.215 211.402 480.541 210.793C480.867 210.184 481.22 209.592 481.606 209.016C481.989 208.441 482.401 207.885 482.84 207.349C483.28 206.813 483.745 206.304 484.235 205.815C484.724 205.326 485.236 204.86 485.769 204.421C486.304 203.982 486.86 203.569 487.436 203.186C488.011 202.8 488.604 202.448 489.213 202.122C489.825 201.796 490.451 201.499 491.089 201.233C491.728 200.97 492.38 200.737 493.043 200.534C493.705 200.335 494.374 200.168 495.052 200.032C495.731 199.896 496.417 199.796 497.106 199.729C497.794 199.659 498.483 199.626 499.175 199.626C499.867 199.626 500.556 199.659 501.245 199.729C501.934 199.796 502.619 199.896 503.298 200.032C503.977 200.168 504.646 200.335 505.308 200.534C505.97 200.737 506.622 200.97 507.261 201.233C507.9 201.499 508.526 201.796 509.138 202.122C509.747 202.448 510.339 202.8 510.915 203.186C511.491 203.569 512.046 203.982 512.582 204.421C513.114 204.86 513.627 205.326 514.116 205.815C514.605 206.304 515.071 206.813 515.51 207.349C515.949 207.885 516.362 208.441 516.745 209.016C517.131 209.592 517.483 210.184 517.81 210.793C518.136 211.402 518.432 212.028 518.698 212.667C518.961 213.306 519.194 213.958 519.397 214.62C519.596 215.282 519.766 215.951 519.899 216.63C520.036 217.309 520.136 217.994 520.205 218.683C520.272 219.372 520.305 220.06 520.305 220.753Z" fill="#81C3EA"/>
<path d="M499.175 243.127C486.793 243.127 476.794 233.135 476.794 220.753C476.794 208.371 486.793 198.375 499.175 198.375C511.557 198.375 521.556 208.371 521.556 220.753C521.556 233.021 511.557 243.127 499.175 243.127ZM499.175 200.761C488.154 200.761 479.293 209.735 479.293 220.64C479.293 231.544 488.267 240.515 499.175 240.515C510.083 240.515 519.057 231.544 519.057 220.64C519.057 209.735 510.196 200.761 499.175 200.761Z" fill="#020202"/>
<path d="M287.866 528.681C292.069 553.102 204.364 578.883 266.849 634.201C267.305 634.653 267.305 635.448 267.531 636.017H335.24C332.968 632.61 330.695 629.429 328.765 626.361C313.768 602.17 335.809 571.16 351.033 539.356C366.256 507.554 343.988 484.95 318.769 467.57C293.546 450.194 235.154 450.646 251.739 415.095C268.327 379.543 311.382 372.502 325.697 328.772C340.012 285.041 317.857 265.845 326.605 253.353C335.466 240.858 355.462 235.291 364.553 234.269C366.483 234.043 322.972 226.999 309.791 248.355C296.727 269.708 309.339 295.832 293.776 326.955C278.209 358.077 169.375 402.717 183.348 457.235C197.323 511.757 283.663 504.26 287.866 528.681Z" fill="#FFAEB3"/>
<mask id="mask1_292_487" style="mask-type:luminance" maskUnits="userSpaceOnUse" x="180" y="230" width="188" height="408">
<path d="M180.593 230.852H367.148V637.611H180.593V230.852Z" fill="white"/>
</mask>
<g mask="url(#mask1_292_487)">
<path d="M335.24 637.265H267.531C267.076 637.265 266.623 636.926 266.393 636.47C266.28 636.244 266.28 635.904 266.167 635.678C266.167 635.448 266.054 635.222 266.054 635.109C250.83 621.592 243.333 608.984 243.104 596.489C242.878 578.883 257.08 565.48 269.691 553.667C279.574 544.353 287.979 536.404 286.731 528.907C285.141 519.706 270.03 515.051 252.534 509.597C225.155 501.079 191.074 490.63 182.666 457.461C173.465 421.57 216.637 389.652 251.399 363.984C270.939 349.559 287.753 337.177 293.207 326.386C301.273 310.37 301.725 295.49 302.181 282.316C302.521 269.934 302.976 258.234 309.339 247.673C322.063 226.772 362.28 231.884 365.461 232.905C366.027 233.135 366.483 233.7 366.37 234.269C366.256 234.838 365.801 235.291 365.231 235.404C354.667 236.655 336.149 242.675 328.083 254.032C324.788 258.69 326.266 264.597 328.426 272.889C331.607 285.61 335.922 302.987 327.401 329.224C319.448 353.419 302.863 366.596 286.844 379.204C273.438 389.766 260.83 399.762 253.329 415.664C250.148 422.366 249.696 427.929 251.739 432.701C256.171 442.923 271.96 448.034 288.661 453.488C300.022 457.122 311.725 460.985 319.904 466.662C343.649 483.02 368.869 506.077 352.51 539.924C349.782 545.605 346.827 551.285 343.988 556.848C330.695 582.404 318.2 606.485 330.129 625.795C332.059 628.976 334.332 632.267 336.491 635.448C336.718 635.791 336.831 636.357 336.605 636.7C336.149 637.039 335.696 637.265 335.24 637.265ZM268.44 634.883H332.968C331.151 632.267 329.447 629.655 327.856 627.043C315.132 606.599 327.97 581.838 341.603 555.714C344.444 550.26 347.396 544.583 350.124 538.903C365.574 506.646 341.263 484.381 318.313 468.708C310.36 463.254 298.887 459.508 287.64 455.874C270.37 450.307 254.125 444.97 249.24 433.723C246.854 428.272 247.423 422.023 250.83 414.756C258.444 398.397 271.395 388.175 285.028 377.387C300.817 364.892 317.062 352.058 324.788 328.545C333.197 302.987 328.878 285.95 325.81 273.571C323.654 265.049 321.95 258.234 325.923 252.784C333.081 242.675 347.17 236.995 357.395 234.496C345.01 233.587 320.243 234.383 311.269 249.034C305.136 259.03 304.793 269.934 304.454 282.542C303.998 295.945 303.545 311.166 295.25 327.637C289.57 338.881 272.529 351.489 252.76 366.14C218.68 391.356 176.19 422.705 184.938 457.009C193.117 488.813 226.406 499.149 253.216 507.441C272.303 513.347 287.297 518.003 289.117 528.681C290.595 537.426 281.617 545.831 271.282 555.601C259.123 567.071 245.263 580.135 245.49 596.603C245.719 608.415 252.877 620.458 267.645 633.405C268.1 633.745 268.327 634.314 268.44 634.883Z" fill="black"/>
</g>
<path d="M261.169 466.096C290.934 478.248 330.016 482.564 342.737 506.532C355.348 530.497 327.856 542.65 309.225 568.548C289.57 595.92 304.111 612.392 324.336 634.882C324.675 635.222 324.788 635.678 325.015 636.017H376.026C374.322 632.497 372.845 629.315 371.48 626.361C360.46 602.396 352.28 588.427 375.231 552.532C398.177 516.638 406.925 496.536 387.725 473.024C368.526 449.511 297.183 445.196 299.226 414.186C301.273 383.177 372.618 371.594 374.093 327.637C375.57 283.68 334.219 268.456 346.374 253.353C358.53 238.246 364.779 234.269 364.779 234.269C364.779 234.269 353.189 233.474 333.992 245.513C318.313 255.283 317.631 265.731 320.472 277.773C323.88 292.312 332.059 307.532 316.496 337.064C300.817 366.596 267.188 381.247 242.538 406.124C222.43 426.342 231.404 453.94 261.169 466.096Z" fill="#81C3EA"/>
<mask id="mask2_292_487" style="mask-type:luminance" maskUnits="userSpaceOnUse" x="230" y="232" width="170" height="406">
<path d="M230 232.556H399.519V637.611H230V232.556Z" fill="white"/>
</mask>
<g mask="url(#mask2_292_487)">
<path d="M376.139 637.265H325.128C324.676 637.265 324.336 637.039 324.106 636.7C323.993 636.587 323.88 636.357 323.88 636.244C323.767 636.018 323.654 635.791 323.541 635.678C303.659 613.64 287.979 596.15 308.317 567.866C313.997 560.03 320.586 553.215 326.379 547.308C340.125 533.223 350.125 523.001 341.716 507.098C332.855 490.175 310.587 483.36 287.071 476.089C278.21 473.364 269.122 470.525 260.83 467.231C244.695 460.643 233.903 449.399 231.178 436.222C228.905 425.317 232.652 414.3 241.513 405.329C250.831 395.898 261.509 387.836 271.847 380.113C289.23 367.049 305.702 354.67 315.358 336.495C328.539 311.505 324.562 297.08 320.925 284.359C320.36 282.203 319.791 280.156 319.222 278.113C316.154 265.279 317.405 254.601 333.31 244.605C352.624 232.453 364.323 233.135 364.779 233.135C365.348 233.135 365.688 233.587 365.914 234.043C366.027 234.496 365.801 235.065 365.348 235.404C365.232 235.404 359.099 239.494 347.283 254.261C342.624 260.055 346.601 265.618 354.554 275.841C363.641 287.427 376.026 303.216 375.231 327.863C374.436 352.511 352.055 367.278 332.402 380.339C316.383 390.904 301.273 401.013 300.364 414.413C299.226 431.566 322.972 440.538 345.919 449.286C362.846 455.758 380.342 462.346 388.638 472.455C409.199 497.558 397.612 519.82 376.252 553.328C354.667 587.176 360.916 600.692 371.254 623.07L372.619 626.022C373.414 627.838 374.436 629.772 375.344 631.928L377.161 635.678C377.39 636.018 377.274 636.47 377.048 636.813C376.935 637.039 376.479 637.265 376.139 637.265ZM325.81 634.883H374.209L373.298 632.836C372.276 630.793 371.368 628.747 370.459 626.93L369.095 623.978C358.756 601.601 351.941 586.836 374.209 551.851C396.93 516.186 405.678 496.876 386.817 473.82C378.978 464.276 361.824 457.691 345.123 451.442C321.381 442.471 296.727 433.041 297.979 414.187C299 399.535 314.563 389.2 331.038 378.296C351.146 364.892 371.937 351.146 372.732 327.75C373.527 304.012 361.372 288.562 352.624 277.318C345.123 267.778 339.217 260.281 345.353 252.784C352.624 243.697 357.848 238.585 360.803 235.973C356.031 236.655 346.83 239.041 334.445 246.765C319.678 255.965 318.54 265.392 321.381 277.657C321.834 279.704 322.403 281.747 322.972 283.793C326.719 296.967 330.925 311.961 317.179 337.746C307.292 356.374 290.595 368.982 272.985 382.156C262.76 389.879 252.195 397.832 242.991 407.146C234.699 415.551 231.178 425.773 233.334 435.882C235.833 448.148 246.172 458.826 261.509 465.072C269.691 468.366 278.779 471.208 287.527 473.933C310.474 480.974 334.332 488.358 343.649 506.077C352.85 523.57 341.263 535.496 327.857 549.125C322.177 555.032 315.588 561.62 310.021 569.344C290.821 596.15 305.136 612.049 325.015 634.201C325.471 634.314 325.697 634.54 325.81 634.883Z" fill="#020202"/>
</g>
<path d="M314.337 445.196C325.81 451.328 365.005 456.439 380.798 480.973C396.587 505.507 387.955 525.499 376.478 544.696C365.005 563.889 349.895 572.411 355.918 596.15C358.756 607.167 365.461 621.479 371.936 636.13H426.581C411.358 615.912 403.857 581.382 454.982 526.068C479.749 499.262 459.185 466.435 419.876 445.878C384.092 427.25 335.696 424.295 354.101 394.081C365.461 375.341 427.603 361.371 427.263 329.906C426.921 303.103 364.779 277.657 358.756 258.803C355.575 248.92 365.005 234.382 365.005 234.382C365.005 234.382 349.213 241.197 342.171 255.622C335.127 270.047 339.33 287.087 350.464 300.83C362.732 315.937 368.868 331.497 350.124 350.351C331.49 369.208 300.817 381.929 293.433 408.393C285.936 434.86 302.863 439.063 314.337 445.196Z" fill="#FF9203"/>
<mask id="mask3_292_487" style="mask-type:luminance" maskUnits="userSpaceOnUse" x="289" y="232" width="179" height="406">
<path d="M289.63 232.556H467.667V637.611H289.63V232.556Z" fill="white"/>
</mask>
<g mask="url(#mask3_292_487)">
<path d="M426.582 637.265H371.937C371.481 637.265 371.028 636.926 370.799 636.586C369.664 633.971 368.526 631.359 367.391 628.747C362.051 616.821 357.053 605.464 354.78 596.376C350.238 578.318 357.508 568.661 366.143 557.304C369.208 553.215 372.502 549.012 375.457 544.014C386.252 525.839 395.566 506.077 379.773 481.656C368.413 464.05 344.215 456.553 328.083 451.555C322.063 449.738 316.836 448.034 313.655 446.331C312.294 445.648 310.929 444.853 309.452 444.174C298.661 438.947 285.367 432.361 292.069 407.941C297.183 389.652 312.973 377.84 328.309 366.483C335.583 361.029 343.08 355.465 349.1 349.329C367.96 330.249 360.347 315.029 349.329 301.399C337.17 286.292 333.993 268.912 340.921 254.94C348.078 240.289 363.641 233.474 364.323 233.135C364.779 232.905 365.348 233.021 365.688 233.474C366.027 233.93 366.027 234.496 365.801 234.951C365.688 235.065 356.826 249.15 359.781 258.351C362.167 265.961 374.888 275.158 388.408 284.928C407.039 298.444 428.172 313.778 428.398 329.793C428.625 349.785 404.883 362.733 383.979 374.206C371.255 381.134 359.212 387.722 355.009 394.65C351.372 400.67 350.351 405.781 351.828 410.097C355.236 419.64 370.686 425.204 388.638 431.679C399.203 435.539 410.22 439.403 420.332 444.74C446.46 458.37 463.274 476.545 466.342 494.603C468.389 506.19 464.752 516.981 455.778 526.747C415.561 570.365 406.017 606.825 427.49 635.222C427.716 635.561 427.829 636.13 427.603 636.47C427.49 637.039 427.034 637.265 426.582 637.265ZM372.732 634.883H424.196C403.745 605.69 413.857 568.774 454.074 525.16C462.592 515.959 465.89 505.85 464.07 495.059C461.005 477.792 444.757 460.19 419.311 446.9C409.312 441.675 398.407 437.699 387.955 433.952C369.438 427.25 353.419 421.457 349.669 410.892C347.852 405.781 348.987 400.101 353.076 393.403C357.622 385.906 369.89 379.204 382.954 372.046C403.292 360.916 426.352 348.421 426.126 329.906C425.899 315.029 405.335 300.148 387.16 286.971C372.732 276.523 360.347 267.548 357.622 259.143C355.349 251.875 359.212 242.448 361.937 237.337C356.939 240.176 348.078 246.422 343.306 256.078C336.831 269.252 339.899 285.61 351.486 299.922C362.62 313.778 371.368 330.588 351.146 351.146C345.01 357.395 337.4 363.075 330.016 368.526C315.019 379.656 299.569 391.243 294.684 408.736C288.435 431.11 299.795 436.677 310.703 442.128C312.177 442.81 313.655 443.605 315.019 444.287C317.974 445.878 323.085 447.469 328.991 449.285C345.353 454.397 370.116 462.12 381.933 480.408C398.407 506.077 388.408 527.429 377.617 545.378C374.549 550.489 371.255 554.805 368.187 558.895C359.665 570.139 352.963 578.883 357.279 595.807C359.552 604.782 364.553 615.912 369.777 627.725C370.686 630.111 371.707 632.497 372.732 634.883Z" fill="black"/>
</g>
</g>
</svg>
