<svg width="36" height="37" viewBox="0 0 36 37" fill="none" xmlns="http://www.w3.org/2000/svg">
<path d="M10.35 31.3907C12.6 32.7622 15.3 33.5241 18 33.5241C26.25 33.5241 33 26.6668 33 18.2855C33 9.90426 26.25 3.04688 18 3.04688C9.75 3.04688 3 9.90426 3 18.2855C3 21.0285 3.75 23.619 4.95 25.9048L3.66 30.9427C3.59345 31.2028 3.59577 31.4761 3.66675 31.735C3.73772 31.9939 3.87481 32.2291 4.06412 32.4167C4.25343 32.6044 4.48823 32.7379 4.7447 32.8037C5.00117 32.8694 5.2702 32.8651 5.5245 32.7912L10.35 31.3907Z" stroke="#552E91" stroke-width="2.5" stroke-miterlimit="10" stroke-linecap="round" stroke-linejoin="round"/>
<path d="M24.75 22.627C24.75 22.8739 24.696 23.1284 24.5805 23.3753C24.4626 23.6303 24.3079 23.8661 24.1215 24.0747C23.79 24.445 23.4255 24.7117 23.0115 24.8839C22.6065 25.0561 22.167 25.1445 21.6945 25.1445C21.0045 25.1445 20.268 24.9799 19.4895 24.6446C18.6665 24.2821 17.8865 23.8261 17.1645 23.2853C16.3792 22.7026 15.6381 22.0608 14.9475 21.3653C14.2642 20.6675 13.6339 19.9182 13.062 19.1237C12.5364 18.3966 12.0917 17.6126 11.736 16.7861C11.412 16.0013 11.25 15.2546 11.25 14.5429C11.25 14.0766 11.331 13.6317 11.493 13.2202C11.655 12.8012 11.913 12.4172 12.2715 12.0743C12.7035 11.6415 13.176 11.4297 13.677 11.4297C13.866 11.4297 14.055 11.4708 14.2245 11.5531C14.4 11.6354 14.5545 11.7588 14.6775 11.9371L16.2465 14.1803C16.3665 14.3509 16.4565 14.5094 16.5165 14.6603C16.5765 14.8035 16.611 14.9483 16.611 15.0778C16.6091 15.2507 16.5597 15.4195 16.4685 15.5655C16.3643 15.7439 16.2372 15.9073 16.0905 16.0516L15.576 16.5941C15.5402 16.6296 15.5121 16.6724 15.4935 16.7196C15.4749 16.7669 15.4662 16.8175 15.468 16.8684C15.468 16.9217 15.4755 16.9705 15.489 17.0253C15.5085 17.0802 15.5295 17.1213 15.543 17.1625C15.663 17.3895 15.873 17.6836 16.1715 18.0402C16.476 18.3968 16.8 18.761 17.151 19.1237C17.517 19.4879 17.868 19.8231 18.2265 20.1325C18.5775 20.4327 18.8685 20.6384 19.098 20.7618L19.221 20.8182C19.2749 20.8377 19.3318 20.847 19.389 20.8456C19.4407 20.8468 19.4922 20.8369 19.5399 20.8167C19.5877 20.7965 19.6308 20.7664 19.6665 20.7283L20.1795 20.2132C20.349 20.0426 20.511 19.913 20.667 19.8292C20.8105 19.7364 20.9769 19.6867 21.147 19.686C21.289 19.6881 21.4292 19.7187 21.5595 19.7759C21.708 19.8368 21.864 19.9252 22.032 20.0426L24.27 21.6548C24.4322 21.762 24.5611 21.9136 24.642 22.0922C24.7121 22.2616 24.7488 22.4433 24.75 22.627V22.627Z" stroke="#552E91" stroke-width="2.5" stroke-miterlimit="10"/>
</svg>
