<svg width="53" height="53" viewBox="0 0 53 53" fill="none" xmlns="http://www.w3.org/2000/svg">
<path fill-rule="evenodd" clip-rule="evenodd" d="M26.5013 6.625C38.3026 6.625 48.5846 14.67 48.5846 25.3958C48.5846 30.8217 45.6343 35.51 41.5202 39.2863C37.3972 43.0735 31.8941 46.1542 26.2164 48.4265C25.6466 48.6561 25.0108 48.6604 24.4379 48.4386C23.865 48.2167 23.398 47.7853 23.1314 47.2318C22.9017 46.7482 22.8443 46.2315 22.8288 45.7081L22.82 44.5266C22.815 44.3968 22.8062 44.2672 22.7935 44.138C22.7184 43.3672 22.5153 42.8792 21.7048 42.7357C12.2531 41.0882 4.41797 34.7592 4.41797 25.3958C4.41797 14.67 14.7 6.625 26.5013 6.625ZM30.918 19.875C30.3323 19.875 29.7706 20.1077 29.3564 20.5218C28.9423 20.9359 28.7096 21.4976 28.7096 22.0833V22.6089L27.0931 20.67C26.8026 20.3216 26.4117 20.0711 25.9738 19.9526C25.5359 19.8341 25.0721 19.8534 24.6455 20.0079C24.2189 20.1623 23.8502 20.4443 23.5896 20.8157C23.3289 21.187 23.189 21.6297 23.1888 22.0833V28.7083C23.1888 29.294 23.4215 29.8557 23.8356 30.2699C24.2498 30.684 24.8114 30.9167 25.3971 30.9167C25.9828 30.9167 26.5445 30.684 26.9587 30.2699C27.3728 29.8557 27.6055 29.294 27.6055 28.7083V28.1827L29.222 30.1217C29.5125 30.4701 29.9034 30.7206 30.3413 30.839C30.7792 30.9575 31.243 30.9382 31.6696 30.7838C32.0962 30.6294 32.4649 30.3473 32.7255 29.976C32.9862 29.6046 33.1261 29.162 33.1263 28.7083V22.0833C33.1263 21.4976 32.8936 20.9359 32.4795 20.5218C32.0654 20.1077 31.5037 19.875 30.918 19.875ZM13.2513 19.875C12.6656 19.875 12.1039 20.1077 11.6898 20.5218C11.2756 20.9359 11.043 21.4976 11.043 22.0833V28.7083C11.043 29.294 11.2756 29.8557 11.6898 30.2699C12.1039 30.684 12.6656 30.9167 13.2513 30.9167H15.4596C16.0453 30.9167 16.607 30.684 17.0212 30.2699C17.4353 29.8557 17.668 29.294 17.668 28.7083C17.668 28.1226 17.4353 27.5609 17.0212 27.1468C16.607 26.7327 16.0453 26.5 15.4596 26.5V22.0833C15.4596 21.4976 15.227 20.9359 14.8128 20.5218C14.3987 20.1077 13.837 19.875 13.2513 19.875ZM19.8763 19.875C19.3354 19.8751 18.8133 20.0737 18.4091 20.4331C18.0049 20.7925 17.7467 21.2878 17.6834 21.825L17.668 22.0833V28.7083C17.6686 29.2712 17.8841 29.8126 18.2705 30.2219C18.6569 30.6311 19.185 30.8774 19.7469 30.9104C20.3088 30.9434 20.8621 30.7606 21.2937 30.3993C21.7253 30.0381 22.0027 29.5256 22.0692 28.9667L22.0846 28.7083V22.0833C22.0846 21.4976 21.852 20.9359 21.4378 20.5218C21.0237 20.1077 20.462 19.875 19.8763 19.875ZM39.7513 19.875H36.4388C35.8979 19.8751 35.3758 20.0737 34.9716 20.4331C34.5674 20.7925 34.3092 21.2878 34.2459 21.825L34.2305 22.0833V28.7083C34.2305 29.2492 34.4291 29.7713 34.7885 30.1755C35.148 30.5797 35.6432 30.8379 36.1804 30.9012L36.4388 30.9167H39.7513C40.3142 30.916 40.8555 30.7005 41.2648 30.3141C41.6741 29.9277 41.9204 29.3996 41.9534 28.8378C41.9864 28.2759 41.8036 27.7226 41.4423 27.291C41.081 26.8593 40.5686 26.5819 40.0097 26.5155L39.7513 26.5H39.4554C39.6253 26.2059 39.725 25.8765 39.7468 25.5375C39.7687 25.1986 39.712 24.8591 39.5813 24.5456L39.4554 24.2917H39.7513C40.3142 24.291 40.8555 24.0755 41.2648 23.6891C41.6741 23.3027 41.9204 22.7746 41.9534 22.2128C41.9864 21.6509 41.8036 21.0976 41.4423 20.666C41.081 20.2343 40.5686 19.9569 40.0097 19.8905L39.7513 19.875Z" fill="white"/>
</svg>