<svg xmlns="http://www.w3.org/2000/svg" xmlns:xlink="http://www.w3.org/1999/xlink" width="197" zoomAndPan="magnify" viewBox="0 0 147.75 147.750002" height="197" preserveAspectRatio="xMidYMid meet" version="1.0"><defs><g/><clipPath id="6588ee9a7d"><path d="M 32 38 L 122 38 L 122 128 L 32 128 Z M 32 38 " clip-rule="nonzero"/></clipPath><clipPath id="a5662108a7"><path d="M 0 38.859375 L 108.523438 -0.101562 L 147.484375 108.421875 L 38.964844 147.382812 Z M 0 38.859375 " clip-rule="nonzero"/></clipPath><clipPath id="965c26a1eb"><path d="M 0 38.859375 L 108.523438 -0.101562 L 147.484375 108.421875 L 38.964844 147.382812 Z M 0 38.859375 " clip-rule="nonzero"/></clipPath><clipPath id="3d38a6fd4f"><path d="M 8 31 L 49 31 L 49 73 L 8 73 Z M 8 31 " clip-rule="nonzero"/></clipPath><clipPath id="12d725a0bb"><path d="M 0 38.859375 L 108.523438 -0.101562 L 147.484375 108.421875 L 38.964844 147.382812 Z M 0 38.859375 " clip-rule="nonzero"/></clipPath><clipPath id="2838441574"><path d="M 0 38.859375 L 108.523438 -0.101562 L 147.484375 108.421875 L 38.964844 147.382812 Z M 0 38.859375 " clip-rule="nonzero"/></clipPath><clipPath id="dea1ecbd51"><path d="M 74 7 L 116 7 L 116 49 L 74 49 Z M 74 7 " clip-rule="nonzero"/></clipPath><clipPath id="17297ad90c"><path d="M 0 38.859375 L 108.523438 -0.101562 L 147.484375 108.421875 L 38.964844 147.382812 Z M 0 38.859375 " clip-rule="nonzero"/></clipPath><clipPath id="4f7e83a1b1"><path d="M 0 38.859375 L 108.523438 -0.101562 L 147.484375 108.421875 L 38.964844 147.382812 Z M 0 38.859375 " clip-rule="nonzero"/></clipPath><clipPath id="c3bc993cd6"><path d="M 54 75 L 72 75 L 72 98 L 54 98 Z M 54 75 " clip-rule="nonzero"/></clipPath><clipPath id="8c807ebabb"><path d="M 0 38.859375 L 108.523438 -0.101562 L 147.484375 108.421875 L 38.964844 147.382812 Z M 0 38.859375 " clip-rule="nonzero"/></clipPath><clipPath id="b92f098c63"><path d="M 0 38.859375 L 108.523438 -0.101562 L 147.484375 108.421875 L 38.964844 147.382812 Z M 0 38.859375 " clip-rule="nonzero"/></clipPath><clipPath id="370472870f"><path d="M 82 67 L 100 67 L 100 90 L 82 90 Z M 82 67 " clip-rule="nonzero"/></clipPath><clipPath id="e6d20b6262"><path d="M 0 38.859375 L 108.523438 -0.101562 L 147.484375 108.421875 L 38.964844 147.382812 Z M 0 38.859375 " clip-rule="nonzero"/></clipPath><clipPath id="827989c8da"><path d="M 0 38.859375 L 108.523438 -0.101562 L 147.484375 108.421875 L 38.964844 147.382812 Z M 0 38.859375 " clip-rule="nonzero"/></clipPath><clipPath id="dfc58f7694"><path d="M 73 66 L 80 66 L 80 99 L 73 99 Z M 73 66 " clip-rule="nonzero"/></clipPath><clipPath id="3019b698bc"><path d="M 0 38.859375 L 108.523438 -0.101562 L 147.484375 108.421875 L 38.964844 147.382812 Z M 0 38.859375 " clip-rule="nonzero"/></clipPath><clipPath id="67c7aaf9d5"><path d="M 0 38.859375 L 108.523438 -0.101562 L 147.484375 108.421875 L 38.964844 147.382812 Z M 0 38.859375 " clip-rule="nonzero"/></clipPath></defs><g clip-path="url(#6588ee9a7d)"><g clip-path="url(#a5662108a7)"><g clip-path="url(#965c26a1eb)"><path fill="#ffbd59" d="M 66.640625 39.78125 L 85.09375 60.378906 C 86.03125 61.425781 87.347656 62.046875 88.75 62.105469 L 116.382812 63.238281 C 121.035156 63.425781 123.105469 69.195312 119.636719 72.296875 L 99.035156 90.75 C 97.988281 91.6875 97.367188 93.003906 97.3125 94.40625 L 96.175781 122.039062 C 95.988281 126.691406 90.222656 128.761719 87.117188 125.292969 L 68.664062 104.691406 C 67.730469 103.644531 66.410156 103.023438 65.007812 102.96875 L 37.375 101.832031 C 32.722656 101.644531 30.652344 95.878906 34.125 92.773438 L 54.722656 74.320312 C 55.769531 73.386719 56.390625 72.066406 56.449219 70.664062 L 57.582031 43.03125 C 57.769531 38.378906 63.539062 36.308594 66.640625 39.78125 " fill-opacity="1" fill-rule="nonzero"/></g></g></g><g clip-path="url(#3d38a6fd4f)"><g clip-path="url(#12d725a0bb)"><g clip-path="url(#2838441574)"><path fill="#ffbd59" d="M 23.855469 32.503906 L 32.308594 41.9375 C 32.742188 42.414062 33.347656 42.699219 33.988281 42.726562 L 46.644531 43.25 C 48.785156 43.332031 49.734375 45.980469 48.136719 47.40625 L 38.703125 55.859375 C 38.226562 56.289062 37.941406 56.894531 37.910156 57.539062 L 37.390625 70.195312 C 37.304688 72.335938 34.660156 73.285156 33.234375 71.6875 L 24.78125 62.253906 C 24.351562 61.773438 23.742188 61.488281 23.101562 61.460938 L 10.445312 60.9375 C 8.304688 60.855469 7.355469 58.207031 8.953125 56.78125 L 18.386719 48.332031 C 18.863281 47.898438 19.152344 47.292969 19.179688 46.648438 L 19.699219 33.992188 C 19.785156 31.855469 22.429688 30.902344 23.855469 32.503906 " fill-opacity="1" fill-rule="nonzero"/></g></g></g><g clip-path="url(#dea1ecbd51)"><g clip-path="url(#17297ad90c)"><g clip-path="url(#4f7e83a1b1)"><path fill="#ffbd59" d="M 90.125 8.710938 L 98.574219 18.144531 C 99.007812 18.621094 99.613281 18.90625 100.257812 18.9375 L 112.914062 19.457031 C 115.054688 19.542969 116.003906 22.1875 114.40625 23.613281 L 104.972656 32.066406 C 104.492188 32.496094 104.207031 33.101562 104.179688 33.746094 L 103.65625 46.402344 C 103.574219 48.542969 100.925781 49.492188 99.5 47.894531 L 91.046875 38.460938 C 90.617188 37.984375 90.011719 37.695312 89.367188 37.667969 L 76.710938 37.148438 C 74.570312 37.0625 73.621094 34.417969 75.21875 32.992188 L 84.652344 24.539062 C 85.132812 24.105469 85.417969 23.5 85.445312 22.859375 L 85.96875 10.203125 C 86.050781 8.0625 88.699219 7.113281 90.125 8.710938 " fill-opacity="1" fill-rule="nonzero"/></g></g></g><g clip-path="url(#c3bc993cd6)"><g clip-path="url(#8c807ebabb)"><g clip-path="url(#b92f098c63)"><path fill="#ffffff" d="M 69.800781 97.546875 C 69.324219 97.714844 68.792969 97.703125 68.304688 97.472656 L 55.796875 91.574219 C 54.820312 91.113281 54.402344 89.949219 54.863281 88.972656 L 60.761719 76.460938 C 61.222656 75.484375 62.386719 75.066406 63.363281 75.527344 C 64.339844 75.988281 64.761719 77.152344 64.300781 78.132812 L 59.234375 88.871094 L 69.972656 93.9375 C 70.949219 94.398438 71.367188 95.5625 70.90625 96.539062 C 70.675781 97.027344 70.273438 97.375 69.800781 97.546875 " fill-opacity="1" fill-rule="nonzero"/></g></g></g><g clip-path="url(#370472870f)"><g clip-path="url(#e6d20b6262)"><g clip-path="url(#827989c8da)"><path fill="#ffffff" d="M 91.890625 89.613281 C 91.414062 89.785156 90.882812 89.773438 90.394531 89.542969 C 89.417969 89.082031 89 87.917969 89.460938 86.941406 L 94.523438 76.199219 L 83.785156 71.136719 C 82.808594 70.675781 82.390625 69.507812 82.851562 68.53125 C 83.3125 67.554688 84.476562 67.136719 85.453125 67.597656 L 97.960938 73.496094 C 98.9375 73.957031 99.355469 75.121094 98.894531 76.101562 L 92.996094 88.609375 C 92.765625 89.097656 92.363281 89.445312 91.890625 89.613281 " fill-opacity="1" fill-rule="nonzero"/></g></g></g><g clip-path="url(#dfc58f7694)"><g clip-path="url(#3019b698bc)"><g clip-path="url(#67c7aaf9d5)"><path fill="#ffffff" d="M 78.484375 98.582031 C 78.320312 98.644531 78.140625 98.683594 77.957031 98.691406 C 76.878906 98.761719 75.945312 97.953125 75.875 96.875 L 73.984375 68.460938 C 73.914062 67.382812 74.734375 66.453125 75.804688 66.378906 C 76.882812 66.308594 77.8125 67.117188 77.882812 68.195312 L 79.773438 96.609375 C 79.835938 97.503906 79.28125 98.296875 78.484375 98.582031 " fill-opacity="1" fill-rule="nonzero"/></g></g></g><g fill="#ffbd59" fill-opacity="1"><g transform="translate(64.17264, 59.184488)"><g><path d="M 1.578125 0.0625 C 1.347656 0.0625 1.171875 0 1.046875 -0.125 C 0.921875 -0.25 0.859375 -0.414062 0.859375 -0.625 C 0.859375 -0.832031 0.921875 -1 1.046875 -1.125 C 1.171875 -1.257812 1.347656 -1.328125 1.578125 -1.328125 C 1.796875 -1.328125 1.96875 -1.265625 2.09375 -1.140625 C 2.226562 -1.015625 2.296875 -0.847656 2.296875 -0.640625 C 2.296875 -0.429688 2.226562 -0.257812 2.09375 -0.125 C 1.96875 0 1.796875 0.0625 1.578125 0.0625 Z M 1.578125 0.0625 "/></g></g></g></svg>