<svg xmlns="http://www.w3.org/2000/svg" xmlns:xlink="http://www.w3.org/1999/xlink" width="197" zoomAndPan="magnify" viewBox="0 0 147.75 147.750002" height="197" preserveAspectRatio="xMidYMid meet" version="1.0"><defs><g/><clipPath id="8432733f0b"><path d="M 25 38 L 115 38 L 115 128 L 25 128 Z M 25 38 " clip-rule="nonzero"/></clipPath><clipPath id="470d71fe32"><path d="M 38.75 0 L 147.3125 38.851562 L 108.460938 147.414062 L -0.101562 108.5625 Z M 38.75 0 " clip-rule="nonzero"/></clipPath><clipPath id="a08565af48"><path d="M 38.75 0 L 147.3125 38.851562 L 108.460938 147.414062 L -0.101562 108.5625 Z M 38.75 0 " clip-rule="nonzero"/></clipPath><clipPath id="bf48f47efd"><path d="M 31 7 L 73 7 L 73 49 L 31 49 Z M 31 7 " clip-rule="nonzero"/></clipPath><clipPath id="200ed001b2"><path d="M 38.75 0 L 147.3125 38.851562 L 108.460938 147.414062 L -0.101562 108.5625 Z M 38.75 0 " clip-rule="nonzero"/></clipPath><clipPath id="9961527bd9"><path d="M 38.75 0 L 147.3125 38.851562 L 108.460938 147.414062 L -0.101562 108.5625 Z M 38.75 0 " clip-rule="nonzero"/></clipPath><clipPath id="b7496033ba"><path d="M 98 31 L 140 31 L 140 73 L 98 73 Z M 98 31 " clip-rule="nonzero"/></clipPath><clipPath id="3e1d0bec86"><path d="M 38.75 0 L 147.3125 38.851562 L 108.460938 147.414062 L -0.101562 108.5625 Z M 38.75 0 " clip-rule="nonzero"/></clipPath><clipPath id="e9b2964e12"><path d="M 38.75 0 L 147.3125 38.851562 L 108.460938 147.414062 L -0.101562 108.5625 Z M 38.75 0 " clip-rule="nonzero"/></clipPath><clipPath id="a5d5db8143"><path d="M 48 67 L 65 67 L 65 90 L 48 90 Z M 48 67 " clip-rule="nonzero"/></clipPath><clipPath id="cd21ade343"><path d="M 38.75 0 L 147.3125 38.851562 L 108.460938 147.414062 L -0.101562 108.5625 Z M 38.75 0 " clip-rule="nonzero"/></clipPath><clipPath id="13ddcef304"><path d="M 38.75 0 L 147.3125 38.851562 L 108.460938 147.414062 L -0.101562 108.5625 Z M 38.75 0 " clip-rule="nonzero"/></clipPath><clipPath id="31ca9fe5ee"><path d="M 76 75 L 93 75 L 93 98 L 76 98 Z M 76 75 " clip-rule="nonzero"/></clipPath><clipPath id="ae81c1f2ee"><path d="M 38.75 0 L 147.3125 38.851562 L 108.460938 147.414062 L -0.101562 108.5625 Z M 38.75 0 " clip-rule="nonzero"/></clipPath><clipPath id="73dea2359f"><path d="M 38.75 0 L 147.3125 38.851562 L 108.460938 147.414062 L -0.101562 108.5625 Z M 38.75 0 " clip-rule="nonzero"/></clipPath><clipPath id="e75a5fe011"><path d="M 60 69 L 81 69 L 81 97 L 60 97 Z M 60 69 " clip-rule="nonzero"/></clipPath><clipPath id="7bce183802"><path d="M 38.75 0 L 147.3125 38.851562 L 108.460938 147.414062 L -0.101562 108.5625 Z M 38.75 0 " clip-rule="nonzero"/></clipPath><clipPath id="a0a4d848f8"><path d="M 38.75 0 L 147.3125 38.851562 L 108.460938 147.414062 L -0.101562 108.5625 Z M 38.75 0 " clip-rule="nonzero"/></clipPath></defs><g clip-path="url(#8432733f0b)"><g clip-path="url(#470d71fe32)"><g clip-path="url(#a08565af48)"><path fill="#ffbd59" d="M 89.632812 43.046875 L 90.796875 70.679688 C 90.855469 72.078125 91.476562 73.398438 92.523438 74.332031 L 113.140625 92.761719 C 116.617188 95.863281 114.550781 101.632812 109.898438 101.824219 L 82.265625 102.988281 C 80.867188 103.046875 79.546875 103.671875 78.613281 104.714844 L 60.183594 125.335938 C 57.082031 128.808594 51.3125 126.746094 51.121094 122.09375 L 49.957031 94.460938 C 49.898438 93.058594 49.273438 91.742188 48.230469 90.808594 L 27.609375 72.375 C 24.136719 69.273438 26.199219 63.503906 30.855469 63.3125 L 58.484375 62.148438 C 59.886719 62.089844 61.203125 61.46875 62.136719 60.421875 L 80.570312 39.804688 C 83.671875 36.328125 89.441406 38.394531 89.632812 43.046875 " fill-opacity="1" fill-rule="nonzero"/></g></g></g><g clip-path="url(#bf48f47efd)"><g clip-path="url(#200ed001b2)"><g clip-path="url(#9961527bd9)"><path fill="#ffbd59" d="M 61.214844 10.246094 L 61.75 22.898438 C 61.777344 23.542969 62.0625 24.148438 62.542969 24.582031 L 71.984375 33.023438 C 73.585938 34.445312 72.636719 37.09375 70.496094 37.179688 L 57.84375 37.714844 C 57.199219 37.742188 56.59375 38.03125 56.160156 38.507812 L 47.71875 47.953125 C 46.292969 49.550781 43.648438 48.605469 43.5625 46.464844 L 43.027344 33.808594 C 43 33.164062 42.710938 32.558594 42.234375 32.128906 L 32.789062 23.6875 C 31.191406 22.261719 32.136719 19.613281 34.277344 19.527344 L 46.933594 18.992188 C 47.578125 18.964844 48.183594 18.679688 48.613281 18.199219 L 57.054688 8.757812 C 58.480469 7.15625 61.128906 8.105469 61.214844 10.246094 " fill-opacity="1" fill-rule="nonzero"/></g></g></g><g clip-path="url(#b7496033ba)"><g clip-path="url(#3e1d0bec86)"><g clip-path="url(#e9b2964e12)"><path fill="#ffbd59" d="M 127.503906 33.96875 L 128.039062 46.625 C 128.070312 47.269531 128.355469 47.875 128.832031 48.304688 L 138.277344 56.746094 C 139.875 58.171875 138.929688 60.820312 136.789062 60.90625 L 124.132812 61.4375 C 123.488281 61.46875 122.882812 61.753906 122.453125 62.234375 L 114.011719 71.675781 C 112.585938 73.277344 109.9375 72.328125 109.851562 70.1875 L 109.320312 57.53125 C 109.289062 56.890625 109.003906 56.285156 108.523438 55.851562 L 99.082031 47.410156 C 97.480469 45.984375 98.429688 43.339844 100.570312 43.253906 L 113.226562 42.71875 C 113.867188 42.6875 114.472656 42.402344 114.90625 41.925781 L 123.347656 32.480469 C 124.773438 30.882812 127.417969 31.828125 127.503906 33.96875 " fill-opacity="1" fill-rule="nonzero"/></g></g></g><g clip-path="url(#a5d5db8143)"><g clip-path="url(#cd21ade343)"><g clip-path="url(#13ddcef304)"><path fill="#ffffff" d="M 55.375 89.664062 C 54.898438 89.492188 54.496094 89.148438 54.265625 88.660156 L 48.351562 76.15625 C 47.890625 75.179688 48.308594 74.015625 49.285156 73.550781 L 61.785156 67.640625 C 62.761719 67.179688 63.929688 67.59375 64.390625 68.570312 C 64.851562 69.546875 64.433594 70.714844 63.457031 71.175781 L 52.722656 76.253906 L 57.800781 86.988281 C 58.261719 87.964844 57.84375 89.128906 56.867188 89.589844 C 56.378906 89.820312 55.847656 89.832031 55.375 89.664062 " fill-opacity="1" fill-rule="nonzero"/></g></g></g><g clip-path="url(#31ca9fe5ee)"><g clip-path="url(#ae81c1f2ee)"><g clip-path="url(#73dea2359f)"><path fill="#ffffff" d="M 77.472656 97.570312 C 76.996094 97.402344 76.59375 97.054688 76.363281 96.566406 C 75.898438 95.589844 76.316406 94.425781 77.292969 93.960938 L 88.027344 88.886719 L 82.953125 78.152344 C 82.488281 77.175781 82.90625 76.011719 83.882812 75.546875 C 84.859375 75.085938 86.027344 75.503906 86.488281 76.480469 L 92.398438 88.980469 C 92.863281 89.960938 92.445312 91.125 91.46875 91.585938 L 78.964844 97.5 C 78.476562 97.730469 77.945312 97.742188 77.472656 97.570312 " fill-opacity="1" fill-rule="nonzero"/></g></g></g><g clip-path="url(#e75a5fe011)"><g clip-path="url(#7bce183802)"><g clip-path="url(#a0a4d848f8)"><path fill="#ffffff" d="M 61.421875 95.984375 C 61.257812 95.921875 61.089844 95.839844 60.945312 95.730469 C 60.066406 95.101562 59.859375 93.882812 60.492188 93.003906 L 77.082031 69.859375 C 77.714844 68.984375 78.9375 68.789062 79.808594 69.40625 C 80.6875 70.039062 80.890625 71.257812 80.261719 72.132812 L 63.667969 95.277344 C 63.148438 96.007812 62.21875 96.269531 61.421875 95.984375 " fill-opacity="1" fill-rule="nonzero"/></g></g></g><g fill="#ffbd59" fill-opacity="1"><g transform="translate(82.227242, 64.616763)"><g><path d="M 1.578125 0.0625 C 1.347656 0.0625 1.171875 0 1.046875 -0.125 C 0.921875 -0.25 0.859375 -0.414062 0.859375 -0.625 C 0.859375 -0.832031 0.921875 -1 1.046875 -1.125 C 1.171875 -1.257812 1.347656 -1.328125 1.578125 -1.328125 C 1.796875 -1.328125 1.96875 -1.265625 2.09375 -1.140625 C 2.226562 -1.015625 2.296875 -0.847656 2.296875 -0.640625 C 2.296875 -0.429688 2.226562 -0.257812 2.09375 -0.125 C 1.96875 0 1.796875 0.0625 1.578125 0.0625 Z M 1.578125 0.0625 "/></g></g></g></svg>