<svg width="75" height="122" viewBox="0 0 75 122" fill="none" xmlns="http://www.w3.org/2000/svg">
<path d="M38.3445 120.953C38.1385 120.947 37.9362 120.919 37.7351 120.865C37.5352 120.812 37.3413 120.735 37.1522 120.635C36.9643 120.536 36.7861 120.415 36.6175 120.273C36.4489 120.129 36.2935 119.968 36.1514 119.79C36.0081 119.61 35.8816 119.415 35.7708 119.205C35.66 118.995 35.5673 118.774 35.4914 118.542C35.4167 118.311 35.3601 118.071 35.324 117.826C35.2879 117.581 35.271 117.333 35.2746 117.083L33.102 65.3734L25.6207 72.0229C24.3537 73.1407 23.4722 73.7493 22.4196 73.7493C22.1365 73.7449 21.8595 73.6937 21.5886 73.5972C21.3176 73.5006 21.0611 73.3616 20.8214 73.1802C20.5805 72.9988 20.365 72.7822 20.1735 72.5291C19.982 72.2775 19.8218 71.998 19.6929 71.6923C18.7789 69.426 20.0025 67.508 20.8949 66.1064L26.418 57.3852L3.44044 54.936C3.2068 54.9126 2.98038 54.8556 2.75878 54.7634C2.5673 54.6859 2.38544 54.5849 2.21081 54.4635C2.03618 54.3406 1.87239 54.1987 1.72065 54.0377C1.5689 53.8768 1.43161 53.6998 1.30876 53.5066C1.18472 53.3135 1.07874 53.1072 0.988411 52.8878C0.898086 52.6683 0.825826 52.4415 0.772835 52.206C0.71864 51.969 0.684918 51.729 0.669262 51.4847C0.65481 51.2418 0.659627 50.9975 0.683714 50.7547C0.707801 50.5118 0.751157 50.2733 0.813782 50.0407C0.972755 49.4921 1.22085 49.0107 1.55686 48.5967C1.89407 48.1812 2.28668 47.8739 2.7359 47.6735C2.96713 47.5769 3.20439 47.5155 3.44766 47.4891L26.1422 45.1541L22.2341 38.408C21.0358 36.3334 19.6785 33.9853 20.6986 31.5961C20.831 31.2903 20.9948 31.0094 21.1911 30.7578C21.3862 30.5061 21.6066 30.2896 21.8511 30.1111C22.0956 29.9326 22.3557 29.798 22.6303 29.7073C22.9061 29.6151 23.1855 29.5712 23.4709 29.5727C24.5946 29.5727 25.6544 30.2062 27.6729 32.0848L33.332 37.3385L35.5962 3.87874C35.6034 3.77779 35.6143 3.67538 35.6287 3.57443C35.66 3.35936 35.707 3.14868 35.7684 2.94239C35.831 2.73757 35.9069 2.54006 35.9972 2.34986C36.0888 2.16113 36.1911 1.98264 36.308 1.81585C36.4248 1.6476 36.5524 1.49544 36.6909 1.35499C36.8294 1.21454 36.9776 1.09164 37.1341 0.983378C37.2907 0.875113 37.4533 0.784405 37.6231 0.711252C37.7929 0.6381 37.9675 0.582505 38.1446 0.547391C38.3228 0.510815 38.5023 0.494722 38.6817 0.496185C39.7813 0.496185 41.6576 1.36523 41.7841 4.62343L43.5255 37.3693L50.8491 31.046C51.2562 30.6232 51.7066 30.2881 52.2016 30.0423C52.6966 29.7951 53.2108 29.6488 53.7443 29.6034C54.0189 29.6093 54.2887 29.6576 54.5536 29.7468C54.8174 29.8375 55.0679 29.9677 55.3051 30.136C55.5412 30.3057 55.7568 30.5076 55.9507 30.7446C56.1446 30.9816 56.3096 31.2435 56.4481 31.5332C57.4055 33.6648 56.3457 35.6692 55.7785 36.746C54.2851 39.5887 52.6869 42.3612 50.9948 45.0488L71.9153 47.5374C72.1586 47.5652 72.3947 47.6311 72.6235 47.732C72.9125 47.8622 73.1799 48.0422 73.4244 48.2704C73.6689 48.5001 73.8796 48.7678 74.0579 49.0736C74.2349 49.3809 74.371 49.7115 74.4661 50.0685C74.5613 50.4255 74.6106 50.7912 74.6143 51.1658L74.5986 51.7247C74.5926 51.9602 74.5673 52.1943 74.5251 52.424C74.483 52.6537 74.4228 52.8775 74.3457 53.0941C74.2674 53.3106 74.1747 53.5154 74.0651 53.71C73.9555 53.9061 73.8314 54.086 73.6941 54.2528C73.5568 54.4196 73.4075 54.5688 73.2461 54.7005C73.0847 54.8322 72.9161 54.9448 72.7367 55.0384C72.5585 55.1306 72.3742 55.2023 72.1851 55.2535C71.9948 55.3033 71.8033 55.3325 71.6094 55.3384L50.4059 57.4993C52.0896 60.3171 53.6901 63.2052 55.1919 66.14C55.7652 67.2563 56.831 69.3412 55.8603 71.4611C55.723 71.7464 55.5569 72.0054 55.3642 72.2394C55.1715 72.4735 54.9571 72.674 54.7222 72.8422C54.4862 73.009 54.2369 73.1378 53.9744 73.227C53.713 73.3162 53.4444 73.3645 53.1723 73.3704C52.605 73.3177 52.0595 73.1524 51.538 72.8759C51.0165 72.5994 50.5468 72.2248 50.1289 71.7537L43.4015 65.5694C42.1598 82.5861 41.4878 99.8339 41.4047 116.894C41.4204 117.131 41.4167 117.367 41.3951 117.603C41.3734 117.84 41.3336 118.071 41.2758 118.298C41.218 118.524 41.1446 118.742 41.053 118.951C40.9615 119.161 40.8543 119.358 40.7327 119.544C40.6098 119.728 40.475 119.898 40.3256 120.052C40.1775 120.207 40.0185 120.343 39.8487 120.46C39.6789 120.577 39.5019 120.675 39.3176 120.751C39.1333 120.829 38.9442 120.884 38.7504 120.916C38.7504 120.916 38.4902 120.949 38.442 120.95C38.4095 120.953 38.3758 120.953 38.3445 120.953Z" fill="#EE7700"/>
<path d="M71.6239 51.1087L45.5898 48.0085C45.5224 48.0012 45.4754 47.9588 45.4501 47.8827C45.4248 47.8052 45.4345 47.7364 45.479 47.6735C48.3225 43.6033 50.9286 39.3195 53.2988 34.8236C54.2731 32.9801 54.0238 32.6948 52.5533 33.9677L41.5902 43.435C41.5228 43.4936 41.4481 43.5258 41.3662 43.5345C41.2831 43.5433 41.2048 43.5258 41.1302 43.4819C41.0567 43.438 40.9965 43.3751 40.9495 43.2917C40.9038 43.2083 40.8785 43.1161 40.8736 43.0152L38.8467 4.79607C38.8299 4.38934 38.7624 4.0704 38.695 4.07625H38.6805C38.589 4.07625 38.5384 4.1099 38.53 4.1772L35.8672 43.536C35.8395 43.9486 35.6878 44.0276 35.4132 43.7701L25.8857 34.9231C22.9074 32.1535 22.4943 32.6275 24.6452 36.3451L31.2907 47.8198C31.4389 48.0656 31.3883 48.2016 31.1402 48.2265L3.69701 51.059C3.65245 51.0765 3.62354 51.1116 3.60909 51.1658C3.59705 51.2097 3.59945 51.2521 3.61632 51.2945C3.63318 51.3355 3.66088 51.3633 3.69701 51.3779L31.3871 54.3216C31.4569 54.3318 31.5184 54.364 31.5738 54.4166C31.6111 54.4503 31.6412 54.4913 31.6641 54.541C31.687 54.5893 31.7014 54.6405 31.7074 54.6976C31.7135 54.7531 31.7099 54.8073 31.6966 54.8614C31.6846 54.9155 31.6641 54.9653 31.6352 55.0092L23.2229 68.3009C21.8343 70.4794 22.0547 70.7588 23.8841 69.1378L35.2337 59.0516C35.2867 59.0048 35.3457 58.9784 35.412 58.9726C35.4589 58.9667 35.5047 58.974 35.5505 58.9916C35.5962 59.0091 35.6372 59.0355 35.6733 59.0735C35.7094 59.1101 35.7384 59.1554 35.76 59.2067C35.7829 59.2579 35.795 59.312 35.7986 59.3705L38.2121 116.859C38.2301 117.216 38.2759 117.39 38.3494 117.379H38.3638C38.4276 117.379 38.4602 117.209 38.4602 116.871C38.5517 97.97 39.3477 79.1157 40.8459 60.3083C40.929 59.3369 41.2915 59.1467 41.9323 59.7392L51.9029 68.9037C53.4565 70.3331 53.7191 70.0434 52.6894 68.0317C50.4939 63.745 48.1165 59.6119 45.5597 55.6339C45.4814 55.5139 45.4357 55.3779 45.4212 55.2272C45.4128 55.1233 45.4212 55.0209 45.4453 54.9214C45.4706 54.8204 45.5103 54.7297 45.5645 54.6493C45.6187 54.5688 45.6838 54.503 45.7596 54.4532C45.8343 54.4035 45.915 54.3742 46.0005 54.3625L71.4288 51.7832C71.5758 51.7715 71.6492 51.71 71.6492 51.5974L71.6637 51.1789C71.6661 51.1424 71.6528 51.1189 71.6239 51.1087Z" fill="#FFD53F"/>
<mask id="mask0_208_360" style="mask-type:luminance" maskUnits="userSpaceOnUse" x="0" y="0" width="75" height="122">
<path d="M0 0H75V121.351H0V0Z" fill="white"/>
</mask>
<g mask="url(#mask0_208_360)">
<path d="M38.3428 121.398C38.114 121.393 37.8887 121.363 37.6647 121.304C37.4407 121.246 37.224 121.162 37.0144 121.053C36.8048 120.941 36.6049 120.808 36.417 120.65C36.2292 120.494 36.0545 120.315 35.8956 120.116C35.7366 119.917 35.5945 119.701 35.4692 119.468C35.3452 119.235 35.2404 118.99 35.1549 118.732C35.0706 118.475 35.0068 118.208 34.9658 117.935C34.9237 117.663 34.9032 117.388 34.9068 117.11L32.7715 66.2221L25.8394 72.3815C24.5134 73.5563 23.5752 74.1942 22.4227 74.1942C22.1047 74.1898 21.794 74.1357 21.4893 74.0274C21.1846 73.9206 20.8968 73.7655 20.627 73.5636C20.3572 73.3603 20.1152 73.1174 19.8996 72.8336C19.6852 72.5497 19.5058 72.2367 19.3612 71.8928C18.3472 69.3779 19.7045 67.2448 20.6029 65.8358L25.7153 57.7598L3.40742 55.3824C3.14487 55.3546 2.88955 55.2888 2.64025 55.1878C2.42709 55.1 2.22235 54.9874 2.02604 54.8513C1.83094 54.7138 1.64788 54.5558 1.47807 54.3758C1.30826 54.1959 1.1541 53.9969 1.01681 53.7804C0.878311 53.5638 0.759082 53.3327 0.657917 53.0869C0.556753 52.8425 0.476063 52.588 0.41705 52.3232C0.356834 52.0598 0.318295 51.7906 0.301434 51.517C0.284573 51.2434 0.290595 50.9713 0.31709 50.6992C0.34479 50.4271 0.392964 50.1608 0.462815 49.9004C0.550731 49.5961 0.663939 49.3064 0.803642 49.0328C0.944549 48.7592 1.10713 48.5076 1.29381 48.2793C1.48048 48.0496 1.68522 47.8477 1.90802 47.6736C2.13202 47.4995 2.36807 47.3591 2.61737 47.2493C2.87751 47.1425 3.14367 47.0738 3.41705 47.046L25.4733 44.7695L21.9349 38.6583C20.7378 36.5881 19.248 34.0146 20.3729 31.3841C20.521 31.0417 20.7041 30.7286 20.9233 30.4463C21.1413 30.1639 21.3869 29.9225 21.6603 29.7235C21.9337 29.5231 22.2252 29.3724 22.5323 29.27C22.8394 29.1676 23.1537 29.1164 23.4716 29.1193C24.6868 29.1193 25.8044 29.7762 27.8976 31.7235L33.0208 36.4799L35.2296 3.84084C35.2368 3.7238 35.2488 3.60675 35.2645 3.4941C35.3006 3.2527 35.3524 3.01568 35.4223 2.78598C35.4909 2.55629 35.5764 2.33537 35.6776 2.12323C35.7788 1.91109 35.8944 1.71211 36.0256 1.52484C36.1557 1.33757 36.2978 1.1664 36.4532 1.00985C36.6085 0.853304 36.7735 0.714315 36.9494 0.592883C37.124 0.47145 37.3071 0.3705 37.4973 0.28857C37.6876 0.205176 37.8815 0.145192 38.0802 0.104226C38.279 0.0632611 38.4801 0.0442414 38.6812 0.0471676C39.9072 0.0471676 42.0148 1.00546 42.1533 4.60016L43.849 36.5413L50.6342 30.6833C51.0714 30.2327 51.5568 29.8757 52.0879 29.6153C52.6202 29.3549 53.1718 29.2027 53.7438 29.1603C54.0521 29.1632 54.3544 29.2159 54.6519 29.3168C54.9482 29.4163 55.23 29.5611 55.4961 29.7513C55.7611 29.9415 56.002 30.1698 56.2187 30.436C56.4355 30.7023 56.6198 30.9993 56.7727 31.3241C57.835 33.6884 56.6547 35.921 56.0887 36.9919C54.7121 39.6049 53.2332 42.1901 51.6844 44.6875L71.951 47.0986C72.2244 47.1294 72.4905 47.2025 72.7494 47.3181C73.0746 47.4644 73.3733 47.6663 73.6479 47.9223C73.9225 48.1798 74.1585 48.4798 74.3584 48.8236C74.5572 49.1674 74.7101 49.5405 74.8161 49.9399C74.9233 50.3407 74.9775 50.7504 74.9811 51.1718L74.9654 51.7467C74.9594 52.0101 74.9317 52.2705 74.8835 52.528C74.8366 52.784 74.7691 53.0342 74.6836 53.2756C74.5969 53.5185 74.4933 53.7482 74.3705 53.9662C74.2488 54.1842 74.1103 54.3861 73.9574 54.5719C73.8032 54.7577 73.637 54.9259 73.4576 55.0737C73.2782 55.2215 73.0879 55.3473 72.8892 55.4526C72.6904 55.5565 72.4845 55.637 72.2725 55.694C72.0606 55.7511 71.8462 55.7847 71.6294 55.792L51.0847 57.8783C52.6274 60.4913 54.1124 63.1863 55.5046 65.9017C56.073 67.018 57.2593 69.3267 56.1838 71.6748C56.0309 71.9953 55.8466 72.2879 55.631 72.5497C55.4154 72.8131 55.1758 73.0384 54.912 73.2257C54.6483 73.4129 54.3689 73.5578 54.075 73.6573C53.7812 73.7568 53.4813 73.8094 53.1754 73.8138C52.566 73.7641 51.9819 73.5929 51.4219 73.3003C50.8606 73.0077 50.3572 72.6097 49.908 72.1064L43.7093 66.4094C42.505 83.1583 41.8534 100.138 41.7727 116.895C41.7884 117.158 41.7836 117.421 41.7595 117.683C41.7342 117.945 41.6896 118.203 41.6246 118.454C41.5596 118.707 41.4765 118.949 41.3729 119.181C41.2705 119.415 41.1513 119.633 41.0152 119.84C40.8779 120.045 40.7274 120.233 40.5612 120.403C40.395 120.574 40.2179 120.725 40.0289 120.854C39.8398 120.984 39.6423 121.091 39.4363 121.175C39.2304 121.26 39.0196 121.32 38.804 121.357C38.7896 121.357 38.5078 121.393 38.4548 121.395L38.3428 121.398ZM33.1051 64.9244C33.1605 64.9244 33.2123 64.939 33.2629 64.9683C33.3954 65.0443 33.4652 65.1716 33.4712 65.3486L35.6439 117.058C35.6403 117.279 35.6535 117.499 35.6848 117.715C35.7161 117.933 35.7643 118.146 35.8305 118.352C35.8956 118.557 35.9775 118.754 36.075 118.94C36.1726 119.127 36.2834 119.3 36.4086 119.459C36.5351 119.619 36.6712 119.764 36.8205 119.889C36.9686 120.017 37.1264 120.125 37.2926 120.216C37.4588 120.305 37.6298 120.374 37.8081 120.422C37.9851 120.47 38.1645 120.498 38.3464 120.502H38.4295C38.4861 120.502 38.7161 120.472 38.7173 120.472C38.8883 120.44 39.0545 120.39 39.2171 120.32C39.3797 120.251 39.5363 120.163 39.6856 120.058C39.8338 119.952 39.9735 119.831 40.1047 119.693C40.2348 119.556 40.3528 119.405 40.46 119.24C40.5672 119.076 40.6599 118.9 40.7394 118.715C40.8201 118.529 40.8839 118.336 40.9345 118.135C40.9839 117.933 41.0176 117.73 41.0357 117.521C41.0537 117.313 41.0549 117.104 41.0405 116.895C41.1236 99.8443 41.7932 82.5628 43.0385 65.5286C43.0529 65.356 43.1252 65.2345 43.2553 65.1628C43.3865 65.0926 43.5094 65.1087 43.6238 65.2126L50.3512 71.3983C50.7378 71.8372 51.1738 72.1869 51.6579 72.4473C52.1409 72.7078 52.6467 72.8658 53.1742 72.9214C53.4138 72.9155 53.6487 72.8731 53.8799 72.7941C54.1099 72.7151 54.3291 72.6024 54.5363 72.4561C54.7434 72.3083 54.9325 72.1328 55.1023 71.9265C55.2733 71.7217 55.4191 71.4934 55.5407 71.2432C56.4042 69.3545 55.4504 67.4847 54.8795 66.3772C53.3837 63.4525 51.7784 60.5543 50.1079 57.7598C50.0224 57.6194 50.0092 57.4687 50.0694 57.3092C50.1296 57.1497 50.2308 57.0634 50.3753 57.0488L71.5752 54.8981C71.7462 54.8937 71.916 54.8689 72.0835 54.8264C72.2509 54.7825 72.4134 54.7211 72.5712 54.6392C72.729 54.5587 72.8795 54.4607 73.0216 54.3451C73.1649 54.2295 73.2962 54.0993 73.4191 53.953C73.5407 53.8067 73.6503 53.6487 73.7478 53.4775C73.8454 53.3063 73.9285 53.1249 73.9983 52.9347C74.067 52.7445 74.1212 52.5485 74.1597 52.3451C74.1983 52.1418 74.2199 51.9369 74.2272 51.7292L74.2428 51.1542C74.2392 50.8265 74.1946 50.5075 74.1115 50.1959C74.0272 49.8843 73.9068 49.5946 73.7514 49.3269C73.5961 49.0591 73.4106 48.8265 73.1963 48.6261C72.9831 48.4271 72.7494 48.2705 72.4965 48.1564C72.2966 48.0672 72.0895 48.0116 71.8775 47.9867L50.9546 45.4995C50.8113 45.4834 50.7101 45.3942 50.6535 45.2333C50.5945 45.0723 50.6101 44.9231 50.6981 44.7841C52.3781 42.1097 53.9823 39.3255 55.4612 36.5106C56.0272 35.4411 56.9739 33.6518 56.12 31.7528C55.9995 31.4997 55.8526 31.2685 55.6828 31.0608C55.513 30.853 55.3239 30.6745 55.1156 30.5267C54.9072 30.3775 54.6868 30.2634 54.4544 30.1829C54.2232 30.1025 53.9859 30.06 53.7438 30.0542C53.2488 30.1025 52.7731 30.2429 52.3143 30.4755C51.8554 30.7067 51.4387 31.0198 51.0618 31.4134L43.7346 37.7352C43.6166 37.8405 43.4925 37.8537 43.36 37.7791C43.2288 37.703 43.1589 37.5772 43.1505 37.4001L41.4114 4.6499C41.2717 1.0435 38.9425 0.941087 38.6776 0.941087C38.5186 0.939624 38.3608 0.952791 38.2043 0.984978C38.0477 1.0157 37.8948 1.06398 37.7454 1.12836C37.5949 1.19127 37.4516 1.27174 37.3131 1.36683C37.1746 1.46047 37.0445 1.5702 36.9229 1.69309C36.8 1.81599 36.6868 1.95059 36.5845 2.09689C36.4821 2.2432 36.3906 2.39974 36.3099 2.56653C36.2304 2.73332 36.1629 2.90742 36.1075 3.08737C36.0521 3.26879 36.0112 3.4546 35.9823 3.64333C35.9702 3.73257 35.9606 3.82621 35.9546 3.91545L33.7001 37.3665C33.688 37.542 33.6146 37.6664 33.4821 37.7381C33.3484 37.8127 33.2244 37.7937 33.1099 37.684L27.4496 32.4302C25.5046 30.6218 24.5014 30.0103 23.4716 30.0103C23.2211 30.0088 22.9731 30.0483 22.731 30.1288C22.4877 30.2093 22.2589 30.3278 22.0433 30.4858C21.8277 30.6423 21.6326 30.8325 21.4604 31.0549C21.2882 31.2773 21.1425 31.5231 21.0256 31.7937C20.1067 33.9415 21.3424 36.0746 22.5359 38.1404L26.4427 44.888C26.5246 45.0284 26.5367 45.1777 26.4765 45.3342C26.4162 45.4908 26.3151 45.5756 26.173 45.5888L3.47847 47.9253C3.2653 47.9487 3.05816 48.0013 2.85583 48.0862C2.46081 48.2647 2.11396 48.5354 1.81769 48.8996C1.52143 49.2654 1.30344 49.6882 1.16133 50.171C1.10593 50.3759 1.06739 50.5865 1.04692 50.8001C1.02524 51.0152 1.02042 51.2288 1.03367 51.4439C1.04692 51.6604 1.07703 51.8711 1.124 52.0788C1.17096 52.2881 1.23359 52.4885 1.31308 52.6816C1.39256 52.8747 1.4865 53.0562 1.59609 53.2273C1.70449 53.397 1.82612 53.5536 1.9598 53.6955C2.09349 53.8374 2.23801 53.9618 2.39216 54.07C2.54511 54.1768 2.70649 54.2661 2.8751 54.3349C3.069 54.4153 3.26771 54.4665 3.47125 54.487L26.4488 56.9332C26.5945 56.9478 26.6957 57.0371 26.7547 57.198C26.8125 57.3604 26.798 57.5111 26.7089 57.6516L21.187 66.3728C20.3042 67.7568 19.2095 69.4774 20.0224 71.492C20.1368 71.7597 20.279 72.004 20.4476 72.2264C20.6162 72.4473 20.8065 72.6375 21.0184 72.797C21.2292 72.9565 21.4544 73.0779 21.6928 73.1642C21.9313 73.2491 22.1758 73.2944 22.4239 73.2988C23.3765 73.2988 24.2063 72.7238 25.4082 71.6588L32.8895 65.0092C32.9534 64.9536 33.0256 64.9244 33.1051 64.9244Z" fill="#FF7403"/>
</g>
<path d="M38.364 117.822C38.2581 117.816 38.1617 117.777 38.075 117.702C37.9028 117.468 37.8269 117.196 37.8462 116.883L35.4327 59.3881L24.1035 69.4963C22.8365 70.614 22.3849 70.8276 22.0838 70.4516C21.7827 70.0756 21.973 69.5299 22.9329 68.0215L31.344 54.7327L3.66592 51.8183C3.49852 51.7817 3.37327 51.6749 3.29138 51.495C3.25765 51.416 3.23959 51.3311 3.23598 51.2419C3.23236 51.1526 3.24441 51.0663 3.27211 50.9829C3.29981 50.901 3.33955 50.8293 3.39374 50.7678C3.44674 50.7064 3.50816 50.661 3.57801 50.6318L30.8297 47.8052L24.3468 36.6012C22.8426 33.9941 22.7414 33.2801 23.0931 32.8748C23.4459 32.4696 24.0276 32.6217 26.1172 34.5632L35.517 43.2902L38.1641 4.13626C38.1713 4.0836 38.1834 4.03239 38.2015 3.98411C38.2183 3.93583 38.2412 3.89194 38.2689 3.85097C38.2954 3.80854 38.3267 3.77343 38.3616 3.74124C38.3978 3.71052 38.4351 3.68418 38.476 3.66516C38.5158 3.64614 38.5579 3.63298 38.6013 3.62713C38.6447 3.62127 38.688 3.62127 38.7302 3.63005C38.7735 3.63737 38.8157 3.65053 38.8554 3.67248C38.8952 3.69296 38.9325 3.7193 38.9674 3.75148C39.0216 3.80854 39.1854 3.98703 39.2179 4.76684L41.2448 42.9815C41.2448 43.0415 41.2677 43.0825 41.3375 43.0825L52.344 33.5976C53.2183 32.8412 53.7555 32.5061 54.0987 32.8968C54.4419 33.2889 54.189 33.9619 53.6085 35.0606C51.2986 39.4424 48.7635 43.6238 46.0043 47.6047L71.6603 50.6596C71.6856 50.664 71.7109 50.6698 71.735 50.6801C71.8193 50.721 71.8879 50.7854 71.9409 50.8746C71.9951 50.9624 72.0252 51.0619 72.0337 51.1716L72.0204 51.6091C72.0168 51.6954 71.9999 51.7773 71.9686 51.8563C71.9373 51.9339 71.8952 52.0012 71.8422 52.0597C71.7892 52.1168 71.7278 52.1592 71.6603 52.187C71.5929 52.2148 71.523 52.225 71.452 52.2177L46.0357 54.8015C45.9598 54.8117 45.8984 54.8541 45.8514 54.9258C45.8032 54.999 45.784 55.0809 45.7912 55.1731C45.7984 55.2404 45.8177 55.3004 45.8514 55.353C48.4166 59.3457 50.8012 63.4919 53.0051 67.7918C53.7037 69.1568 53.8325 69.7333 53.5158 70.0859C53.2003 70.437 52.7378 70.2249 51.684 69.2563L41.7145 60.0904C41.4423 59.8402 41.3327 59.849 41.3219 59.846C41.252 60.0026 41.2159 60.1708 41.2135 60.3493C39.7237 79.0543 38.9216 98.0739 38.8301 116.88C38.8301 117.131 38.8301 117.822 38.364 117.822ZM35.4399 58.5176C35.5314 58.5176 35.6194 58.5366 35.7049 58.5776C35.7892 58.6185 35.8662 58.6756 35.9337 58.7517C36.0011 58.8263 36.0541 58.9141 36.0951 59.0136C36.1348 59.113 36.1589 59.2184 36.1661 59.3296L38.1954 107.65C38.4652 91.8413 39.2324 75.941 40.4801 60.2601C40.5029 60.0143 40.5644 59.2696 41.0353 59.0223C41.2352 58.9594 41.4351 58.9609 41.635 59.0238C41.8349 59.0867 42.0096 59.2052 42.1589 59.3779L52.1284 68.5424C52.4066 68.7999 52.6149 68.9725 52.7703 69.091C52.6872 68.8876 52.5644 68.6228 52.3801 68.2629C50.1918 63.9923 47.8241 59.8724 45.2757 55.9046C45.1541 55.7173 45.083 55.5037 45.0626 55.2667C45.0493 55.1028 45.0614 54.9434 45.0999 54.7854C45.1384 54.6288 45.1999 54.4869 45.2854 54.3596C45.3697 54.2323 45.472 54.1299 45.5913 54.0524C45.7093 53.9748 45.8357 53.9266 45.9706 53.9105L70.5017 51.4204L45.5539 48.4504C45.454 48.4387 45.3636 48.3962 45.283 48.3231C45.2023 48.2499 45.1445 48.1563 45.1071 48.0422C45.0698 47.9281 45.0601 47.811 45.0782 47.6911C45.0963 47.5696 45.1384 47.4643 45.2047 47.3736C48.0349 43.3195 50.6302 39.0533 52.9895 34.5778C53.1497 34.2735 53.2593 34.0453 53.3363 33.8668C53.1954 33.9692 53.01 34.1169 52.7679 34.3276L41.8048 43.795C41.6772 43.9047 41.5363 43.9647 41.3809 43.9779C41.2713 43.9866 41.1653 43.9691 41.0618 43.9267C40.9582 43.8828 40.8654 43.8169 40.7823 43.7291C40.7005 43.6414 40.6354 43.5375 40.5884 43.4175C40.5403 43.2975 40.5138 43.1717 40.5078 43.0386L38.6459 7.92701L36.236 43.5711C36.242 43.7248 36.2131 43.8681 36.1493 44.0027C36.0866 44.1359 35.9987 44.2383 35.8867 44.31C35.7651 44.3626 35.6422 44.3729 35.5158 44.3392C35.3905 44.3056 35.2809 44.2339 35.1894 44.1227L25.6619 35.2757C25.0622 34.6788 24.4214 34.155 23.7398 33.7058C24.0806 34.5471 24.4829 35.3415 24.9465 36.0906L31.5933 47.5652C31.6715 47.6618 31.7209 47.7774 31.7402 47.9105C31.7595 48.0451 31.745 48.1739 31.698 48.2968C31.6499 48.4211 31.5776 48.5162 31.4801 48.585C31.3837 48.6523 31.2789 48.6801 31.1669 48.6684L6.41542 51.2228L31.421 53.8768C31.562 53.8944 31.6884 53.9558 31.8004 54.0612C31.963 54.2133 32.0545 54.4123 32.0762 54.6595C32.0979 54.898 32.0461 55.1072 31.9208 55.2916L23.5158 68.5687C23.3375 68.8481 23.1978 69.0764 23.0882 69.268C23.2448 69.1393 23.4375 68.9798 23.6736 68.7735L35.0208 58.6858C35.1292 58.5922 35.2508 58.5366 35.3833 58.522C35.4002 58.5205 35.4206 58.5176 35.4399 58.5176Z" fill="#FF7403"/>
</svg>
