<svg xmlns="http://www.w3.org/2000/svg" xmlns:xlink="http://www.w3.org/1999/xlink" width="157" zoomAndPan="magnify" viewBox="0 0 117.75 115.499997" height="154" preserveAspectRatio="xMidYMid meet" version="1.0"><defs><g/></defs><path fill="#ec3341" d="M 95.929688 19.886719 L 111.636719 19.886719 C 114.746094 19.886719 116.664062 23.289062 115.0625 25.941406 L 109.140625 35.863281 C 108.449219 37.015625 108.085938 38.335938 108.085938 39.683594 C 108.085938 41.027344 108.449219 42.351562 109.140625 43.503906 L 115.0625 53.425781 C 116.664062 56.078125 114.746094 59.480469 111.636719 59.480469 L 80.160156 59.480469 C 77.980469 59.480469 76.214844 57.710938 76.214844 55.519531 L 76.214844 43.644531 L 95.929688 19.886719 " fill-opacity="1" fill-rule="nonzero"/><path fill="#b52a36" d="M 94.566406 42.675781 L 77.363281 58.296875 C 76.648438 57.578125 76.214844 56.613281 76.214844 55.519531 L 76.214844 43.644531 L 77.855469 41.664062 L 91.984375 41.664062 L 94.566406 42.675781 " fill-opacity="1" fill-rule="nonzero"/><path fill="#f03e51" d="M 46.648438 4.046875 L 91.984375 4.046875 C 94.164062 4.046875 95.929688 5.820312 95.929688 8.007812 L 95.929688 39.683594 C 95.929688 41.871094 94.164062 43.644531 91.984375 43.644531 L 46.648438 43.644531 L 46.648438 4.046875 " fill-opacity="1" fill-rule="nonzero"/><path fill="#232846" d="M 94.210938 86.042969 L 94.234375 86.042969 L 114.953125 110.21875 C 116.523438 112.058594 115.222656 114.914062 112.78125 114.914062 L 84.53125 114.914062 L 66.359375 87.195312 L 68.332031 85.21875 L 91.984375 85.21875 L 94.210938 86.042969 " fill-opacity="1" fill-rule="nonzero"/><path fill="#d2f0ea" d="M 94.210938 86.042969 L 88.890625 90.523438 C 87.925781 91.335938 86.542969 91.375 85.554688 90.625 L 81.777344 87.769531 C 80.8125 87.035156 79.503906 87.035156 78.542969 87.769531 L 74.761719 90.625 C 73.773438 91.375 72.390625 91.335938 71.425781 90.523438 L 65.960938 86.570312 L 78.148438 72.347656 C 79.273438 71.027344 81.320312 71.027344 82.460938 72.347656 L 94.210938 86.042969 " fill-opacity="1" fill-rule="nonzero"/><path fill="#803c29" d="M 40.734375 64.175781 L 40.734375 4.046875 C 40.734375 1.859375 42.5 0.0898438 44.675781 0.0898438 C 46.855469 0.0898438 48.621094 1.859375 48.621094 4.046875 L 48.621094 64.175781 L 40.734375 64.175781 " fill-opacity="1" fill-rule="nonzero"/><path fill="#3e447d" d="M 61.179688 78.820312 L 87.195312 109.152344 C 89.144531 111.410156 87.527344 114.914062 84.53125 114.914062 L 4.824219 114.914062 C 1.828125 114.914062 0.210938 111.410156 2.160156 109.152344 L 28.175781 78.820312 L 61.179688 78.820312 " fill-opacity="1" fill-rule="nonzero"/><path fill="#d2f0ea" d="M 61.179688 78.820312 L 54.371094 84.527344 C 53.308594 85.410156 51.769531 85.457031 50.667969 84.621094 L 46.472656 81.453125 C 45.410156 80.648438 43.945312 80.648438 42.882812 81.453125 L 38.6875 84.621094 C 37.585938 85.457031 36.046875 85.410156 34.984375 84.527344 L 28.175781 78.820312 L 42.019531 62.691406 C 43.414062 61.042969 45.941406 61.042969 47.335938 62.691406 L 61.179688 78.820312 " fill-opacity="1" fill-rule="nonzero"/><path fill="#ffffff" d="M 62.417969 29.785156 C 61.910156 29.785156 61.410156 29.589844 61.023438 29.203125 L 57.082031 25.246094 C 56.3125 24.472656 56.3125 23.21875 57.082031 22.445312 L 61.023438 18.484375 C 61.792969 17.714844 63.042969 17.714844 63.8125 18.484375 C 64.582031 19.257812 64.582031 20.511719 63.8125 21.285156 L 61.261719 23.84375 L 63.8125 26.40625 C 64.582031 27.179688 64.582031 28.429688 63.8125 29.203125 C 63.425781 29.589844 62.925781 29.785156 62.417969 29.785156 " fill-opacity="1" fill-rule="nonzero"/><path fill="#ffffff" d="M 82.128906 29.785156 C 81.621094 29.785156 81.121094 29.589844 80.734375 29.203125 C 79.964844 28.429688 79.964844 27.179688 80.734375 26.40625 L 83.285156 23.84375 L 80.734375 21.285156 C 79.964844 20.511719 79.964844 19.257812 80.734375 18.484375 C 81.507812 17.714844 82.753906 17.714844 83.523438 18.484375 L 87.464844 22.445312 C 88.234375 23.21875 88.234375 24.472656 87.464844 25.246094 L 83.523438 29.203125 C 83.136719 29.589844 82.636719 29.785156 82.128906 29.785156 " fill-opacity="1" fill-rule="nonzero"/><path fill="#ffffff" d="M 70.300781 31.765625 C 70.09375 31.765625 69.886719 31.734375 69.679688 31.664062 C 68.648438 31.316406 68.09375 30.195312 68.429688 29.160156 L 72.375 17.28125 C 72.71875 16.242188 73.828125 15.679688 74.867188 16.027344 C 75.902344 16.375 76.453125 17.496094 76.117188 18.53125 L 72.171875 30.410156 C 71.898438 31.238281 71.125 31.765625 70.300781 31.765625 " fill-opacity="1" fill-rule="nonzero"/><g fill="#ffffff" fill-opacity="1"><g transform="translate(71.358177, 23.777815)"><g><path d="M 1.5625 0.0625 C 1.34375 0.0625 1.171875 0 1.046875 -0.125 C 0.921875 -0.25 0.859375 -0.414062 0.859375 -0.625 C 0.859375 -0.820312 0.921875 -0.984375 1.046875 -1.109375 C 1.171875 -1.242188 1.34375 -1.3125 1.5625 -1.3125 C 1.789062 -1.3125 1.96875 -1.25 2.09375 -1.125 C 2.226562 -1.007812 2.296875 -0.847656 2.296875 -0.640625 C 2.296875 -0.429688 2.226562 -0.257812 2.09375 -0.125 C 1.96875 0 1.789062 0.0625 1.5625 0.0625 Z M 1.5625 0.0625 "/></g></g></g></svg>