<svg xmlns="http://www.w3.org/2000/svg" xmlns:xlink="http://www.w3.org/1999/xlink" width="154" zoomAndPan="magnify" viewBox="0 0 115.5 120.750001" height="161" preserveAspectRatio="xMidYMid meet" version="1.0"><defs><g/><clipPath id="7a94ce807a"><path d="M 0 5.347656 L 115.003906 5.347656 L 115.003906 120.351562 L 0 120.351562 Z M 0 5.347656 " clip-rule="nonzero"/></clipPath></defs><path fill="#325a66" d="M 86.25 32.183594 L 111.167969 32.183594 C 112.222656 32.183594 113.085938 33.042969 113.085938 34.097656 L 113.085938 64.765625 C 113.085938 65.824219 112.222656 66.683594 111.167969 66.683594 L 67.085938 66.683594 C 66.027344 66.683594 65.167969 65.824219 65.167969 64.765625 L 65.167969 53.265625 L 86.25 32.183594 " fill-opacity="1" fill-rule="nonzero"/><path fill="#d3d5d2" d="M 40.25 110.765625 L 28.75 110.765625 L 28.75 13.015625 C 28.75 9.839844 31.324219 7.265625 34.5 7.265625 C 37.675781 7.265625 40.25 9.839844 40.25 13.015625 L 40.25 110.765625 " fill-opacity="1" fill-rule="nonzero"/><path fill="#a5adb6" d="M 67.085938 118.433594 L 1.917969 118.433594 C 1.917969 112.085938 7.066406 106.933594 13.417969 106.933594 L 55.585938 106.933594 C 61.933594 106.933594 67.085938 112.085938 67.085938 118.433594 " fill-opacity="1" fill-rule="nonzero"/><path fill="#3c6f7e" d="M 84.335938 53.265625 L 40.25 53.265625 L 40.25 18.765625 L 84.335938 18.765625 C 85.390625 18.765625 86.25 19.625 86.25 20.683594 L 86.25 51.351562 C 86.25 52.40625 85.390625 53.265625 84.335938 53.265625 " fill-opacity="1" fill-rule="nonzero"/><path fill="#375a5f" d="M 84.910156 53.265625 L 65.835938 66.226562 C 65.4375 65.859375 65.167969 65.34375 65.167969 64.765625 L 65.167969 53.265625 L 84.910156 53.265625 " fill-opacity="1" fill-rule="nonzero"/><g clip-path="url(#7a94ce807a)"><path fill="#2b2c2d" d="M 111.167969 64.765625 L 71.390625 64.765625 L 86.410156 54.5625 C 87.464844 53.878906 88.167969 52.699219 88.167969 51.351562 L 88.167969 34.097656 L 111.167969 34.097656 Z M 78.675781 55.183594 L 67.085938 63.058594 L 67.085938 55.183594 Z M 42.167969 20.683594 L 84.335938 20.683594 L 84.335938 32.175781 C 84.335938 32.175781 84.335938 32.183594 84.335938 32.183594 C 84.335938 32.183594 84.335938 32.191406 84.335938 32.191406 L 84.34375 51.34375 C 84.335938 51.34375 84.328125 51.351562 84.328125 51.351562 L 42.167969 51.351562 Z M 64.972656 116.519531 L 4.027344 116.519531 C 4.917969 112.144531 8.789062 108.851562 13.417969 108.851562 L 55.585938 108.851562 C 60.210938 108.851562 64.082031 112.144531 64.972656 116.519531 Z M 111.167969 30.265625 L 88.167969 30.265625 L 88.167969 20.683594 C 88.167969 18.570312 86.445312 16.847656 84.335938 16.847656 L 42.167969 16.847656 L 42.167969 13.015625 C 42.167969 8.785156 38.730469 5.347656 34.5 5.347656 C 30.269531 5.347656 26.832031 8.785156 26.832031 13.015625 L 26.832031 97.351562 C 26.832031 98.40625 27.695312 99.265625 28.75 99.265625 C 29.804688 99.265625 30.667969 98.40625 30.667969 97.351562 L 30.667969 13.015625 C 30.667969 10.90625 32.390625 9.183594 34.5 9.183594 C 36.613281 9.183594 38.335938 10.90625 38.335938 13.015625 L 38.335938 105.015625 L 13.417969 105.015625 C 6.019531 105.015625 0 111.035156 0 118.433594 C 0 119.488281 0.859375 120.351562 1.917969 120.351562 L 67.085938 120.351562 C 68.140625 120.351562 69 119.488281 69 118.433594 C 69 111.035156 62.980469 105.015625 55.585938 105.015625 L 42.167969 105.015625 L 42.167969 55.183594 L 63.25 55.183594 L 63.25 64.765625 C 63.25 65.882812 63.738281 66.871094 64.492188 67.574219 C 64.570312 67.648438 64.652344 67.714844 64.742188 67.777344 C 65.390625 68.285156 66.199219 68.601562 67.085938 68.601562 L 111.167969 68.601562 C 113.28125 68.601562 115.003906 66.878906 115.003906 64.765625 L 115.003906 34.097656 C 115.003906 31.988281 113.28125 30.265625 111.167969 30.265625 " fill-opacity="1" fill-rule="nonzero"/></g><path fill="#2b2c2d" d="M 65.773438 28.445312 C 64.761719 28.109375 63.683594 28.65625 63.347656 29.660156 L 59.515625 41.160156 C 59.1875 42.164062 59.726562 43.25 60.726562 43.585938 C 60.929688 43.652344 61.132812 43.683594 61.335938 43.683594 C 62.136719 43.683594 62.882812 43.175781 63.152344 42.371094 L 66.988281 30.871094 C 67.316406 29.871094 66.777344 28.785156 65.773438 28.445312 " fill-opacity="1" fill-rule="nonzero"/><path fill="#2b2c2d" d="M 55.023438 28.910156 C 54.273438 28.164062 53.0625 28.164062 52.3125 28.910156 L 46.5625 34.660156 C 45.8125 35.410156 45.8125 36.621094 46.5625 37.371094 L 52.3125 43.121094 C 52.6875 43.496094 53.171875 43.683594 53.667969 43.683594 C 54.160156 43.683594 54.648438 43.496094 55.023438 43.121094 C 55.773438 42.371094 55.773438 41.160156 55.023438 40.410156 L 50.628906 36.015625 L 55.023438 31.621094 C 55.773438 30.871094 55.773438 29.660156 55.023438 28.910156 " fill-opacity="1" fill-rule="nonzero"/><path fill="#2b2c2d" d="M 71.480469 43.121094 C 71.855469 43.496094 72.339844 43.683594 72.835938 43.683594 C 73.328125 43.683594 73.816406 43.496094 74.191406 43.121094 L 79.941406 37.371094 C 80.6875 36.621094 80.6875 35.410156 79.941406 34.660156 L 74.191406 28.910156 C 73.441406 28.164062 72.226562 28.164062 71.480469 28.910156 C 70.730469 29.660156 70.730469 30.871094 71.480469 31.621094 L 75.875 36.015625 L 71.480469 40.410156 C 70.730469 41.160156 70.730469 42.371094 71.480469 43.121094 " fill-opacity="1" fill-rule="nonzero"/><g fill="#d9d9d9" fill-opacity="1"><g transform="translate(32.845316, 14.557723)"><g><path d="M 1.5625 0.0625 C 1.34375 0.0625 1.171875 0 1.046875 -0.125 C 0.921875 -0.25 0.859375 -0.414062 0.859375 -0.625 C 0.859375 -0.820312 0.921875 -0.984375 1.046875 -1.109375 C 1.171875 -1.242188 1.34375 -1.3125 1.5625 -1.3125 C 1.789062 -1.3125 1.96875 -1.25 2.09375 -1.125 C 2.226562 -1.007812 2.296875 -0.847656 2.296875 -0.640625 C 2.296875 -0.429688 2.226562 -0.257812 2.09375 -0.125 C 1.96875 0 1.789062 0.0625 1.5625 0.0625 Z M 1.5625 0.0625 "/></g></g></g></svg>