<svg xmlns="http://www.w3.org/2000/svg" xmlns:xlink="http://www.w3.org/1999/xlink" width="47" zoomAndPan="magnify" viewBox="0 0 35.25 173.249993" height="231" preserveAspectRatio="xMidYMid meet" version="1.0"><defs><g/><clipPath id="f591a45440"><path d="M 14 1.4375 L 28 1.4375 L 28 14 L 14 14 Z M 14 1.4375 " clip-rule="nonzero"/></clipPath><clipPath id="a366ad7176"><path d="M 9 50 L 34.46875 50 L 34.46875 124 L 9 124 Z M 9 50 " clip-rule="nonzero"/></clipPath><clipPath id="c6ce04f4b5"><path d="M 17 74 L 34.46875 74 L 34.46875 90 L 17 90 Z M 17 74 " clip-rule="nonzero"/></clipPath><clipPath id="b425255d59"><path d="M 21 92 L 34.46875 92 L 34.46875 105 L 21 105 Z M 21 92 " clip-rule="nonzero"/></clipPath><clipPath id="94e58b1e9f"><path d="M 16 106 L 34.46875 106 L 34.46875 123 L 16 123 Z M 16 106 " clip-rule="nonzero"/></clipPath><clipPath id="79a92b5a4d"><path d="M 10 111 L 34 111 L 34 170.34375 L 10 170.34375 Z M 10 111 " clip-rule="nonzero"/></clipPath><clipPath id="8434d239ed"><path d="M 13 157 L 31 157 L 31 170.34375 L 13 170.34375 Z M 13 157 " clip-rule="nonzero"/></clipPath><clipPath id="fa2ccbcc6c"><path d="M 18 167 L 21 167 L 21 170.34375 L 18 170.34375 Z M 18 167 " clip-rule="nonzero"/></clipPath></defs><g fill="#fc4242" fill-opacity="1"><g transform="translate(18.838446, 117.455375)"><g><path d="M -0.0625 1.546875 C -0.0625 1.328125 0 1.15625 0.125 1.03125 C 0.25 0.90625 0.410156 0.84375 0.609375 0.84375 C 0.804688 0.84375 0.96875 0.90625 1.09375 1.03125 C 1.226562 1.15625 1.296875 1.328125 1.296875 1.546875 C 1.296875 1.765625 1.234375 1.9375 1.109375 2.0625 C 0.984375 2.1875 0.820312 2.25 0.625 2.25 C 0.425781 2.25 0.257812 2.1875 0.125 2.0625 C 0 1.9375 -0.0625 1.765625 -0.0625 1.546875 Z M -0.0625 1.546875 "/></g></g></g><g clip-path="url(#f591a45440)"><path fill="#fc4242" d="M 22.386719 13.542969 L 14.996094 7.347656 L 14.996094 6.054688 L 15.078125 4.757812 L 15.160156 3.421875 C 15.199219 2.976562 15.242188 2.53125 15.324219 2.085938 L 15.363281 1.882812 L 15.566406 1.84375 C 16.011719 1.804688 16.460938 1.722656 16.90625 1.679688 L 18.246094 1.558594 L 19.546875 1.480469 L 20.84375 1.4375 L 27.019531 8.847656 C 27.019531 8.847656 26.894531 8.886719 26.734375 8.929688 C 26.53125 9.007812 26.285156 9.089844 26.003906 9.210938 C 25.433594 9.496094 24.664062 9.898438 24.09375 10.507812 C 23.484375 11.074219 23.078125 11.84375 22.792969 12.410156 C 22.632812 12.695312 22.550781 12.976562 22.46875 13.140625 C 22.429688 13.421875 22.386719 13.542969 22.386719 13.542969 Z M 22.386719 13.542969 " fill-opacity="1" fill-rule="nonzero"/></g><path stroke-linecap="butt" transform="matrix(0, 0.404857, -0.406084, 0, 124.599867, -13.581634)" fill="none" stroke-linejoin="miter" d="M 54.50325 238.304545 C 67.702363 255.003662 87.404547 266.902746 108.602245 272.202984 C 129.799943 277.599415 152.801905 276.397002 172.397956 268.09554 " stroke="#723b2f" stroke-width="1.07" stroke-opacity="1" stroke-miterlimit="10"/><path stroke-linecap="butt" transform="matrix(0, 0.404857, -0.406084, 0, 124.599867, -13.581634)" fill="none" stroke-linejoin="miter" d="M 73.896683 256.398462 L 64.402585 270.000163 " stroke="#723b2f" stroke-width="1.07" stroke-opacity="1" stroke-miterlimit="10"/><path fill="#fc4242" d="M 13.578125 12.976562 C 12.925781 12.570312 12.765625 11.761719 13.128906 11.195312 C 13.535156 10.628906 14.347656 10.546875 14.957031 10.992188 C 15.566406 11.4375 15.730469 12.25 15.363281 12.773438 C 14.996094 13.300781 14.183594 13.382812 13.578125 12.976562 Z M 13.578125 12.976562 " fill-opacity="1" fill-rule="nonzero"/><path fill="#fbb03b" d="M 15.566406 25.121094 L 6.550781 21.640625 L 6.144531 20.425781 L 5.78125 19.171875 C 5.535156 18.320312 5.332031 17.472656 5.128906 16.621094 L 5.089844 16.417969 L 5.25 16.296875 C 5.65625 16.09375 6.0625 15.890625 6.46875 15.730469 L 7.6875 15.203125 L 8.90625 14.71875 L 10.125 14.273438 L 18.449219 19.128906 C 18.449219 19.128906 18.367188 19.210938 18.207031 19.332031 C 18.042969 19.453125 17.839844 19.65625 17.597656 19.859375 C 17.148438 20.34375 16.539062 20.992188 16.214844 21.761719 C 15.851562 22.492188 15.6875 23.382812 15.605469 24.03125 C 15.566406 24.351562 15.566406 24.636719 15.566406 24.839844 C 15.566406 25 15.566406 25.121094 15.566406 25.121094 Z M 15.566406 25.121094 " fill-opacity="1" fill-rule="nonzero"/><path stroke-linecap="butt" transform="matrix(0, 0.404857, -0.406084, 0, 124.599867, -13.581634)" fill="none" stroke-linejoin="miter" d="M 103.797305 270.798565 L 99.002013 286.69928 " stroke="#723b2f" stroke-width="1.07" stroke-opacity="1" stroke-miterlimit="10"/><path fill="#fbb03b" d="M 6.996094 27.390625 C 6.265625 27.1875 5.820312 26.5 6.023438 25.851562 C 6.226562 25.203125 6.957031 24.878906 7.6875 25.082031 C 8.378906 25.324219 8.824219 26.011719 8.621094 26.621094 C 8.460938 27.269531 7.730469 27.59375 6.996094 27.390625 Z M 6.996094 27.390625 " fill-opacity="1" fill-rule="nonzero"/><path fill="#0dbcb7" d="M 12.601562 38.402344 L 2.976562 37.792969 L 2.207031 36.742188 L 0.746094 34.554688 C 0.5 34.191406 0.296875 33.785156 0.0546875 33.421875 L -0.0273438 33.21875 L 0.09375 33.058594 C 0.746094 32.449219 1.394531 31.84375 2.042969 31.277344 L 3.019531 30.425781 L 4.035156 29.617188 L 13.453125 31.679688 C 13.453125 31.679688 13.375 31.761719 13.292969 31.964844 C 13.171875 32.125 13.007812 32.371094 12.886719 32.695312 C 12.601562 33.300781 12.238281 34.109375 12.113281 34.921875 C 11.992188 35.730469 12.113281 36.621094 12.238281 37.269531 C 12.277344 37.59375 12.398438 37.875 12.4375 38.078125 C 12.5625 38.28125 12.601562 38.402344 12.601562 38.402344 Z M 12.601562 38.402344 " fill-opacity="1" fill-rule="nonzero"/><path stroke-linecap="butt" transform="matrix(0, 0.404857, -0.406084, 0, 124.599867, -13.581634)" fill="none" stroke-linejoin="miter" d="M 136.804735 275.502406 L 137.103838 292.095712 " stroke="#723b2f" stroke-width="1.07" stroke-opacity="1" stroke-miterlimit="10"/><path fill="#0dbcb7" d="M 5.171875 43.140625 C 4.398438 43.179688 3.789062 42.652344 3.789062 41.964844 C 3.789062 41.277344 4.398438 40.75 5.128906 40.75 C 5.859375 40.75 6.511719 41.277344 6.511719 41.925781 C 6.511719 42.570312 5.902344 43.097656 5.171875 43.140625 Z M 5.171875 43.140625 " fill-opacity="1" fill-rule="nonzero"/><path fill="#fa3eff" d="M 13.941406 51.722656 L 4.640625 54.273438 L 3.585938 53.503906 L 2.570312 52.695312 L 1.515625 51.84375 C 1.191406 51.558594 0.867188 51.277344 0.5 50.953125 L 0.339844 50.789062 L 0.417969 50.589844 C 0.621094 50.183594 0.824219 49.820312 1.027344 49.414062 L 2.410156 47.148438 L 3.140625 46.054688 L 12.765625 45.082031 C 12.765625 45.082031 12.722656 45.203125 12.683594 45.40625 C 12.640625 45.609375 12.5625 45.890625 12.519531 46.214844 C 12.4375 46.863281 12.359375 47.753906 12.519531 48.5625 C 12.640625 49.375 13.046875 50.144531 13.375 50.75 C 13.535156 51.035156 13.699219 51.277344 13.820312 51.4375 C 13.859375 51.640625 13.941406 51.722656 13.941406 51.722656 Z M 13.941406 51.722656 " fill-opacity="1" fill-rule="nonzero"/><path stroke-linecap="butt" transform="matrix(0, 0.404857, -0.406084, 0, 124.599867, -13.581634)" fill="none" stroke-linejoin="miter" d="M 169.098178 269.499959 L 174.896911 284.996663 " stroke="#723b2f" stroke-width="1.07" stroke-opacity="1" stroke-miterlimit="10"/><path fill="#fa3eff" d="M 8.460938 58.644531 C 7.769531 58.929688 6.996094 58.644531 6.753906 57.996094 C 6.511719 57.347656 6.917969 56.621094 7.605469 56.378906 C 8.296875 56.132812 9.070312 56.417969 9.3125 57.023438 C 9.515625 57.671875 9.148438 58.363281 8.460938 58.644531 Z M 8.460938 58.644531 " fill-opacity="1" fill-rule="nonzero"/><path fill="#fc4242" d="M 19.140625 63.300781 L 10.855469 68.238281 C 9.273438 67.714844 7.648438 67.105469 6.023438 66.457031 L 5.859375 66.378906 L 5.902344 66.175781 C 6.226562 64.476562 6.632812 62.773438 7.078125 61.113281 L 15.890625 57.148438 C 15.890625 57.148438 15.890625 57.269531 15.890625 57.472656 C 15.890625 57.671875 15.933594 57.957031 15.972656 58.28125 C 16.09375 58.929688 16.296875 59.820312 16.703125 60.589844 C 17.554688 62.085938 19.140625 63.300781 19.140625 63.300781 Z M 19.140625 63.300781 " fill-opacity="1" fill-rule="nonzero"/><g clip-path="url(#a366ad7176)"><path stroke-linecap="butt" transform="matrix(0, 0.404857, -0.406084, 0, 124.599867, -13.581634)" fill="none" stroke-linejoin="miter" d="M 172.504089 268.09554 C 177.395866 266.104343 182.403424 263.401318 187.497818 260.496287 C 192.601861 257.600875 197.696255 254.301453 203.002916 250.896218 C 213.596941 244.20118 224.798819 236.803933 237.997932 231.00349 C 244.597488 228.09846 251.79525 225.703252 259.504381 224.298833 C 267.09773 222.904034 275.202448 222.500023 283.104549 223.500431 C 287.002532 224.000635 290.900516 224.702844 294.595881 225.703252 C 298.300896 226.70366 301.899776 227.896454 305.296039 229.20468 C 312.098214 231.898086 318.398667 235.101315 324.303533 238.400738 " stroke="#723b2f" stroke-width="1.07" stroke-opacity="1" stroke-miterlimit="10"/></g><path stroke-linecap="butt" transform="matrix(0, 0.404857, -0.406084, 0, 124.599867, -13.581634)" fill="none" stroke-linejoin="miter" d="M 197.599771 254.301453 L 206.399179 268.403358 " stroke="#723b2f" stroke-width="1.07" stroke-opacity="1" stroke-miterlimit="10"/><path fill="#fc4242" d="M 15.484375 71.4375 C 14.835938 71.84375 14.0625 71.722656 13.699219 71.15625 C 13.332031 70.589844 13.578125 69.820312 14.226562 69.414062 C 14.875 69.007812 15.648438 69.128906 16.011719 69.699219 C 16.378906 70.265625 16.132812 71.035156 15.484375 71.4375 Z M 15.484375 71.4375 " fill-opacity="1" fill-rule="nonzero"/><path fill="#fbb03b" d="M 27.425781 76.660156 L 19.019531 81.4375 C 17.476562 80.953125 15.933594 80.507812 14.347656 80.0625 L 14.183594 80.019531 L 14.226562 79.859375 C 14.550781 78.28125 14.835938 76.660156 15.078125 75.042969 L 23.242188 69.820312 C 23.242188 69.820312 23.6875 71.882812 24.703125 73.542969 C 25.230469 74.351562 25.878906 75.121094 26.449219 75.730469 C 27.019531 76.296875 27.425781 76.660156 27.425781 76.660156 Z M 27.425781 76.660156 " fill-opacity="1" fill-rule="nonzero"/><g clip-path="url(#c6ce04f4b5)"><path stroke-linecap="butt" transform="matrix(0, 0.404857, -0.406084, 0, 124.599867, -13.581634)" fill="none" stroke-linejoin="miter" d="M 232.102714 233.802709 L 239.396961 248.703016 " stroke="#723b2f" stroke-width="1.07" stroke-opacity="1" stroke-miterlimit="10"/></g><path fill="#fbb03b" d="M 23.324219 84.757812 C 22.632812 85.082031 21.859375 84.878906 21.617188 84.3125 C 21.332031 83.746094 21.65625 83.015625 22.308594 82.691406 C 22.957031 82.328125 23.769531 82.53125 24.054688 83.136719 C 24.335938 83.707031 24.011719 84.433594 23.324219 84.757812 Z M 23.324219 84.757812 " fill-opacity="1" fill-rule="nonzero"/><path fill="#0dbcb7" d="M 33.597656 93.503906 L 24.011719 94.675781 C 22.792969 93.746094 21.496094 92.976562 20.195312 92.289062 L 20.03125 92.207031 L 20.113281 92.046875 C 20.925781 90.832031 21.617188 89.453125 22.265625 87.996094 L 31.28125 84.515625 C 31.28125 84.515625 31.324219 85.121094 31.445312 85.972656 C 31.484375 86.417969 31.566406 86.902344 31.648438 87.429688 C 31.726562 87.957031 31.851562 88.523438 32.011719 89.050781 C 32.132812 89.574219 32.335938 90.144531 32.5 90.628906 C 32.664062 91.15625 32.867188 91.640625 33.027344 92.046875 C 33.351562 92.9375 33.597656 93.503906 33.597656 93.503906 Z M 33.597656 93.503906 " fill-opacity="1" fill-rule="nonzero"/><g clip-path="url(#b425255d59)"><path stroke-linecap="butt" transform="matrix(0, 0.404857, -0.406084, 0, 124.599867, -13.581634)" fill="none" stroke-linejoin="miter" d="M 276.697962 223.000227 L 276.099756 239.603151 " stroke="#723b2f" stroke-width="1.07" stroke-opacity="1" stroke-miterlimit="10"/></g><path fill="#0dbcb7" d="M 26.328125 99.292969 C 25.554688 99.210938 24.988281 98.683594 25.027344 98.117188 C 25.027344 97.550781 25.636719 97.066406 26.410156 97.023438 C 27.179688 97.023438 27.789062 97.550781 27.75 98.199219 C 27.75 98.886719 27.097656 99.375 26.328125 99.292969 Z M 26.328125 99.292969 " fill-opacity="1" fill-rule="nonzero"/><path fill="#fa3eff" d="M 30.429688 111.964844 L 21.617188 108.039062 C 21.089844 106.539062 20.480469 105.121094 19.75 103.828125 L 19.667969 103.664062 L 19.832031 103.582031 C 21.171875 102.976562 22.511719 102.289062 23.808594 101.4375 L 33.273438 103.261719 C 33.273438 103.261719 32.945312 103.828125 32.582031 104.636719 C 32.378906 105.042969 32.175781 105.488281 31.972656 106.011719 C 31.726562 106.5 31.523438 107.023438 31.363281 107.550781 C 30.996094 108.605469 30.792969 109.695312 30.632812 110.546875 C 30.550781 110.953125 30.511719 111.316406 30.46875 111.558594 C 30.429688 111.84375 30.429688 111.964844 30.429688 111.964844 Z M 30.429688 111.964844 " fill-opacity="1" fill-rule="nonzero"/><g clip-path="url(#94e58b1e9f)"><path stroke-linecap="butt" transform="matrix(0, 0.404857, -0.406084, 0, 124.599867, -13.581634)" fill="none" stroke-linejoin="miter" d="M 320.096799 236.303729 L 312.300832 250.896218 " stroke="#723b2f" stroke-width="1.07" stroke-opacity="1" stroke-miterlimit="10"/></g><path fill="#fa3eff" d="M 21.375 113.460938 C 20.722656 113.097656 20.4375 112.371094 20.722656 111.800781 C 21.007812 111.234375 21.78125 111.074219 22.46875 111.4375 C 23.160156 111.761719 23.445312 112.53125 23.121094 113.097656 C 22.835938 113.625 22.023438 113.828125 21.375 113.460938 Z M 21.375 113.460938 " fill-opacity="1" fill-rule="nonzero"/><path fill="#fc4242" d="M 22.996094 125.203125 L 14.714844 120.222656 C 14.429688 118.605469 14.144531 116.945312 13.820312 115.324219 L 13.78125 115.121094 L 13.941406 115.042969 C 15.527344 114.554688 17.070312 114.109375 18.613281 113.625 L 26.976562 118.441406 C 26.976562 118.441406 26.570312 118.804688 26.003906 119.375 C 25.476562 119.941406 24.785156 120.667969 24.296875 121.519531 C 23.808594 122.328125 23.445312 123.261719 23.242188 123.949219 C 23.078125 124.71875 22.996094 125.203125 22.996094 125.203125 Z M 22.996094 125.203125 " fill-opacity="1" fill-rule="nonzero"/><g clip-path="url(#79a92b5a4d)"><path stroke-linecap="butt" transform="matrix(0, 0.404857, -0.406084, 0, 124.599867, -13.581634)" fill="none" stroke-linejoin="miter" d="M 324.1974 238.602743 C 335.900999 245.201588 346.195921 252.098631 356.297874 257.39887 C 361.295783 259.996083 366.303341 262.198904 371.098633 263.795709 L 372.902898 264.401726 C 373.501103 264.603731 374.099309 264.699924 374.697514 264.796117 L 376.501779 265.200128 L 377.399087 265.402134 C 377.698189 265.498327 377.997292 265.498327 378.296395 265.498327 L 382.001409 266.104343 L 385.696775 266.402542 C 390.704333 266.70074 395.702242 266.402542 400.700152 265.498327 C 405.698061 264.699924 410.599486 263.103119 415.298293 261.198496 C 417.700763 260.303901 419.900615 258.995675 422.100468 257.899074 L 425.303761 255.898258 C 426.403687 255.196048 427.300995 254.503458 428.400921 253.695437 C 432.395389 250.703832 436.003919 247.298597 439.197564 243.604783 " stroke="#723b2f" stroke-width="1.07" stroke-opacity="1" stroke-miterlimit="10"/></g><path stroke-linecap="butt" transform="matrix(0, 0.404857, -0.406084, 0, 124.599867, -13.581634)" fill="none" stroke-linejoin="miter" d="M 351.097346 254.503458 L 343.002276 268.999755 " stroke="#723b2f" stroke-width="1.07" stroke-opacity="1" stroke-miterlimit="10"/><path fill="#fc4242" d="M 14.023438 125.890625 C 13.375 125.527344 13.089844 124.757812 13.414062 124.191406 C 13.738281 123.625 14.550781 123.460938 15.199219 123.828125 C 15.851562 124.191406 16.132812 124.960938 15.808594 125.527344 C 15.484375 126.054688 14.714844 126.214844 14.023438 125.890625 Z M 14.023438 125.890625 " fill-opacity="1" fill-rule="nonzero"/><path fill="#fbb03b" d="M 17.027344 137.671875 L 7.730469 135.121094 C 7.039062 133.503906 6.429688 131.800781 5.941406 130.0625 L 5.902344 129.859375 L 6.023438 129.738281 C 7.605469 128.804688 9.148438 128.039062 10.734375 127.347656 L 19.382812 131.601562 C 19.382812 131.601562 19.019531 131.925781 18.570312 132.410156 C 18.125 132.894531 17.597656 133.625 17.3125 134.351562 C 17.027344 135.121094 16.90625 135.933594 16.90625 136.578125 C 16.90625 136.902344 16.90625 137.148438 16.945312 137.347656 C 16.988281 137.550781 17.027344 137.671875 17.027344 137.671875 Z M 17.027344 137.671875 " fill-opacity="1" fill-rule="nonzero"/><path stroke-linecap="butt" transform="matrix(0, 0.404857, -0.406084, 0, 124.599867, -13.581634)" fill="none" stroke-linejoin="miter" d="M 381.200586 265.998531 L 378.904249 282.39945 " stroke="#723b2f" stroke-width="1.07" stroke-opacity="1" stroke-miterlimit="10"/><path fill="#fbb03b" d="M 8.90625 140.910156 C 8.539062 140.871094 8.214844 140.710938 7.972656 140.464844 C 7.730469 140.222656 7.605469 139.859375 7.6875 139.535156 C 7.808594 138.847656 8.5 138.402344 9.230469 138.523438 C 9.960938 138.644531 10.488281 139.292969 10.410156 139.898438 C 10.367188 140.222656 10.164062 140.464844 9.921875 140.667969 C 9.636719 140.871094 9.273438 140.953125 8.90625 140.910156 Z M 8.90625 140.910156 " fill-opacity="1" fill-rule="nonzero"/><path fill="#0dbcb7" d="M 16.824219 150.019531 L 7.402344 152.167969 C 6.714844 151.640625 6.0625 151.03125 5.375 150.464844 C 4.722656 149.859375 4.074219 149.210938 3.464844 148.523438 L 3.34375 148.359375 L 3.425781 148.160156 C 3.871094 147.347656 4.398438 146.578125 4.925781 145.851562 C 5.414062 145.121094 5.984375 144.394531 6.550781 143.746094 L 16.214844 143.867188 C 16.214844 143.867188 16.011719 144.273438 15.808594 144.839844 C 15.730469 145.121094 15.648438 145.488281 15.605469 145.851562 C 15.566406 146.214844 15.527344 146.621094 15.566406 147.023438 C 15.6875 147.792969 15.933594 148.5625 16.257812 149.128906 C 16.582031 149.65625 16.824219 150.019531 16.824219 150.019531 Z M 16.824219 150.019531 " fill-opacity="1" fill-rule="nonzero"/><path stroke-linecap="butt" transform="matrix(0, 0.404857, -0.406084, 0, 124.599867, -13.581634)" fill="none" stroke-linejoin="miter" d="M 411.496794 262.699108 L 416.996425 278.397818 " stroke="#723b2f" stroke-width="1.07" stroke-opacity="1" stroke-miterlimit="10"/><path fill="#0dbcb7" d="M 11.140625 156.699219 C 10.410156 156.984375 9.679688 156.660156 9.433594 156.011719 C 9.191406 155.363281 9.597656 154.636719 10.328125 154.433594 C 11.058594 154.230469 11.789062 154.515625 12.035156 155.121094 C 12.238281 155.6875 11.832031 156.417969 11.140625 156.699219 Z M 11.140625 156.699219 " fill-opacity="1" fill-rule="nonzero"/><path fill="#fa3eff" d="M 22.347656 161.195312 L 14.917969 167.347656 C 13.171875 167.023438 11.464844 166.5 9.71875 165.851562 L 9.515625 165.769531 L 9.515625 165.566406 C 9.597656 164.636719 9.679688 163.746094 9.800781 162.855469 C 9.960938 161.964844 10.125 161.074219 10.289062 160.222656 L 18.9375 155.972656 C 18.9375 155.972656 18.9375 156.417969 19.058594 157.023438 C 19.097656 157.1875 19.097656 157.347656 19.140625 157.511719 C 19.179688 157.671875 19.261719 157.835938 19.300781 158.039062 C 19.425781 158.402344 19.585938 158.765625 19.789062 159.089844 C 20.234375 159.738281 20.84375 160.265625 21.332031 160.628906 C 21.941406 161.03125 22.347656 161.195312 22.347656 161.195312 Z M 22.347656 161.195312 " fill-opacity="1" fill-rule="nonzero"/><g clip-path="url(#8434d239ed)"><path stroke-linecap="butt" transform="matrix(0, 0.404857, -0.406084, 0, 124.599867, -13.581634)" fill="none" stroke-linejoin="miter" d="M 436.997712 246.201996 L 449.203031 257.39887 " stroke="#723b2f" stroke-width="1.07" stroke-opacity="1" stroke-miterlimit="10"/></g><g clip-path="url(#fa2ccbcc6c)"><path fill="#fa3eff" d="M 20.359375 169.695312 C 19.871094 170.265625 19.058594 170.34375 18.53125 169.898438 C 18.003906 169.453125 18.042969 168.5625 18.570312 168.039062 C 19.097656 167.511719 19.871094 167.46875 20.359375 167.875 C 20.886719 168.320312 20.84375 169.128906 20.359375 169.695312 Z M 20.359375 169.695312 " fill-opacity="1" fill-rule="nonzero"/></g></svg>