<svg xmlns="http://www.w3.org/2000/svg" xmlns:xlink="http://www.w3.org/1999/xlink" width="58" zoomAndPan="magnify" viewBox="0 0 43.5 176.249994" height="235" preserveAspectRatio="xMidYMid meet" version="1.0"><defs><filter x="0%" y="0%" width="100%" height="100%" id="24f5dadbc4"><feColorMatrix values="0 0 0 0 1 0 0 0 0 1 0 0 0 0 1 0 0 0 1 0" color-interpolation-filters="sRGB"/></filter><g/><clipPath id="eec2425669"><path d="M 23 3.53125 L 38 3.53125 L 38 19 L 23 19 Z M 23 3.53125 " clip-rule="nonzero"/></clipPath><mask id="a580566799"><g filter="url(#24f5dadbc4)"><rect x="-4.35" width="52.2" fill="#000000" y="-17.624999" height="211.499993" fill-opacity="0.18"/></g></mask><clipPath id="4654339fbf"><path d="M 6 4 L 10 4 L 10 14.664062 L 6 14.664062 Z M 6 4 " clip-rule="nonzero"/></clipPath><clipPath id="b481ba210b"><path d="M 3 0.425781 L 8 0.425781 L 8 14 L 3 14 Z M 3 0.425781 " clip-rule="nonzero"/></clipPath><clipPath id="3b3d9b8e4c"><rect x="0" width="13" y="0" height="15"/></clipPath><mask id="6b7bfc26ef"><g filter="url(#24f5dadbc4)"><rect x="-4.35" width="52.2" fill="#000000" y="-17.624999" height="211.499993" fill-opacity="0.18"/></g></mask><clipPath id="c62134ca22"><path d="M 7 3 L 9 3 L 9 13.15625 L 7 13.15625 Z M 7 3 " clip-rule="nonzero"/></clipPath><clipPath id="4f87dc9a5e"><path d="M 4 0.105469 L 6 0.105469 L 6 13 L 4 13 Z M 4 0.105469 " clip-rule="nonzero"/></clipPath><clipPath id="b1c3f5fe54"><rect x="0" width="13" y="0" height="14"/></clipPath><clipPath id="a70a5e2f2c"><path d="M 0.28125 29 L 16 29 L 16 42 L 0.28125 42 Z M 0.28125 29 " clip-rule="nonzero"/></clipPath><mask id="19c58ccb6f"><g filter="url(#24f5dadbc4)"><rect x="-4.35" width="52.2" fill="#000000" y="-17.624999" height="211.499993" fill-opacity="0.18"/></g></mask><clipPath id="0e1ae152f4"><path d="M 10 4 L 12.421875 4 L 12.421875 8 L 10 8 Z M 10 4 " clip-rule="nonzero"/></clipPath><clipPath id="8a43be09d7"><path d="M 2 0.816406 L 9 0.816406 L 9 12.441406 L 2 12.441406 Z M 2 0.816406 " clip-rule="nonzero"/></clipPath><clipPath id="abd8b654c1"><path d="M 0.320312 6 L 4 6 L 4 12 L 0.320312 12 Z M 0.320312 6 " clip-rule="nonzero"/></clipPath><clipPath id="a8c1418f11"><rect x="0" width="13" y="0" height="13"/></clipPath><clipPath id="1b7a87e209"><path d="M 0.28125 46 L 15 46 L 15 59 L 0.28125 59 Z M 0.28125 46 " clip-rule="nonzero"/></clipPath><mask id="7d9e66e446"><g filter="url(#24f5dadbc4)"><rect x="-4.35" width="52.2" fill="#000000" y="-17.624999" height="211.499993" fill-opacity="0.18"/></g></mask><clipPath id="4074412c84"><path d="M 9 0.425781 L 13 0.425781 L 13 3 L 9 3 Z M 9 0.425781 " clip-rule="nonzero"/></clipPath><clipPath id="f2c7b9aca7"><path d="M 5 0.425781 L 13.472656 0.425781 L 13.472656 6 L 5 6 Z M 5 0.425781 " clip-rule="nonzero"/></clipPath><clipPath id="57f5a6c884"><path d="M 0.421875 1 L 13 1 L 13 8 L 0.421875 8 Z M 0.421875 1 " clip-rule="nonzero"/></clipPath><clipPath id="4fedc9f702"><rect x="0" width="14" y="0" height="11"/></clipPath><mask id="bd7e6683c7"><g filter="url(#24f5dadbc4)"><rect x="-4.35" width="52.2" fill="#000000" y="-17.624999" height="211.499993" fill-opacity="0.18"/></g></mask><clipPath id="00c4b486ad"><path d="M 7 0.238281 L 11 0.238281 L 11 2 L 7 2 Z M 7 0.238281 " clip-rule="nonzero"/></clipPath><clipPath id="944f743046"><path d="M 4 2 L 13.539062 2 L 13.539062 5 L 4 5 Z M 4 2 " clip-rule="nonzero"/></clipPath><clipPath id="35bf4549ff"><path d="M 0.253906 5 L 13.539062 5 L 13.539062 8 L 0.253906 8 Z M 0.253906 5 " clip-rule="nonzero"/></clipPath><clipPath id="9306dca214"><rect x="0" width="14" y="0" height="12"/></clipPath><mask id="ddcd67e838"><g filter="url(#24f5dadbc4)"><rect x="-4.35" width="52.2" fill="#000000" y="-17.624999" height="211.499993" fill-opacity="0.18"/></g></mask><clipPath id="4d05d7f4e1"><path d="M 7 0.339844 L 11 0.339844 L 11 2 L 7 2 Z M 7 0.339844 " clip-rule="nonzero"/></clipPath><clipPath id="51dd3a8c17"><path d="M 0.644531 6 L 14 6 L 14 10 L 0.644531 10 Z M 0.644531 6 " clip-rule="nonzero"/></clipPath><clipPath id="2303cff816"><path d="M 4 10 L 10 10 L 10 11.964844 L 4 11.964844 Z M 4 10 " clip-rule="nonzero"/></clipPath><clipPath id="45d43091ba"><rect x="0" width="15" y="0" height="12"/></clipPath><clipPath id="5414446e02"><path d="M 25 81 L 42.542969 81 L 42.542969 133 L 25 133 Z M 25 81 " clip-rule="nonzero"/></clipPath><clipPath id="313d1ff08e"><path d="M 27 85 L 42.542969 85 L 42.542969 98 L 27 98 Z M 27 85 " clip-rule="nonzero"/></clipPath><mask id="8717e1851e"><g filter="url(#24f5dadbc4)"><rect x="-4.35" width="52.2" fill="#000000" y="-17.624999" height="211.499993" fill-opacity="0.18"/></g></mask><clipPath id="449ff6ec36"><path d="M 9 0.335938 L 13 0.335938 L 13 3 L 9 3 Z M 9 0.335938 " clip-rule="nonzero"/></clipPath><clipPath id="652bff4b99"><path d="M 5 2 L 13.996094 2 L 13.996094 9 L 5 9 Z M 5 2 " clip-rule="nonzero"/></clipPath><clipPath id="a4785c62d1"><path d="M 0.710938 4 L 13 4 L 13 11 L 0.710938 11 Z M 0.710938 4 " clip-rule="nonzero"/></clipPath><clipPath id="ffd739cb9b"><path d="M 3 8 L 8 8 L 8 11.726562 L 3 11.726562 Z M 3 8 " clip-rule="nonzero"/></clipPath><clipPath id="ccaaff2e77"><rect x="0" width="14" y="0" height="12"/></clipPath><mask id="2db7503e13"><g filter="url(#24f5dadbc4)"><rect x="-4.35" width="52.2" fill="#000000" y="-17.624999" height="211.499993" fill-opacity="0.18"/></g></mask><clipPath id="a898ccac14"><path d="M 10 3 L 12.761719 3 L 12.761719 7 L 10 7 Z M 10 3 " clip-rule="nonzero"/></clipPath><clipPath id="ac21105353"><path d="M 6 2 L 11 2 L 11 12.996094 L 6 12.996094 Z M 6 2 " clip-rule="nonzero"/></clipPath><clipPath id="0eff8ad757"><path d="M 1 1 L 8 1 L 8 12.996094 L 1 12.996094 Z M 1 1 " clip-rule="nonzero"/></clipPath><clipPath id="8fa10480a5"><path d="M 0.421875 5 L 4 5 L 4 11 L 0.421875 11 Z M 0.421875 5 " clip-rule="nonzero"/></clipPath><clipPath id="587dcb037c"><rect x="0" width="13" y="0" height="13"/></clipPath><mask id="448632be46"><g filter="url(#24f5dadbc4)"><rect x="-4.35" width="52.2" fill="#000000" y="-17.624999" height="211.499993" fill-opacity="0.18"/></g></mask><clipPath id="c78993b471"><path d="M 10 5 L 12.507812 5 L 12.507812 10 L 10 10 Z M 10 5 " clip-rule="nonzero"/></clipPath><clipPath id="c9c317841f"><path d="M 3 0.183594 L 7 0.183594 L 7 13 L 3 13 Z M 3 0.183594 " clip-rule="nonzero"/></clipPath><clipPath id="32ca979a26"><path d="M 0.644531 4 L 3 4 L 3 11 L 0.644531 11 Z M 0.644531 4 " clip-rule="nonzero"/></clipPath><clipPath id="9cfd6f9f59"><rect x="0" width="13" y="0" height="14"/></clipPath><mask id="42e09bd304"><g filter="url(#24f5dadbc4)"><rect x="-4.35" width="52.2" fill="#000000" y="-17.624999" height="211.499993" fill-opacity="0.18"/></g></mask><clipPath id="54eb91d3e1"><path d="M 10 5 L 12.4375 5 L 12.4375 8 L 10 8 Z M 10 5 " clip-rule="nonzero"/></clipPath><clipPath id="be2e599a07"><path d="M 2 1 L 9 1 L 9 12.570312 L 2 12.570312 Z M 2 1 " clip-rule="nonzero"/></clipPath><clipPath id="ff77b4154a"><path d="M 0.574219 6 L 5 6 L 5 12 L 0.574219 12 Z M 0.574219 6 " clip-rule="nonzero"/></clipPath><clipPath id="920472479c"><rect x="0" width="13" y="0" height="13"/></clipPath><mask id="b765468fe2"><g filter="url(#24f5dadbc4)"><rect x="-4.35" width="52.2" fill="#000000" y="-17.624999" height="211.499993" fill-opacity="0.18"/></g></mask><clipPath id="688c80f5bd"><path d="M 9 0.265625 L 13 0.265625 L 13 2 L 9 2 Z M 9 0.265625 " clip-rule="nonzero"/></clipPath><clipPath id="3c6a73d8cd"><path d="M 5 1 L 13.914062 1 L 13.914062 6 L 5 6 Z M 5 1 " clip-rule="nonzero"/></clipPath><clipPath id="f05ea90cd1"><path d="M 0.390625 2 L 13 2 L 13 9 L 0.390625 9 Z M 0.390625 2 " clip-rule="nonzero"/></clipPath><clipPath id="4a9a325057"><path d="M 3 7 L 9 7 L 9 10.707031 L 3 10.707031 Z M 3 7 " clip-rule="nonzero"/></clipPath><clipPath id="da03d15988"><rect x="0" width="14" y="0" height="11"/></clipPath><clipPath id="a3bc94cdac"><path d="M 20 158 L 35 158 L 35 174.070312 L 20 174.070312 Z M 20 158 " clip-rule="nonzero"/></clipPath><mask id="f3195431dc"><g filter="url(#24f5dadbc4)"><rect x="-4.35" width="52.2" fill="#000000" y="-17.624999" height="211.499993" fill-opacity="0.18"/></g></mask><clipPath id="668402fdb7"><path d="M 0.355469 6 L 13.40625 6 L 13.40625 9 L 0.355469 9 Z M 0.355469 6 " clip-rule="nonzero"/></clipPath><clipPath id="36a6bb81b1"><path d="M 5 10 L 11 10 L 11 12.519531 L 5 12.519531 Z M 5 10 " clip-rule="nonzero"/></clipPath><clipPath id="99754d5895"><rect x="0" width="14" y="0" height="13"/></clipPath></defs><path fill="#723b2f" d="M 12.585938 44.011719 C 12.695312 40.992188 13.574219 37.71875 15.148438 34.589844 C 15.917969 33.082031 16.796875 31.574219 17.824219 30.136719 C 18.8125 28.738281 19.949219 27.414062 21.230469 26.089844 C 23.535156 23.695312 26.355469 21.339844 29.835938 18.875 C 33.058594 16.59375 36.574219 14.421875 39.871094 12.433594 L 40.054688 12.765625 C 36.757812 14.789062 33.242188 16.925781 30.019531 19.207031 C 26.578125 21.636719 23.757812 23.992188 21.484375 26.382812 C 20.203125 27.707031 19.105469 29.03125 18.117188 30.394531 C 17.089844 31.828125 16.210938 33.300781 15.441406 34.773438 C 13.90625 37.867188 13.0625 41.066406 12.914062 44.046875 Z M 12.585938 44.011719 " fill-opacity="1" fill-rule="nonzero"/><g clip-path="url(#eec2425669)"><path fill="#fc4242" d="M 37.308594 14.460938 C 34.925781 15.933594 32.582031 17.441406 30.386719 18.984375 L 23.058594 8.425781 C 24.855469 8.3125 26.613281 8.238281 28.335938 8.238281 C 29.066406 6.65625 29.835938 5.074219 30.605469 3.53125 Z M 37.308594 14.460938 " fill-opacity="1" fill-rule="nonzero"/></g><g mask="url(#a580566799)"><g transform="matrix(1, 0, 0, 1, 25, 4)"><g clip-path="url(#3b3d9b8e4c)"><path fill="#ffffff" d="M 10.4375 11.601562 C 10.660156 10.605469 10.953125 9.613281 11.207031 8.621094 L 11.832031 9.648438 L 11.5 10.976562 Z M 10.4375 11.601562 " fill-opacity="1" fill-rule="nonzero"/><g clip-path="url(#4654339fbf)"><path fill="#ffffff" d="M 6.59375 14.140625 C 7.179688 11.046875 7.984375 7.882812 8.828125 4.753906 L 9.449219 5.785156 C 8.753906 8.363281 8.132812 10.9375 7.582031 13.476562 C 7.253906 13.699219 6.921875 13.917969 6.59375 14.140625 Z M 6.59375 14.140625 " fill-opacity="1" fill-rule="nonzero"/></g><g clip-path="url(#b481ba210b)"><path fill="#ffffff" d="M 4.324219 13.402344 L 3.628906 12.410156 C 4.359375 8.582031 5.386719 4.71875 6.449219 0.855469 L 7.070312 1.882812 C 6.007812 5.75 5.019531 9.613281 4.324219 13.402344 Z M 4.324219 13.402344 " fill-opacity="1" fill-rule="nonzero"/></g><path fill="#ffffff" d="M 1.722656 9.6875 L 1.027344 8.691406 C 1.355469 7.222656 1.6875 5.710938 2.089844 4.238281 L 3.003906 4.238281 C 2.527344 6.042969 2.125 7.882812 1.722656 9.6875 Z M 1.722656 9.6875 " fill-opacity="1" fill-rule="nonzero"/></g></g></g><path fill="#fbb03b" d="M 24.378906 23.625 C 23.902344 24.066406 23.425781 24.46875 22.949219 24.910156 L 22.253906 25.574219 L 21.59375 26.234375 C 21.15625 26.679688 20.753906 27.15625 20.3125 27.597656 C 19.910156 28.078125 19.507812 28.519531 19.140625 28.996094 L 9.144531 20.972656 C 10.023438 20.605469 10.902344 20.273438 11.78125 19.980469 C 12.660156 19.722656 13.539062 19.429688 14.417969 19.207031 L 14.746094 17.882812 L 15.113281 16.558594 C 15.371094 15.675781 15.664062 14.789062 15.917969 13.90625 Z M 24.378906 23.625 " fill-opacity="1" fill-rule="nonzero"/><g mask="url(#6b7bfc26ef)"><g transform="matrix(1, 0, 0, 1, 12, 15)"><g clip-path="url(#b1c3f5fe54)"><path fill="#ffffff" d="M 10.878906 10.023438 C 10.878906 9.027344 10.914062 8.070312 10.949219 7.039062 L 11.71875 7.925781 L 11.683594 9.25 C 11.425781 9.507812 11.171875 9.726562 10.878906 10.023438 Z M 10.878906 10.023438 " fill-opacity="1" fill-rule="nonzero"/><g clip-path="url(#c62134ca22)"><path fill="#ffffff" d="M 7.984375 13.039062 C 7.617188 10.058594 7.65625 6.855469 7.984375 3.617188 L 8.753906 4.5 C 8.535156 7.152344 8.496094 9.726562 8.679688 12.230469 C 8.460938 12.488281 8.203125 12.746094 7.984375 13.039062 Z M 7.984375 13.039062 " fill-opacity="1" fill-rule="nonzero"/></g><g clip-path="url(#4f87dc9a5e)"><path fill="#ffffff" d="M 5.675781 12.855469 L 4.761719 12.121094 C 4.652344 11.164062 4.578125 10.242188 4.503906 9.25 C 4.46875 8.292969 4.46875 7.261719 4.503906 6.304688 C 4.503906 5.789062 4.542969 5.3125 4.578125 4.796875 L 4.6875 3.285156 C 4.761719 2.257812 4.90625 1.261719 5.019531 0.230469 L 5.785156 1.117188 C 5.675781 2.144531 5.566406 3.140625 5.492188 4.132812 L 5.382812 5.640625 C 5.382812 6.15625 5.347656 6.636719 5.347656 7.152344 C 5.3125 8.144531 5.347656 9.136719 5.382812 10.058594 C 5.492188 10.980469 5.566406 11.933594 5.675781 12.855469 Z M 5.675781 12.855469 " fill-opacity="1" fill-rule="nonzero"/></g><path fill="#ffffff" d="M 2.160156 10.023438 L 1.246094 9.285156 C 1.136719 7.738281 1.136719 6.195312 1.207031 4.613281 C 1.5 4.539062 1.792969 4.429688 2.125 4.355469 C 2.085938 5.3125 2.050781 6.269531 2.050781 7.226562 C 2.050781 8.144531 2.085938 9.066406 2.160156 10.023438 Z M 2.160156 10.023438 " fill-opacity="1" fill-rule="nonzero"/></g></g></g><g clip-path="url(#a70a5e2f2c)"><path fill="#0dbcb7" d="M 15.441406 34.882812 C 15.1875 35.4375 14.929688 35.953125 14.710938 36.503906 C 14.601562 36.761719 14.492188 37.054688 14.378906 37.3125 L 14.085938 38.125 C 13.976562 38.378906 13.90625 38.675781 13.832031 38.933594 L 13.613281 39.742188 L 13.429688 40.550781 L 13.320312 40.957031 L 13.246094 41.363281 L 0.648438 39.117188 C 0.792969 38.933594 0.941406 38.710938 1.085938 38.527344 L 1.5625 37.976562 C 1.890625 37.609375 2.222656 37.238281 2.515625 36.871094 C 2.84375 36.539062 3.175781 36.171875 3.539062 35.839844 C 3.871094 35.511719 4.199219 35.179688 4.566406 34.882812 L 4.308594 33.484375 C 4.234375 33.007812 4.199219 32.566406 4.125 32.085938 C 4.015625 31.128906 3.941406 30.175781 3.90625 29.21875 Z M 15.441406 34.882812 " fill-opacity="1" fill-rule="nonzero"/></g><g mask="url(#19c58ccb6f)"><g transform="matrix(1, 0, 0, 1, 3, 29)"><g clip-path="url(#a8c1418f11)"><g clip-path="url(#0e1ae152f4)"><path fill="#ffffff" d="M 11.710938 7.578125 C 11.269531 6.730469 10.90625 5.882812 10.539062 4.964844 L 11.601562 5.480469 C 11.746094 5.882812 11.929688 6.253906 12.113281 6.65625 C 11.929688 6.914062 11.820312 7.246094 11.710938 7.578125 Z M 11.710938 7.578125 " fill-opacity="1" fill-rule="nonzero"/></g><path fill="#ffffff" d="M 10.539062 11.183594 C 8.78125 8.902344 7.425781 6.070312 6.472656 2.941406 L 7.535156 3.457031 C 8.339844 5.957031 9.441406 8.277344 10.757812 10.226562 L 10.613281 10.707031 Z M 10.539062 11.183594 " fill-opacity="1" fill-rule="nonzero"/><g clip-path="url(#8a43be09d7)"><path fill="#ffffff" d="M 8.449219 12.03125 L 7.277344 11.808594 C 7.132812 11.625 6.984375 11.441406 6.875 11.257812 L 6.472656 10.667969 C 6.21875 10.265625 5.960938 9.859375 5.703125 9.453125 C 5.484375 9.050781 5.226562 8.609375 5.007812 8.167969 C 4.789062 7.726562 4.570312 7.28125 4.386719 6.804688 C 4.203125 6.363281 3.984375 5.882812 3.800781 5.40625 C 3.617188 4.929688 3.46875 4.449219 3.285156 3.972656 C 2.957031 2.976562 2.664062 1.984375 2.40625 0.953125 L 3.46875 1.46875 C 3.726562 2.5 4.019531 3.457031 4.347656 4.414062 C 4.53125 4.890625 4.679688 5.371094 4.863281 5.8125 C 5.042969 6.289062 5.265625 6.730469 5.449219 7.171875 C 5.628906 7.613281 5.851562 8.054688 6.105469 8.460938 C 6.328125 8.902344 6.582031 9.308594 6.804688 9.710938 C 7.058594 10.117188 7.316406 10.523438 7.570312 10.890625 L 7.976562 11.441406 C 8.15625 11.664062 8.304688 11.847656 8.449219 12.03125 Z M 8.449219 12.03125 " fill-opacity="1" fill-rule="nonzero"/></g><g clip-path="url(#abd8b654c1)"><path fill="#ffffff" d="M 3.984375 11.257812 L 2.8125 11.035156 C 2.371094 10.375 2.042969 9.710938 1.640625 8.976562 C 1.273438 8.277344 0.941406 7.539062 0.613281 6.804688 C 0.832031 6.582031 1.089844 6.363281 1.308594 6.140625 C 1.675781 7.0625 2.078125 7.945312 2.519531 8.792969 C 2.738281 9.234375 2.957031 9.636719 3.214844 10.042969 L 3.578125 10.632812 Z M 3.984375 11.257812 " fill-opacity="1" fill-rule="nonzero"/></g></g></g></g><path fill="#723b2f" d="M 12.585938 44.746094 C 12.585938 44.488281 12.585938 44.230469 12.585938 43.976562 L 12.953125 43.976562 C 12.878906 45.445312 13.027344 46.917969 13.355469 48.5 C 13.683594 49.972656 14.234375 51.480469 14.929688 52.992188 C 15.550781 54.351562 16.394531 55.824219 17.53125 57.480469 C 18.519531 58.917969 19.65625 60.425781 20.898438 61.898438 C 22.035156 63.257812 23.316406 64.695312 24.78125 66.3125 C 25.292969 66.867188 25.769531 67.378906 26.285156 67.933594 C 27.164062 68.890625 28.078125 69.882812 28.992188 70.914062 C 31.59375 73.859375 34.597656 77.425781 37.160156 81.695312 L 36.832031 81.878906 C 34.265625 77.613281 31.265625 74.042969 28.699219 71.132812 C 27.785156 70.105469 26.871094 69.109375 25.992188 68.152344 C 25.476562 67.601562 25 67.050781 24.488281 66.535156 C 22.988281 64.914062 21.742188 63.441406 20.605469 62.082031 C 19.363281 60.574219 18.226562 59.101562 17.238281 57.628906 C 16.101562 55.972656 15.257812 54.464844 14.636719 53.101562 C 13.941406 51.554688 13.390625 50.046875 13.0625 48.539062 C 12.695312 47.285156 12.585938 46 12.585938 44.746094 Z M 12.585938 44.746094 " fill-opacity="1" fill-rule="nonzero"/><g clip-path="url(#1b7a87e209)"><path fill="#fc4242" d="M 13.0625 46.441406 C 13.28125 48.539062 13.832031 50.636719 14.785156 52.695312 L 3.136719 58.03125 C 3.210938 57.039062 3.320312 56.082031 3.429688 55.125 C 3.503906 54.648438 3.578125 54.167969 3.6875 53.691406 C 3.761719 53.210938 3.871094 52.769531 3.980469 52.292969 C 3.320312 51.628906 2.625 50.929688 2.039062 50.15625 C 1.746094 49.789062 1.417969 49.382812 1.125 48.980469 C 0.832031 48.574219 0.574219 48.132812 0.28125 47.691406 Z M 13.0625 46.441406 " fill-opacity="1" fill-rule="nonzero"/></g><g mask="url(#7d9e66e446)"><g transform="matrix(1, 0, 0, 1, 1, 46)"><g clip-path="url(#4fedc9f702)"><g clip-path="url(#4074412c84)"><path fill="#ffffff" d="M 12.320312 2.058594 C 11.914062 1.839844 11.511719 1.617188 11.109375 1.398438 C 10.707031 1.140625 10.339844 0.917969 9.9375 0.625 L 11.109375 0.515625 C 11.441406 0.734375 11.769531 0.957031 12.136719 1.140625 Z M 12.320312 2.058594 " fill-opacity="1" fill-rule="nonzero"/></g><g clip-path="url(#f2c7b9aca7)"><path fill="#ffffff" d="M 13.34375 5.59375 C 10.597656 4.710938 7.925781 3.273438 5.46875 1.101562 L 6.640625 0.992188 C 7.632812 1.839844 8.691406 2.539062 9.71875 3.164062 C 10.816406 3.789062 11.878906 4.269531 13.015625 4.671875 C 13.085938 4.96875 13.199219 5.261719 13.34375 5.59375 Z M 13.34375 5.59375 " fill-opacity="1" fill-rule="nonzero"/></g><g clip-path="url(#57f5a6c884)"><path fill="#ffffff" d="M 12.097656 7.46875 L 11 7.949219 C 7.484375 6.734375 3.96875 4.710938 0.929688 1.472656 L 2.101562 1.359375 C 5.140625 4.453125 8.621094 6.367188 12.097656 7.46875 Z M 12.097656 7.46875 " fill-opacity="1" fill-rule="nonzero"/></g><path fill="#ffffff" d="M 7.960938 9.347656 L 6.898438 9.824219 C 6.203125 9.53125 5.507812 9.164062 4.8125 8.792969 C 4.078125 8.425781 3.457031 7.984375 2.722656 7.542969 C 2.796875 7.210938 2.832031 6.917969 2.90625 6.585938 C 3.75 7.136719 4.589844 7.652344 5.398438 8.09375 C 6.277344 8.609375 7.117188 9.015625 7.960938 9.347656 Z M 7.960938 9.347656 " fill-opacity="1" fill-rule="nonzero"/></g></g></g><path fill="#fbb03b" d="M 18.410156 58.730469 C 19.910156 60.792969 21.632812 62.855469 23.5 64.914062 L 13.976562 73.527344 C 13.683594 71.796875 13.390625 70.03125 13.136719 68.300781 C 12.292969 68.007812 11.449219 67.75 10.609375 67.417969 L 9.328125 66.9375 L 8.042969 66.386719 Z M 18.410156 58.730469 " fill-opacity="1" fill-rule="nonzero"/><g mask="url(#bd7e6683c7)"><g transform="matrix(1, 0, 0, 1, 9, 59)"><g clip-path="url(#9306dca214)"><g clip-path="url(#00c4b486ad)"><path fill="#ffffff" d="M 10.617188 1.351562 L 9.152344 1.203125 C 8.675781 1.128906 8.164062 1.09375 7.6875 1.019531 L 8.640625 0.320312 L 9.921875 0.46875 Z M 10.617188 1.351562 " fill-opacity="1" fill-rule="nonzero"/></g><g clip-path="url(#944f743046)"><path fill="#ffffff" d="M 13.511719 4.773438 C 10.363281 4.554688 7.25 4.257812 4.0625 3.671875 L 5.015625 2.972656 C 7.613281 3.449219 10.179688 3.707031 12.742188 3.890625 Z M 13.511719 4.773438 " fill-opacity="1" fill-rule="nonzero"/></g><g clip-path="url(#35bf4549ff)"><path fill="#ffffff" d="M 13.070312 7.167969 L 12.191406 7.976562 C 8.3125 7.679688 4.390625 7.277344 0.363281 6.355469 L 1.316406 5.65625 C 5.34375 6.503906 9.226562 6.871094 13.070312 7.167969 Z M 13.070312 7.167969 " fill-opacity="1" fill-rule="nonzero"/></g><path fill="#ffffff" d="M 9.738281 10.183594 L 8.859375 10.992188 L 6.589844 10.773438 L 4.320312 10.515625 L 4.171875 9.59375 C 6.039062 9.851562 7.871094 10.035156 9.738281 10.183594 Z M 9.738281 10.183594 " fill-opacity="1" fill-rule="nonzero"/></g></g></g><path fill="#0dbcb7" d="M 29.101562 71.097656 C 31.117188 73.378906 33.09375 75.769531 34.964844 78.382812 L 24.527344 85.816406 L 24.527344 84.640625 L 24.488281 83.425781 C 24.453125 82.617188 24.414062 81.808594 24.34375 80.960938 C 22.765625 80.480469 21.15625 80.039062 19.582031 79.671875 Z M 29.101562 71.097656 " fill-opacity="1" fill-rule="nonzero"/><g mask="url(#ddcd67e838)"><g transform="matrix(1, 0, 0, 1, 20, 71)"><g clip-path="url(#45d43091ba)"><g clip-path="url(#4d05d7f4e1)"><path fill="#ffffff" d="M 10.714844 1.902344 C 9.652344 1.753906 8.589844 1.644531 7.527344 1.496094 L 8.40625 0.6875 L 9.800781 0.871094 C 10.128906 1.203125 10.421875 1.570312 10.714844 1.902344 Z M 10.714844 1.902344 " fill-opacity="1" fill-rule="nonzero"/></g><path fill="#ffffff" d="M 13.972656 5.984375 C 10.640625 5.214844 7.382812 4.808594 4.160156 4.515625 L 5.039062 3.703125 C 7.710938 3.960938 10.386719 4.292969 13.132812 4.84375 Z M 13.972656 5.984375 " fill-opacity="1" fill-rule="nonzero"/><g clip-path="url(#51dd3a8c17)"><path fill="#ffffff" d="M 13.460938 8.488281 L 12.507812 9.1875 C 8.554688 8.269531 4.671875 7.824219 0.828125 7.570312 L 1.707031 6.757812 C 5.550781 7.054688 9.433594 7.496094 13.460938 8.488281 Z M 13.460938 8.488281 " fill-opacity="1" fill-rule="nonzero"/></g><g clip-path="url(#2303cff816)"><path fill="#ffffff" d="M 9.761719 11.101562 L 8.808594 11.800781 C 7.34375 11.507812 5.878906 11.320312 4.453125 11.136719 L 4.378906 10.292969 L 5.734375 10.4375 L 7.089844 10.621094 C 7.527344 10.695312 8.003906 10.769531 8.445312 10.84375 Z M 9.761719 11.101562 " fill-opacity="1" fill-rule="nonzero"/></g></g></g></g><g clip-path="url(#5414446e02)"><path fill="#723b2f" d="M 25.699219 132.484375 C 27.234375 129.945312 29.101562 127.40625 31.082031 124.679688 C 31.558594 124.054688 32.035156 123.394531 32.472656 122.765625 C 35.074219 119.125 37.601562 115.515625 39.542969 111.0625 C 40.601562 108.671875 41.335938 106.207031 41.738281 103.742188 L 41.886719 102.746094 C 41.921875 102.527344 41.921875 102.304688 41.957031 102.085938 L 42.03125 101.460938 C 42.066406 101.238281 42.066406 101.015625 42.066406 100.796875 L 42.105469 99.804688 C 42.179688 98.515625 42.066406 97.226562 41.921875 95.828125 C 41.628906 93.4375 41.007812 91.007812 40.015625 88.429688 L 39.503906 87.144531 L 38.550781 85.082031 L 37.710938 83.5 C 37.527344 83.132812 37.34375 82.800781 37.125 82.46875 C 37.015625 82.285156 36.902344 82.136719 36.832031 81.953125 L 37.160156 81.769531 C 37.269531 81.953125 37.378906 82.101562 37.453125 82.285156 C 37.636719 82.617188 37.855469 82.949219 38.039062 83.316406 L 38.882812 84.898438 L 39.871094 86.996094 L 40.382812 88.320312 C 41.371094 90.933594 41.996094 93.398438 42.289062 95.828125 C 42.433594 97.226562 42.542969 98.515625 42.472656 99.839844 L 42.433594 100.832031 C 42.433594 101.054688 42.398438 101.3125 42.359375 101.53125 L 42.289062 102.160156 C 42.25 102.378906 42.25 102.636719 42.214844 102.859375 L 42.066406 103.851562 C 41.664062 106.355469 40.894531 108.820312 39.835938 111.25 C 37.894531 115.738281 35.367188 119.382812 32.730469 123.023438 C 32.253906 123.6875 31.777344 124.3125 31.335938 124.9375 C 29.359375 127.625 27.492188 130.164062 25.992188 132.703125 Z M 25.699219 132.484375 " fill-opacity="1" fill-rule="nonzero"/></g><g clip-path="url(#313d1ff08e)"><path fill="#fc4242" d="M 39.027344 85.117188 C 40.53125 88.171875 41.738281 91.597656 42.25 95.277344 L 29.578125 97.078125 C 29.761719 96.785156 29.945312 96.492188 30.128906 96.195312 C 30.3125 95.902344 30.457031 95.570312 30.605469 95.238281 C 30.75 94.910156 30.933594 94.578125 31.082031 94.210938 C 31.226562 93.839844 31.335938 93.511719 31.445312 93.140625 C 30.203125 92.257812 28.847656 91.484375 27.527344 90.859375 Z M 39.027344 85.117188 " fill-opacity="1" fill-rule="nonzero"/></g><g mask="url(#8717e1851e)"><g transform="matrix(1, 0, 0, 1, 28, 85)"><g clip-path="url(#ccaaff2e77)"><g clip-path="url(#449ff6ec36)"><path fill="#ffffff" d="M 12.128906 2.585938 L 11.394531 2.144531 L 10.625 1.738281 C 10.113281 1.480469 9.601562 1.261719 9.125 1.003906 L 10.1875 0.488281 C 10.625 0.707031 11.101562 0.929688 11.542969 1.148438 L 11.871094 1.847656 C 11.945312 2.105469 12.015625 2.363281 12.128906 2.585938 Z M 12.128906 2.585938 " fill-opacity="1" fill-rule="nonzero"/></g><g clip-path="url(#652bff4b99)"><path fill="#ffffff" d="M 13.886719 8.289062 C 11.101562 5.785156 8.0625 4.167969 5.023438 3.0625 L 6.085938 2.546875 C 8.609375 3.542969 11.101562 4.867188 13.480469 6.78125 Z M 13.886719 8.289062 " fill-opacity="1" fill-rule="nonzero"/></g><g clip-path="url(#a4785c62d1)"><path fill="#ffffff" d="M 12.382812 10.535156 L 11.210938 10.71875 C 8.0625 7.8125 4.507812 6.117188 0.992188 5.085938 L 2.054688 4.570312 C 5.609375 5.675781 9.195312 7.480469 12.382812 10.535156 Z M 12.382812 10.535156 " fill-opacity="1" fill-rule="nonzero"/></g><g clip-path="url(#ffd739cb9b)"><path fill="#ffffff" d="M 7.878906 11.160156 L 6.707031 11.34375 C 6.414062 11.121094 6.121094 10.902344 5.828125 10.71875 C 5.535156 10.496094 5.242188 10.3125 4.914062 10.128906 C 4.289062 9.761719 3.703125 9.429688 3.082031 9.136719 L 3.335938 8.398438 C 3.742188 8.582031 4.144531 8.765625 4.507812 8.988281 C 4.875 9.210938 5.242188 9.429688 5.644531 9.652344 C 6.449219 10.054688 7.144531 10.570312 7.878906 11.160156 Z M 7.878906 11.160156 " fill-opacity="1" fill-rule="nonzero"/></g></g></g></g><path fill="#fbb03b" d="M 41.703125 106.023438 C 41.261719 107.789062 40.675781 109.519531 39.980469 111.101562 C 39.285156 112.71875 38.515625 114.191406 37.710938 115.628906 L 26.613281 109.1875 C 28.042969 108.5625 29.433594 107.898438 30.789062 107.089844 C 30.421875 105.542969 29.945312 104.144531 29.285156 102.894531 Z M 41.703125 106.023438 " fill-opacity="1" fill-rule="nonzero"/><g mask="url(#2db7503e13)"><g transform="matrix(1, 0, 0, 1, 29, 102)"><g clip-path="url(#587dcb037c)"><g clip-path="url(#a898ccac14)"><path fill="#ffffff" d="M 11.859375 6.746094 C 11.492188 5.640625 11.054688 4.539062 10.613281 3.507812 L 11.75 3.800781 C 11.96875 4.28125 12.152344 4.757812 12.335938 5.273438 C 12.226562 5.753906 12.042969 6.265625 11.859375 6.746094 Z M 11.859375 6.746094 " fill-opacity="1" fill-rule="nonzero"/></g><g clip-path="url(#ac21105353)"><path fill="#ffffff" d="M 9.550781 12.082031 C 8.894531 8.585938 7.832031 5.238281 6.21875 2.402344 L 7.355469 2.699219 C 8.636719 5.089844 9.550781 7.886719 10.175781 10.757812 C 9.992188 11.164062 9.773438 11.640625 9.550781 12.082031 Z M 9.550781 12.082031 " fill-opacity="1" fill-rule="nonzero"/></g><g clip-path="url(#0eff8ad757)"><path fill="#ffffff" d="M 7.0625 12.671875 L 6.035156 12.082031 C 5.632812 10.058594 5.121094 8.109375 4.425781 6.265625 C 3.730469 4.425781 2.886719 2.734375 1.824219 1.300781 L 2.960938 1.59375 C 3.984375 3.101562 4.828125 4.867188 5.488281 6.746094 C 6.183594 8.621094 6.660156 10.648438 7.0625 12.671875 Z M 7.0625 12.671875 " fill-opacity="1" fill-rule="nonzero"/></g><g clip-path="url(#8fa10480a5)"><path fill="#ffffff" d="M 3.144531 10.425781 L 2.117188 9.835938 C 1.933594 9.101562 1.714844 8.402344 1.53125 7.703125 C 1.3125 7.003906 1.054688 6.339844 0.800781 5.679688 L 1.496094 5.273438 C 2.191406 6.855469 2.703125 8.621094 3.144531 10.425781 Z M 3.144531 10.425781 " fill-opacity="1" fill-rule="nonzero"/></g></g></g></g><path fill="#0dbcb7" d="M 32.691406 123.136719 C 30.972656 125.527344 29.25 127.773438 27.785156 129.980469 L 17.199219 122.730469 C 18.847656 121.957031 20.460938 121.296875 22.070312 120.667969 C 22.179688 118.941406 22.292969 117.210938 22.363281 115.554688 Z M 32.691406 123.136719 " fill-opacity="1" fill-rule="nonzero"/><g mask="url(#448632be46)"><g transform="matrix(1, 0, 0, 1, 20, 116)"><g clip-path="url(#9cfd6f9f59)"><g clip-path="url(#c78993b471)"><path fill="#ffffff" d="M 11.335938 9.011719 L 10.972656 5.882812 L 11.921875 6.582031 L 12.105469 7.980469 Z M 11.335938 9.011719 " fill-opacity="1" fill-rule="nonzero"/></g><path fill="#ffffff" d="M 8.589844 12.804688 C 8.042969 9.675781 7.710938 6.4375 7.308594 3.199219 L 8.261719 3.898438 C 8.589844 6.546875 8.882812 9.234375 9.285156 11.808594 Z M 8.589844 12.804688 " fill-opacity="1" fill-rule="nonzero"/><g clip-path="url(#c9c317841f)"><path fill="#ffffff" d="M 6.210938 12.949219 L 5.222656 12.289062 C 4.527344 8.460938 4.160156 4.449219 3.644531 0.546875 L 4.597656 1.246094 C 5.148438 5.148438 5.515625 9.160156 6.210938 12.949219 Z M 6.210938 12.949219 " fill-opacity="1" fill-rule="nonzero"/></g><g clip-path="url(#32ca979a26)"><path fill="#ffffff" d="M 2.472656 10.410156 L 1.484375 9.75 C 1.265625 8.238281 1.082031 6.730469 0.898438 5.183594 L 1.742188 4.855469 C 1.960938 6.695312 2.179688 8.570312 2.472656 10.410156 Z M 2.472656 10.410156 " fill-opacity="1" fill-rule="nonzero"/></g></g></g></g><path fill="#723b2f" d="M 21.960938 143.707031 C 21.960938 142.972656 22 142.308594 22.109375 141.648438 C 22.328125 140.175781 22.730469 138.628906 23.351562 137.121094 C 23.902344 135.722656 24.671875 134.210938 25.699219 132.484375 L 26.027344 132.667969 C 25 134.359375 24.234375 135.867188 23.683594 137.265625 C 23.097656 138.777344 22.695312 140.25 22.472656 141.71875 C 22.292969 143.046875 22.292969 144.480469 22.511719 146.136719 C 22.765625 147.71875 23.171875 149.226562 23.757812 150.554688 C 26.136719 156.367188 31.375 161.554688 37.417969 164.058594 L 37.269531 164.390625 C 31.117188 161.851562 25.808594 156.589844 23.390625 150.699219 C 22.804688 149.339844 22.402344 147.792969 22.144531 146.171875 C 22.035156 145.289062 21.960938 144.480469 21.960938 143.707031 Z M 21.960938 143.707031 " fill-opacity="1" fill-rule="nonzero"/><path fill="#fc4242" d="M 24.671875 135.167969 C 24.121094 136.238281 23.683594 137.304688 23.316406 138.335938 C 22.949219 139.363281 22.730469 140.433594 22.546875 141.425781 L 9.914062 139.4375 C 11.121094 137.746094 12.441406 136.273438 13.867188 135.058594 C 13.539062 133.21875 13.320312 131.304688 13.28125 129.355469 Z M 24.671875 135.167969 " fill-opacity="1" fill-rule="nonzero"/><g mask="url(#42e09bd304)"><g transform="matrix(1, 0, 0, 1, 12, 129)"><g clip-path="url(#920472479c)"><g clip-path="url(#54eb91d3e1)"><path fill="#ffffff" d="M 11.902344 7.824219 C 11.683594 7.421875 11.5 6.980469 11.316406 6.539062 C 11.132812 6.097656 10.949219 5.65625 10.765625 5.175781 L 11.828125 5.726562 C 11.976562 6.132812 12.160156 6.5 12.304688 6.90625 C 12.160156 7.199219 12.050781 7.53125 11.902344 7.824219 Z M 11.902344 7.824219 " fill-opacity="1" fill-rule="nonzero"/></g><path fill="#ffffff" d="M 10.765625 11.320312 C 8.972656 9.152344 7.65625 6.28125 6.738281 3.152344 L 7.800781 3.703125 C 8.570312 6.207031 9.632812 8.5625 10.988281 10.4375 C 10.949219 10.695312 10.839844 11.027344 10.765625 11.320312 Z M 10.765625 11.320312 " fill-opacity="1" fill-rule="nonzero"/><g clip-path="url(#be2e599a07)"><path fill="#ffffff" d="M 8.714844 12.132812 L 7.542969 11.949219 C 6.410156 10.511719 5.382812 8.855469 4.613281 7.015625 C 3.808594 5.175781 3.1875 3.1875 2.710938 1.089844 L 3.773438 1.644531 C 4.285156 3.667969 4.90625 5.617188 5.714844 7.382812 C 6.554688 9.152344 7.582031 10.769531 8.714844 12.132812 Z M 8.714844 12.132812 " fill-opacity="1" fill-rule="nonzero"/></g><g clip-path="url(#ff77b4154a)"><path fill="#ffffff" d="M 4.25 11.433594 L 3.078125 11.25 L 2.746094 10.734375 L 2.453125 10.21875 C 2.269531 9.886719 2.050781 9.519531 1.867188 9.152344 C 1.5 8.453125 1.171875 7.714844 0.84375 6.941406 L 1.574219 6.28125 C 2.308594 8.15625 3.222656 9.886719 4.25 11.433594 Z M 4.25 11.433594 " fill-opacity="1" fill-rule="nonzero"/></g></g></g></g><path fill="#fbb03b" d="M 22.765625 147.351562 C 23.207031 149.410156 24.050781 151.507812 25.222656 153.421875 L 14.234375 160.011719 C 14.125 158.023438 14.199219 156.074219 14.453125 154.195312 C 12.988281 153.019531 11.5625 151.65625 10.277344 150.074219 Z M 22.765625 147.351562 " fill-opacity="1" fill-rule="nonzero"/><g mask="url(#b765468fe2)"><g transform="matrix(1, 0, 0, 1, 11, 147)"><g clip-path="url(#da03d15988)"><g clip-path="url(#688c80f5bd)"><path fill="#ffffff" d="M 12.207031 1.96875 C 11.765625 1.824219 11.363281 1.640625 10.925781 1.417969 L 10.300781 1.125 L 9.679688 0.792969 L 10.851562 0.535156 C 11.21875 0.71875 11.585938 0.902344 11.949219 1.050781 C 12.023438 1.382812 12.132812 1.675781 12.207031 1.96875 Z M 12.207031 1.96875 " fill-opacity="1" fill-rule="nonzero"/></g><g clip-path="url(#3c6a73d8cd)"><path fill="#ffffff" d="M 13.636719 5.394531 C 12.207031 5.097656 10.816406 4.65625 9.421875 4.066406 C 8.03125 3.480469 6.640625 2.742188 5.285156 1.785156 L 6.457031 1.527344 C 7.519531 2.265625 8.691406 2.855469 9.789062 3.332031 C 10.925781 3.808594 12.058594 4.214844 13.234375 4.507812 C 13.34375 4.804688 13.488281 5.097656 13.636719 5.394531 Z M 13.636719 5.394531 " fill-opacity="1" fill-rule="nonzero"/></g><g clip-path="url(#f05ea90cd1)"><path fill="#ffffff" d="M 12.609375 7.417969 L 11.585938 8.042969 C 7.957031 7.234375 4.257812 5.578125 0.855469 2.78125 L 2.027344 2.523438 C 5.394531 5.171875 9.058594 6.71875 12.609375 7.417969 Z M 12.609375 7.417969 " fill-opacity="1" fill-rule="nonzero"/></g><g clip-path="url(#4a9a325057)"><path fill="#ffffff" d="M 8.726562 9.734375 L 7.703125 10.359375 C 6.238281 9.917969 4.773438 9.332031 3.308594 8.59375 C 3.34375 8.261719 3.378906 7.933594 3.417969 7.601562 C 5.175781 8.519531 6.96875 9.21875 8.726562 9.734375 Z M 8.726562 9.734375 " fill-opacity="1" fill-rule="nonzero"/></g></g></g></g><g clip-path="url(#a3bc94cdac)"><path fill="#0dbcb7" d="M 29.359375 158.648438 C 31.042969 160.269531 32.914062 161.667969 34.925781 162.808594 L 28.738281 174.070312 C 27.675781 172.414062 26.796875 170.71875 26.0625 169.027344 C 24.234375 168.804688 22.363281 168.476562 20.496094 167.921875 Z M 29.359375 158.648438 " fill-opacity="1" fill-rule="nonzero"/></g><g mask="url(#f3195431dc)"><g transform="matrix(1, 0, 0, 1, 21, 158)"><g clip-path="url(#99754d5895)"><path fill="#ffffff" d="M 9.714844 1.863281 C 8.800781 2.011719 7.847656 2.121094 6.894531 2.15625 L 7.738281 1.3125 C 8.140625 1.273438 8.578125 1.238281 8.980469 1.203125 C 9.203125 1.421875 9.457031 1.644531 9.714844 1.863281 Z M 9.714844 1.863281 " fill-opacity="1" fill-rule="nonzero"/><path fill="#ffffff" d="M 12.828125 4.144531 C 10.042969 5.027344 6.96875 5.507812 3.707031 5.433594 L 4.550781 4.585938 C 7.152344 4.585938 9.679688 4.253906 11.984375 3.59375 C 12.277344 3.777344 12.570312 3.960938 12.828125 4.144531 Z M 12.828125 4.144531 " fill-opacity="1" fill-rule="nonzero"/><g clip-path="url(#668402fdb7)"><path fill="#ffffff" d="M 13.011719 6.425781 L 12.425781 7.457031 C 8.871094 8.5625 4.84375 9.039062 0.59375 8.671875 L 1.4375 7.824219 C 5.578125 8.121094 9.53125 7.605469 13.011719 6.425781 Z M 13.011719 6.425781 " fill-opacity="1" fill-rule="nonzero"/></g><g clip-path="url(#36a6bb81b1)"><path fill="#ffffff" d="M 10.8125 10.402344 L 10.226562 11.433594 C 8.726562 11.761719 7.1875 12.058594 5.578125 12.167969 C 5.429688 11.875 5.285156 11.578125 5.171875 11.285156 C 7.113281 11.175781 9.019531 10.878906 10.8125 10.402344 Z M 10.8125 10.402344 " fill-opacity="1" fill-rule="nonzero"/></g></g></g></g><g fill="#fc4242" fill-opacity="1"><g transform="translate(29.409498, 14.950458)"><g><path d="M 1.5625 0.0625 C 1.34375 0.0625 1.164062 0 1.03125 -0.125 C 0.90625 -0.25 0.84375 -0.414062 0.84375 -0.625 C 0.84375 -0.820312 0.90625 -0.984375 1.03125 -1.109375 C 1.164062 -1.242188 1.34375 -1.3125 1.5625 -1.3125 C 1.78125 -1.3125 1.953125 -1.25 2.078125 -1.125 C 2.210938 -1 2.28125 -0.832031 2.28125 -0.625 C 2.28125 -0.425781 2.210938 -0.257812 2.078125 -0.125 C 1.953125 0 1.78125 0.0625 1.5625 0.0625 Z M 1.5625 0.0625 "/></g></g></g></svg>